<svg width="558" height="78" viewBox="0 0 558 78" fill="none" xmlns="http://www.w3.org/2000/svg">
<rect x="3.5" y="19.5" width="55" height="55" stroke="#FFA300" stroke-width="7"/>
<path d="M30.8356 65.8362C31.0119 65.633 31.3806 65.134 31.2776 65.191L30.6215 65.9966L30.8356 65.8326V65.8362Z" fill="#F83434"/>
<path d="M31.817 64.0361C31.4754 64.3961 30.8952 65.0555 30.334 65.8504C30.9765 65.0912 30.7298 65.4369 31.4944 64.5316C31.5974 64.471 31.3425 64.8666 31.104 65.166C31.2775 64.9664 31.0091 65.4084 31.4239 64.9058C31.8767 64.2108 31.8495 64.1217 31.3941 64.5886C31.5215 64.3926 31.6977 64.1858 31.817 64.0361V64.0361Z" fill="#F83434"/>
<path d="M29.9824 59.0254L29.9247 59.1466C29.9632 59.086 29.9797 59.0468 29.9824 59.0254Z" fill="#F83434"/>
<path d="M28.5826 56.2695C28.6125 56.2695 28.6802 56.1911 28.7372 56.1162C28.683 56.1554 28.6342 56.1911 28.5826 56.2695Z" fill="#F83434"/>
<path d="M28.9842 54.955C28.9705 54.9907 28.9677 55.0085 28.9595 55.0335C29.0117 54.9479 29.0392 54.898 28.9842 54.955Z" fill="#F83434"/>
<path d="M29.9816 59.0245L30.1334 58.7002C29.9219 58.9675 30.0033 58.9319 29.9816 59.0245Z" fill="#F83434"/>
<path d="M29.8948 65.5369C29.9354 65.5084 30.0032 65.4407 30.0873 65.3516C30.052 65.3765 30.0222 65.3979 29.9951 65.4086C29.9598 65.4549 29.93 65.4906 29.8948 65.5369V65.5369Z" fill="#F83434"/>
<path d="M31.2694 59.3632L31.2857 59.381C31.3616 59.2919 31.4538 59.1814 31.5541 59.0566L31.2694 59.3632V59.3632Z" fill="#F83434"/>
<path d="M31.958 60.0123C31.9688 59.9624 31.4239 60.6646 31.1853 60.9675C31.4158 60.6859 31.5296 60.5612 31.5838 60.522C31.6869 60.3865 31.8062 60.2226 31.958 60.0123Z" fill="#F83434"/>
<path d="M31.9471 62.4928L32.0393 62.418C32.0122 62.4429 31.9824 62.4607 31.9471 62.4928Z" fill="#F83434"/>
<path d="M30.9603 58.6508C31.039 58.5439 31.1067 58.4477 31.1474 58.3906C31.0796 58.4797 31.0173 58.5688 30.9603 58.6508Z" fill="#F83434"/>
<path d="M10.3633 42.2195C10.4012 42.1696 10.4256 42.1375 10.4582 42.0947C10.4012 42.1624 10.3606 42.2088 10.3633 42.2195V42.2195Z" fill="#F83434"/>
<path d="M12.3452 37.8102L12.3832 37.7853C12.4862 37.6534 12.5865 37.5215 12.6868 37.3896L12.3452 37.8102V37.8102Z" fill="#F83434"/>
<path d="M29.1276 53.3295C29.1276 53.3295 29.1221 53.3402 29.1194 53.3473C29.1964 53.2867 29.1771 53.2903 29.1276 53.3295Z" fill="#F83434"/>
<path d="M23.7133 47.2598C23.2876 47.9691 23.0029 47.9512 22.5529 48.7675C22.7562 48.4788 23.472 47.7659 23.7133 47.2598Z" fill="#F83434"/>
<path d="M29.9522 65.4234C29.9384 65.4234 29.9246 65.4163 29.9219 65.3984C29.9164 65.4376 29.9246 65.4412 29.9522 65.4234Z" fill="#F83434"/>
<path d="M22.5536 48.7637L22.5481 48.7708L22.5068 48.8492C22.5261 48.8171 22.5371 48.7922 22.5536 48.7637Z" fill="#F83434"/>
<path d="M27.5442 52.0996C27.452 52.2279 27.3843 52.3277 27.3219 52.4275C27.3761 52.3527 27.4412 52.2636 27.5442 52.0996Z" fill="#F83434"/>
<path d="M27.715 54.3415L27.7645 54.2168C27.7232 54.2916 27.715 54.3237 27.715 54.3415Z" fill="#F83434"/>
<path d="M26.297 52.4594C26.3268 52.3881 26.3946 52.2848 26.3051 52.356C26.278 52.3952 26.2618 52.4202 26.2455 52.4487C26.3268 52.3596 26.3675 52.324 26.297 52.4558V52.4594Z" fill="#F83434"/>
<path d="M25.7873 51.7965C25.7494 51.8536 25.7223 51.8999 25.687 51.9498C25.7033 51.9427 25.7168 51.9391 25.7331 51.932L25.7873 51.793V51.7965Z" fill="#F83434"/>
<path d="M12.1636 43.9048C12.3046 43.6909 12.4645 43.4628 12.6245 43.2383C12.2503 43.7515 12.0389 43.8335 12.1636 43.9048V43.9048Z" fill="#F83434"/>
<path d="M30.1985 65.1377C30.0602 65.3123 29.987 65.3943 29.9518 65.4228C29.9626 65.4228 29.9789 65.4157 29.9979 65.4086C30.0792 65.3052 30.1551 65.2054 30.1985 65.1377V65.1377Z" fill="#F83434"/>
<path d="M22.0245 58.0238V57.8135C21.9943 57.9097 21.9943 57.9846 22.0245 58.0238Z" fill="#F83434"/>
<path d="M15.8779 48.585L15.7939 48.6456C15.7885 48.6705 15.8102 48.6598 15.8779 48.585Z" fill="#F83434"/>
<path d="M21.7042 57.6026C21.8805 57.3353 21.9753 57.1678 22.0323 57.0537C21.9862 57.1036 21.9482 57.1464 21.8832 57.2248L21.7042 57.6026V57.6026Z" fill="#F83434"/>
<path d="M12.6309 43.2285L12.6245 43.236L12.6309 43.2285Z" fill="#F83434"/>
<path d="M10.8188 44.2154C10.8812 44.3366 11.5481 43.3528 11.9711 42.8396C12.2639 42.697 11.4912 43.5809 11.1604 44.0978C11.4044 43.9267 12.0985 43.1283 12.1148 43.2209C12.0009 43.3778 11.9684 43.4455 11.8111 43.6237C12.4347 42.9643 12.0172 43.8233 12.7953 42.9857C12.7383 43.0748 12.6814 43.1568 12.6299 43.2281C12.9742 42.7469 13.3321 42.2693 13.5897 41.9378C13.6358 41.9663 14.1021 41.4352 13.652 42.059C13.6439 42.0127 13.4568 42.255 13.3023 42.4332L13.5409 42.2158C12.9064 43.1318 13.2616 42.4546 12.7682 43.1033C13.0556 42.9109 13.6873 42.2942 13.5544 42.6115C12.9146 43.4811 13.2101 42.7326 12.7031 43.5881L12.8685 43.1497C11.906 44.5825 12.8902 42.9893 11.8491 44.5112C11.7705 44.9033 12.3046 44.2368 12.2232 44.6288C12.6109 44.1869 12.7492 43.916 13.1369 43.4704C13.9421 42.8217 11.6213 45.7837 12.6028 44.7928C13.0664 44.2617 13.9015 43.1924 13.5463 43.8732L12.7817 44.8035C12.8143 45.0387 13.9015 43.4918 13.5165 44.2902C13.2074 44.6431 13.1884 44.5005 13.1179 44.636C12.6082 45.495 13.587 44.1548 13.6412 44.2261L13.0013 45.0993C13.2182 45.1136 13.812 44.6574 14.056 44.6645C13.8554 44.9104 13.6303 45.1492 13.4595 45.4522C13.9421 45.2312 13.7171 46.0011 13.4839 46.7068L14.1048 46.0439C14.1129 46.0688 13.8743 46.411 13.7523 46.5357C13.5978 46.8957 14.1129 46.0724 14.3624 45.8158C14.4356 45.8086 14.0831 46.3005 13.8933 46.493C14.4762 46.0047 15.2191 45.5342 14.7284 46.4716L14.5386 46.6641C14.3949 47.0775 15.7884 45.274 15.3438 46.0688L15.2299 46.1793C15.173 46.746 15.8942 46.3397 15.1866 47.6442C16.0243 46.6142 15.0103 48.3607 16.1517 46.8922C15.699 47.769 15.4658 47.9935 15.2381 48.685C15.2272 48.8062 16.0026 47.8367 16.1707 47.744L15.5797 48.5211L16.2656 47.7939L15.596 48.7706L15.7939 48.6315C15.8101 48.5603 16.0189 48.2323 16.1924 48.0114C16.5313 47.7547 15.9565 48.7848 15.6556 49.1876L16.328 48.7563C16.0867 49.0628 15.9755 49.1341 15.802 49.3016C16.4961 48.628 15.1974 50.1428 15.8318 49.5262C15.9538 49.3337 16.1897 49.07 16.3117 48.9167C15.9972 49.4406 16.0894 49.5725 16.3117 49.4656L15.8915 49.9824C15.9159 50.2854 16.3551 50.0786 16.4906 50.2747C16.6289 49.9575 17.3474 49.045 17.4558 49.0094L16.8485 49.8505C17.2606 49.38 17.041 49.4834 17.567 48.9345C17.548 49.0985 16.8919 49.9147 16.6587 50.1428L16.9407 49.9432C16.7591 50.1927 16.6452 50.3032 16.4039 50.6097C16.8187 50.1357 15.8888 51.5792 16.6018 50.7452L16.4202 50.9947C16.5584 51.1907 16.8377 50.9947 16.9841 51.1052C17.5263 50.3994 17.4504 50.6169 17.9222 50.0893C17.8354 50.4279 17.5073 51.1087 17.6565 51.1836C17.9981 50.927 18.1336 50.6097 18.4861 50.2319C18.0008 50.8842 18.1499 50.959 17.7432 51.3511C17.9466 51.4081 17.9981 51.4295 18.5539 51.1123C18.7382 50.8236 18.806 50.6846 18.9849 50.4778C19.0934 50.4101 18.844 50.8343 18.6027 51.1372L18.5457 51.1943C19.4567 50.4565 17.5182 53.6109 18.6813 52.4489L18.6216 52.5059L19.2994 51.9962C19.2805 52.1958 18.8901 52.4275 18.6352 52.8944C19.6112 52.0247 18.7626 53.3756 19.4377 52.8267C18.0875 54.8619 19.8932 53.1582 19.1042 54.5518L19.4377 54.092C19.8064 53.6964 19.2859 54.4057 19.2317 54.5411C19.4919 54.1883 19.5001 54.0885 19.7061 53.8746C20.411 53.7214 19.8146 55.3288 19.8092 56.1308C19.8281 56.3946 21.6365 53.8924 20.9614 55.1471L20.289 55.9277C21.2732 55.2219 20.7174 56.5621 21.5823 56.0025C21.4223 56.1771 21.2325 56.4267 21.2136 56.3946C20.7987 57.0611 21.3627 56.6476 21.7368 56.1558C21.7287 56.2556 21.406 56.612 21.2352 56.89C21.0102 57.307 21.9374 56.2698 21.5064 56.9043C21.4359 57.0076 21.3437 57.0825 21.3003 57.1181C21.5525 56.8651 21.3844 57.3783 21.8859 56.6405C21.7151 57.0825 22.2791 56.5371 22.0296 57.0361C22.6668 56.3126 21.8832 57.5957 22.7372 56.5086C21.8642 57.6421 22.1815 57.6171 22.6424 57.1502C22.3631 57.471 22.4146 57.5672 22.0323 58.0163C22.1028 58.0769 22.3197 57.9379 22.7535 57.3391C21.8236 58.8468 23.8082 56.53 22.5393 58.3585C23.1819 57.9771 23.6591 57.7775 24.0196 57.7169C23.1494 58.8468 23.7594 57.5993 22.8565 58.804C23.3635 58.5331 24.1905 57.6706 24.1308 58.1411C24.0522 58.3478 23.735 58.6044 23.5723 58.7826C24.0793 58.5118 23.7838 59.2674 24.3884 58.8219C24.307 58.9288 24.204 59.025 24.1254 59.0927C24.1796 59.0927 24.0603 59.3387 24.4507 58.8183L24.3179 58.9252C24.8466 58.1197 25.6138 57.4959 25.9202 57.1039C24.749 58.526 25.7684 57.6492 24.2745 59.4278C24.3667 59.3529 24.5727 59.1355 24.833 58.7862C24.7815 58.9217 24.6351 59.132 24.3125 59.4919C24.6215 59.3351 25.0038 58.7399 25.0824 58.8646C24.8927 59.1141 24.8005 59.189 24.5673 59.4706C24.9821 59.0393 25.3969 58.608 25.3075 58.9145C25.1882 59.0607 25.0472 59.2674 25.0282 59.2353C25.2099 59.3209 26.2266 58.2124 26.0042 58.8646C25.1367 59.8983 25.7792 59.2817 25.0689 60.2333L25.3563 60.048L25.6735 59.5525C25.725 59.6523 26.3025 59.0428 26.1235 59.4207L25.7819 59.745L26.0368 59.7236L26.2401 59.2781C26.6739 58.8789 27.1375 58.0769 27.0237 58.4512C26.9342 58.5225 27.0779 58.5474 26.6902 59.1462C26.9505 58.8896 27.2216 58.6151 27.0914 58.911C26.8745 59.2282 26.2889 59.9375 26.1452 60.1478C26.7742 59.4028 26.4597 60.1264 27.1375 59.3387C26.9749 59.5169 26.598 60.0123 26.5275 60.1157L27.0399 59.5098C26.9152 59.7521 26.842 59.8591 26.5383 60.244C26.5383 60.4793 27.4168 59.0143 27.1321 59.6666C27.0833 59.7058 27.0155 59.8092 26.9261 59.884C26.8284 60.2903 27.4385 59.7486 27.2975 60.1905C26.6061 61.1743 27.0372 60.3117 26.4624 61.1529C26.7336 61.1672 27.6174 60.4008 27.5822 60.8036L27.6364 60.6646C28.6721 59.3529 27.2351 61.4594 27.7828 60.9177C27.6906 60.9961 27.1972 61.6305 27.3138 61.4879C27.2433 61.8266 27.753 61.4095 28.2166 61.1743L27.9373 61.4951C27.7584 61.8729 27.9482 61.8622 27.8885 62.0974C28.1678 61.7767 28.1596 61.8765 28.5175 61.3525C27.2134 63.5481 29.6644 60.7644 28.588 62.6036C28.5663 62.5822 28.3142 62.8424 28.3277 62.8638L28.7046 62.7319C29.1357 62.1366 28.954 62.3541 29.2712 61.8622C29.5505 61.5414 29.7945 61.324 29.827 61.3703C29.4719 61.6733 29.1167 62.3077 28.8971 62.6677C29.0272 62.4824 29.1872 62.297 29.3227 62.1153C28.607 63.2451 30.2256 60.9604 29.7945 61.7873L29.5559 62.0867C29.7104 61.9798 30.0521 61.6198 30.0277 61.7588C29.5315 62.4539 29.7484 62.0226 29.3255 62.5715C29.4122 62.6071 30.4072 61.4416 29.9463 62.1794C29.7809 62.3362 29.743 62.2935 29.5776 62.4503C29.0299 63.3129 29.1899 63.1204 29.1357 63.3022L29.1465 63.2772L28.9676 63.7584L29.1059 63.5125C30.513 61.8479 29.4936 63.377 30.4615 62.3505C29.5424 63.32 29.968 62.96 29.3797 63.7156C29.2414 63.958 29.0977 64.2431 28.9242 64.4463C29.4366 63.8903 28.6287 65.0273 29.377 64.2111C29.1926 64.4606 29.4068 64.2966 28.9269 64.9025C29.133 64.7849 29.2387 64.457 29.4773 64.154C30.2066 63.4305 28.9134 65.4479 29.9165 64.4641C30.3882 64.1362 31.0389 63.3343 31.4565 63.0562C31.1908 63.4946 30.7461 63.9152 30.7461 63.9152C30.5265 64.3501 30.6187 64.3394 30.8871 64.1291C30.7136 64.3287 30.5862 64.5247 30.3937 64.8206C30.4859 64.8134 31.1013 63.9616 30.8817 64.4C30.6648 64.6602 30.3178 65.0843 30.0873 65.3303C30.3096 65.1699 30.7082 64.7742 30.9278 64.621C30.616 65.0665 30.4018 65.2305 30.1714 65.4835C30.3747 65.3659 30.616 65.2946 31.1501 64.6388L31.2965 64.3465C31.3426 64.3394 30.8654 64.9417 30.7543 65.0451C30.3015 65.512 30.86 64.7172 31.0471 64.4641L31.2043 64.3536C32.2644 62.8638 30.8817 64.3893 30.8708 64.2111L31.7005 63.2024L30.963 63.9723C31.1555 63.68 31.5893 63.0776 31.7438 62.9707C32.0855 62.3826 31.4131 63.2808 31.8062 62.6428C31.8686 62.5465 31.9092 62.5002 31.9472 62.4646L31.6571 62.7069C31.836 62.5002 32.2102 61.9549 32.1288 62.1473C32.4949 61.4202 31.3805 62.7354 31.9499 61.8978L32.0068 61.8444C31.6083 62.0297 31.4077 62.5964 30.6241 63.3735L32.0041 61.3881L31.4049 62.1402C31.4131 62.0939 31.4293 62.0012 31.6679 61.7018C31.2179 62.1652 31.4212 62.0475 31.0145 62.5073C31.4836 61.7232 30.5889 62.6036 31.508 61.3561C31.0389 61.9121 31.226 61.8871 30.8492 62.2044C31.8333 60.8606 30.597 62.3256 31.001 61.6448C31.5378 60.9889 31.3182 61.4202 31.7222 60.7359C30.8112 61.8408 31.8008 60.3331 31.5839 60.4899C30.8844 61.4024 31.1853 60.7287 30.8708 60.9248C31.1094 60.6254 31.0986 60.2191 31.2721 59.7842L31.3914 59.6345C30.6729 60.5398 30.7271 60.2618 30.5211 60.3759C30.9468 59.8234 31.1203 59.6203 31.3426 59.4135L31.2857 59.3458C31.0471 59.6238 30.9115 59.7593 30.7949 59.8199L31.3345 59.1462C31.2341 59.0892 30.5699 59.77 30.8275 59.1854C30.3313 59.8234 29.5342 61.0781 29.1086 61.381C29.3716 61.0282 29.8216 60.4258 29.9545 60.3153C29.9111 60.3474 29.705 60.5648 29.7999 60.3937L30.2852 59.8591C30.4398 59.5454 29.8894 60.3189 29.8975 60.2226C30.2771 59.7272 30.1415 59.8341 30.4479 59.4456C30.494 59.41 30.3205 59.6915 30.4831 59.5133C30.513 59.3743 30.6919 59.0179 30.963 58.6223C30.7515 58.911 30.4533 59.2923 30.3774 59.3209C30.2771 59.2603 30.8085 58.69 30.9603 58.3799C30.6811 58.7007 30.9061 58.2836 30.3394 59.025C30.3205 58.9929 30.5807 58.6401 30.7271 58.4298C30.4398 58.7078 30.4804 58.2943 29.9219 59.1391L29.8921 59.2032C29.8921 59.2032 29.8758 59.2139 29.8623 59.2282C29.1763 59.8056 29.9273 58.4726 29.564 58.6294L29.7538 58.3799C29.4637 58.5688 29.4637 58.3335 29.0055 58.8005C28.9838 58.772 29.3011 58.2801 29.5342 57.9949C29.3363 58.109 29.1167 58.3799 29.3499 57.8631C29.7349 57.5031 29.6237 57.4532 29.6481 57.6207C29.7403 57.3106 30.0249 56.89 29.4312 57.4674C29.9436 56.8651 29.987 56.5942 29.8081 56.7367L29.5125 57.2607C29.4041 57.3035 29.4122 57.2001 29.4204 57.1039L30.0765 56.2912C30.7055 55.0758 28.4904 57.6777 29.6752 55.8207C29.1899 56.3554 29.442 56.3375 28.8835 56.9791C28.9025 56.776 29.7457 55.4786 29.7267 55.45C29.987 54.8619 28.7073 56.5621 28.851 56.1166C28.6368 56.4302 28.0404 57.2464 27.753 57.4318C27.7692 57.2322 28.6233 56.0667 28.8483 55.8849C28.8835 55.8813 28.8185 55.9847 28.7426 56.088C28.8483 56.0061 28.973 55.917 29.1926 55.557L28.9567 55.8457C29.1547 55.4964 29.0381 55.4037 29.4339 54.9439C29.1655 55.1613 29.0381 55.4073 28.9594 55.6104C29.2007 55.0615 28.832 55.418 28.9649 55.0081C28.8537 55.1934 28.5989 55.5605 28.588 55.5391C28.7371 54.9938 28.0973 56.031 27.9102 56.0453C28.2057 55.5213 28.7561 54.9796 28.3765 55.2433C28.5555 54.8619 28.9676 54.4342 29.1763 54.2204C28.6558 54.6908 29.3119 53.6394 29.3444 53.4719L29.5722 53.2865C29.4366 53.397 29.4204 53.3649 29.3987 53.3328L28.9676 53.9637C29.0218 53.8247 29.0028 53.7962 29.1926 53.5467C28.8673 53.9031 28.4552 54.5697 27.997 55.0366C28.1949 54.6873 27.6472 55.229 28.2383 54.42C28.1407 54.8298 28.832 53.6073 29.0191 53.5966C28.9296 53.6679 28.9106 53.6358 28.9649 53.4968C29.0272 53.4041 29.0923 53.3364 29.1357 53.3008C29.5749 52.456 28.4064 54.1384 28.3142 53.9815C28.6666 53.5503 28.935 53.1012 28.8456 53.1724C28.8808 53.2366 28.2979 53.9459 27.9997 54.2382C28.1976 53.7998 27.7286 54.4021 27.7259 54.313L27.6418 54.5304C27.2893 54.9582 27.3002 54.8548 27.1457 54.9368C27.4059 54.5839 27.3707 54.755 27.471 54.5768C26.8203 55.2932 27.9726 53.6073 27.4954 54.0421C27.6933 53.6928 28.1325 53.1974 28.2572 52.9515C27.734 53.4255 28.6341 52.2208 28.184 52.5879C27.7503 53.2223 27.8668 53.0798 27.3626 53.5859L27.8262 53.3471L27.0697 54.1027C27.105 54.1669 27.4466 53.8425 27.3951 53.978C26.9776 54.4128 27.0969 54.2667 26.739 54.7942C27.368 53.814 26.2238 55.1685 26.6197 54.4699L27.7557 52.9835C28.1596 52.1887 26.9938 53.5111 27.1484 52.9622L26.9938 53.2758C26.5248 53.8461 26.8501 53.2509 26.6251 53.4362C27.0074 52.9443 27.1185 52.7269 27.3354 52.3954C27.0562 52.7661 27.2649 52.235 26.4977 53.2117L26.9369 52.4774C27.0345 52.0711 25.7385 53.7356 25.7629 53.4326C26.2049 52.9336 26.4272 52.5202 26.7905 52.2208C26.7607 52.1709 26.7986 52.039 26.5356 52.3847C26.7525 52.0461 25.931 52.9301 26.2591 52.4168C26.0774 52.6164 25.6762 53.1332 25.6708 53.0406C25.744 52.9336 25.8578 52.7946 25.8578 52.7946C25.6708 53.0406 25.5433 53.0513 25.1583 53.6465C26.2347 51.957 24.7788 53.3721 25.7006 51.9214C25.5 51.9891 25.2885 52.0319 25.1936 51.9784C25.3102 51.8358 25.3834 51.7325 25.3563 51.8002C25.6138 51.2157 24.2121 53.1546 24.4995 52.4988C25.058 51.622 24.8872 52.1388 25.0851 51.7895C26.316 50.1321 24.7869 51.843 25.443 50.7951L25.5325 50.7202C25.9012 50.0929 24.9279 51.1658 24.9279 50.9305C24.9279 50.9305 25.0418 50.7915 25.1177 50.6846C24.4209 51.4402 24.0956 51.565 23.8353 51.6826C24.3504 51.0766 24.1308 51.3939 24.6107 50.7238C24.5022 50.7666 23.8272 51.7824 23.6103 51.8644C23.8516 51.4794 24.0305 51.1016 24.551 50.3959L24.6514 50.4529C25.2993 49.5048 24.5348 50.3602 24.6161 50.1535L24.9198 49.7686C24.711 49.7507 23.9573 50.738 23.8922 50.5099L23.678 50.8236C22.8674 51.7182 24.044 50.1998 23.4232 50.845L24.1606 49.8256C23.9356 50.0074 23.2795 50.5883 23.0599 50.6739C23.6645 49.9931 24.0413 49.7365 24.4317 49.3694C24.3938 49.3052 24.2311 49.2517 23.8353 49.7151C23.9248 49.6402 24.1335 49.4264 24.0332 49.601C23.3852 50.3139 23.0246 50.6097 22.9541 50.4814C24.4372 48.571 23.1033 49.7044 24.1796 48.1254C23.4855 48.6422 24.1118 47.4304 23.8516 47.3128C22.7725 48.8953 23.7675 47.2878 22.6071 48.8418C22.4932 48.8846 22.496 48.8418 22.5664 48.7349L23.1439 47.6514C23.4557 47.1631 23.4422 47.3627 23.6997 47.0134C23.6997 46.7781 24.1579 46.3112 24.4128 45.8229C24.0061 46.3896 23.7811 46.5714 23.8895 46.2934L23.4205 47.0989C22.6722 47.7547 24.2962 45.6625 23.5533 46.3112L23.9627 45.8799C23.6807 46.0795 23.7323 45.5556 22.7264 46.714C22.8511 46.5215 23.1548 46.0795 23.2686 46.0047C23.2551 45.6162 21.9239 46.8708 22.3848 45.9512L22.683 45.5912C22.5719 45.6625 22.0947 46.2328 22.3468 45.8051C22.4661 45.6518 22.6451 45.4451 22.6478 45.4059C22.5339 45.5164 22.0703 45.9655 22.1977 45.6946L22.5529 45.3132C22.7779 44.6217 21.5362 46.0439 21.2136 46.1365C22.0567 45.028 22.214 44.5112 22.2926 44.2546L22.4146 44.1013C22.3441 43.7342 21.4169 44.6288 20.9235 44.8534C21.7395 43.5168 20.9668 43.9017 21.3193 43.0142C21.1919 43.2495 20.6578 43.8732 20.5439 43.9481C20.6767 43.6736 19.8525 44.5789 20.6334 43.5702V43.6059C21.3627 42.5687 21.0834 42.7326 21.0427 42.6257L20.0206 43.9445C21.3328 41.7988 19.0636 44.1085 20.2945 42.2586C20.0016 42.5402 19.9583 42.476 19.6682 42.7576L20.2131 42.0483C20.2457 41.7275 20.2592 41.5671 19.9989 41.5636L20.4138 41.0895C20.3758 40.9434 18.7545 43.0249 18.6542 42.975L19.4431 41.8843C19.3022 41.7311 19.8824 40.6226 19.0175 41.421C19.1395 41.2677 19.3754 40.9648 19.4296 40.9505C19.3889 40.8436 19.7414 39.9204 18.6515 41.4103C19.3754 40.4551 18.5891 41.143 18.1987 41.4709L18.7437 40.783C18.0008 41.6028 17.8137 41.8451 17.5426 41.9841C17.5914 41.8665 17.952 41.3996 17.8435 41.6135C18.0577 41.1608 17.2877 42.2123 17.4911 41.7346L17.8625 41.3247C17.8354 41.1822 17.6592 41.4317 17.2254 41.9057C16.9678 42.1338 17.2335 41.56 17.7053 40.9149C17.4016 41.2891 16.9705 41.7596 17.0708 41.5243C17.2471 41.2784 17.3745 41.1465 17.4369 41.0859C17.689 40.4622 16.6479 41.6847 17.098 40.8935C17.2742 40.6582 17.3555 40.537 17.4043 40.4586C17.4802 40.5905 17.5236 40.7259 17.4775 40.7687C17.971 40.12 17.9845 39.9133 18.722 39.0935C18.2936 39.507 17.3881 40.4372 17.548 40.0416C17.5914 39.9739 17.6348 39.9097 17.708 39.8064L17.7703 39.7422C17.8029 39.6567 17.7432 39.6959 17.6456 39.7885C17.7053 39.6531 17.7486 39.5569 17.7351 39.5176C18.1336 38.9723 17.8734 39.1184 17.8571 39.0472C17.3203 39.76 17.3609 39.5854 16.9597 40.2269C16.9922 40.1699 17.0302 40.1521 17.0763 40.1521C17.098 40.1378 17.1115 40.1343 17.1468 40.0986C17.1305 40.1164 17.1142 40.1378 17.098 40.1592C17.1359 40.1699 17.1793 40.1949 17.2227 40.2305C16.9217 40.5549 16.6615 40.8186 16.919 40.3731C16.553 40.8044 16.1789 41.2463 15.9999 41.4495C16.7021 40.398 17.0139 39.7386 17.464 39.1113C17.0519 39.3644 17.0058 39.0329 15.9267 40.2733C15.7668 40.4052 16.1816 39.8456 16.328 39.621C16.4473 39.5105 16.4527 39.5604 16.6099 39.3822C16.2873 39.6424 16.3253 39.2717 15.6014 40.1842C15.8427 39.6602 16.2954 39.3858 16.0731 39.3965L16.3036 39.1327C17.2227 37.3684 14.1536 41.0539 15.3709 38.8369C15.2977 38.9759 15.2652 39.04 15.1513 39.2004C15.5227 38.0064 13.9991 39.2646 14.7501 37.5822C14.8802 37.2151 14.4193 37.7961 14.0289 38.1882L14.5928 37.404L13.8472 38.1775C13.2481 38.6729 15.0754 36.0567 14.0099 37.0868L13.6385 37.625C13.6629 37.4611 13.2481 37.7177 13.7062 37.1367C13.6303 37.2222 13.2833 37.6464 13.4677 37.3541L13.7686 36.9549L13.1261 37.4753C13.2481 37.0619 14.3434 35.9141 14.262 35.6504C14.0939 35.7359 13.2318 36.6128 13.0474 36.905C13.0528 36.9514 12.9119 37.2222 12.6109 37.625L12.4049 37.7711C11.5048 38.9331 10.5531 40.0879 10.0461 41.061L10.6724 40.4515L10.2657 41.0539L10.1708 41.0004C9.80212 41.5885 10.1871 41.1465 10.4637 40.8578C10.2386 41.1679 10.0895 41.396 10.0217 41.5315L10.9544 40.5157C10.6155 40.9897 10.2251 41.3782 10.0868 41.7026C10.5206 41.2321 10.8324 40.6261 11.155 40.366C10.789 40.9505 10.4474 41.3711 10.8378 40.9754C10.6155 41.2855 10.4582 41.4673 10.3389 41.5742C10.6561 41.2642 10.564 41.5636 11.0601 40.9683C10.5992 41.6812 11.3285 40.979 10.4799 42.0839C10.6941 41.8344 11.2147 41.3069 11.2879 41.3105C10.2088 42.5509 11.3692 41.5742 10.2657 42.975C11.2255 41.8451 10.8541 42.6863 11.4478 42.141C11.3719 42.2301 11.2147 42.4083 11.2526 42.337C11.2282 42.5045 10.9679 42.8823 10.8297 43.1497C11.5861 42.1695 11.8382 42.0483 12.3425 41.4958C11.681 42.5295 11.4234 42.6043 10.7456 43.5453C11.3502 42.7398 11.4614 42.8895 11.9467 42.1944C11.5454 42.8467 11.7705 42.533 11.1713 43.3849C12.1202 42.1624 11.3746 43.2352 11.9901 42.5259C11.5969 43.2245 11.1279 43.7057 11.4885 43.4277C11.2363 43.8518 10.8378 44.2011 10.8378 44.2011L10.8188 44.2154ZM14.2349 44.4364L14.2241 44.4506C14.197 44.4471 14.1726 44.4435 14.1563 44.4435C14.1726 44.4435 14.1943 44.4435 14.2349 44.4364V44.4364ZM14.3949 44.6217C14.3976 44.5683 14.3786 44.5362 14.3515 44.5077C14.5332 44.2546 14.7284 44.0122 14.7338 44.0443C14.6009 44.1976 14.5305 44.3865 14.3949 44.6217V44.6217ZM17.811 39.2931C17.9113 39.2254 17.811 39.3751 17.7053 39.5248C17.6836 39.5248 17.6538 39.5283 17.5995 39.5533C17.5778 39.5782 17.5534 39.6068 17.5317 39.6353C17.6375 39.5034 17.7351 39.3786 17.811 39.2931V39.2931Z" fill="#F83434"/>
<path d="M17.0601 40.166C17.0438 40.1767 17.0194 40.2052 17.0113 40.2052C16.9679 40.2729 16.9326 40.3335 16.9055 40.3834C16.9652 40.3122 17.0248 40.2409 17.0817 40.1731C17.0736 40.1731 17.0682 40.166 17.0601 40.166Z" fill="#F83434"/>
<path d="M29.9165 59.1679L29.9246 59.1465C29.9056 59.1786 29.8867 59.2106 29.8541 59.257C29.8785 59.2213 29.8948 59.1964 29.9138 59.1679H29.9165Z" fill="#F83434"/>
<path d="M15.4441 48.7134L15.5797 48.5352L15.4468 48.6742L15.4441 48.7134Z" fill="#F83434"/>
<path d="M28.8971 62.6895C28.851 62.7536 28.8049 62.8213 28.7697 62.8855C28.8049 62.8391 28.8483 62.7679 28.8971 62.6895Z" fill="#F83434"/>
<path d="M29.1329 63.3203L28.9919 63.6375C29.0787 63.4664 29.1139 63.3773 29.1329 63.3203Z" fill="#F83434"/>
<path d="M29.1411 64.0325C29.2387 63.9113 29.3119 63.8222 29.377 63.7366V63.7295L29.1411 64.0325V64.0325Z" fill="#F83434"/>
<path d="M24.1281 59.1074C24.1281 59.1074 24.1118 59.1074 24.0928 59.1252C23.9627 59.2286 24.0223 59.1965 24.1281 59.1074Z" fill="#F83434"/>
<path d="M26.6902 59.168C26.5791 59.2785 26.4679 59.3854 26.3947 59.446C26.3757 59.5315 26.3839 59.5672 26.6902 59.168Z" fill="#F83434"/>
<path d="M22.0242 58.0448C22.0242 58.0448 22.0296 58.0377 22.035 58.0341C22.0296 58.0341 22.0296 58.027 22.0269 58.0234V58.0484L22.0242 58.0448Z" fill="#F83434"/>
<path d="M26.3432 59.3534C26.2591 59.5245 26.3025 59.5209 26.3947 59.4461C26.4109 59.3748 26.4435 59.2714 26.3432 59.3534Z" fill="#F83434"/>
<path d="M30.0927 65.9255L30.0846 65.9718C30.1198 65.9255 30.1497 65.8863 30.1741 65.8613L30.0954 65.9255H30.0927Z" fill="#F83434"/>
<path d="M30.1714 65.8616L30.25 65.7974C30.25 65.7974 30.2337 65.7867 30.1714 65.8616Z" fill="#F83434"/>
<path d="M30.4154 65.6582L30.2473 65.7972C30.2473 65.7972 30.2527 65.8542 30.4154 65.6582Z" fill="#F83434"/>
<path d="M29.9761 65.1201L29.7755 65.3732C29.8189 65.3233 29.884 65.2413 29.9761 65.1201Z" fill="#F83434"/>
<path d="M29.808 65.0448C29.789 65.1375 29.4583 65.6793 29.6155 65.5688L29.7755 65.3692C29.4664 65.7291 30.1632 64.6456 29.808 65.0448V65.0448Z" fill="#F83434"/>
<path d="M31.7628 61.2638L31.7004 61.5917C31.8929 61.2959 32.1505 60.9002 32.2427 60.8895C32.747 59.9201 31.8008 61.5347 31.7628 61.2638Z" fill="#F83434"/>
<path d="M31.7764 60.4864C31.9228 60.4258 32.0773 60.0872 32.1993 59.9375C31.977 60.1442 31.9228 60.1977 31.7764 60.4864Z" fill="#F83434"/>
<path d="M29.6969 57.7493L30.193 57.1113C30.0846 57.1541 30.0033 57.3608 29.6969 57.7493Z" fill="#F83434"/>
<path d="M26.7634 60.558L26.4977 61.0072L26.964 60.4404L26.7634 60.558Z" fill="#F83434"/>
<path d="M30.0222 55.6572L30.109 55.5859L29.8677 55.7356L30.0222 55.6572Z" fill="#F83434"/>
<path d="M26.3513 51.291L25.7576 52.1001C25.8931 51.9932 26.5764 51.1056 26.3513 51.291Z" fill="#F83434"/>
<path d="M24.2284 50.1144C24.5131 49.6974 24.6649 49.3837 24.3423 49.7402C24.3342 49.84 24.1335 50.1928 24.2284 50.1144Z" fill="#F83434"/>
<path d="M20.6876 42.872L20.9208 42.6475L20.693 42.7936L20.6876 42.872Z" fill="#F83434"/>
<path d="M78.935 2.93661C78.794 2.68711 78.4063 2.21306 78.4144 2.3984L79.0001 3.2966L78.935 2.93661Z" fill="#F83434"/>
<path d="M77.3083 1.98524C77.536 2.49493 77.9861 3.32541 78.6205 4.02401C78.0891 3.11868 78.3629 3.42877 77.7204 2.36305C77.7149 2.17771 78.0403 2.47711 78.2626 2.79789C78.1243 2.55196 78.5066 2.84423 78.1433 2.27394C77.5658 1.74286 77.433 1.86405 77.7231 2.54839C77.5577 2.39869 77.4167 2.14919 77.3055 1.98524H77.3083Z" fill="#F83434"/>
<path d="M69.7494 9.32042L69.866 9.36319C69.8117 9.32398 69.7765 9.31329 69.7494 9.32042Z" fill="#F83434"/>
<path d="M65.3329 14.2105C65.3491 14.1499 65.2976 14.0501 65.2434 13.9717C65.257 14.0644 65.2705 14.1463 65.3329 14.2105Z" fill="#F83434"/>
<path d="M63.9392 14.2074C63.9745 14.2145 63.9962 14.2074 64.0233 14.2074C63.9501 14.1503 63.9013 14.1289 63.9392 14.2074Z" fill="#F83434"/>
<path d="M69.7494 9.32075L69.4403 9.20312C69.6382 9.4847 69.6491 9.33144 69.7494 9.32075Z" fill="#F83434"/>
<path d="M77.9318 5.18939C77.9237 5.11811 77.883 5.01474 77.8234 4.89355C77.8315 4.95415 77.8369 5.00761 77.8342 5.05395C77.8667 5.10028 77.8966 5.13949 77.9291 5.18939H77.9318Z" fill="#F83434"/>
<path d="M71.0291 6.28387L71.0616 6.23753C70.9993 6.1306 70.9206 6.00229 70.8312 5.86328L71.0291 6.28387Z" fill="#F83434"/>
<path d="M72.3088 4.34863C72.2546 4.35933 72.7833 5.08288 73.0056 5.40723C72.8022 5.09357 72.7182 4.92248 72.7046 4.83338C72.6016 4.69793 72.4769 4.5411 72.3088 4.34863V4.34863Z" fill="#F83434"/>
<path d="M75.4407 2.72294L75.4049 2.57324C75.4187 2.61601 75.4242 2.66948 75.4407 2.72294Z" fill="#F83434"/>
<path d="M69.9283 7.42826C69.847 7.3249 69.7711 7.23935 69.7223 7.18945C69.7901 7.27856 69.8606 7.35697 69.9283 7.42826Z" fill="#F83434"/>
<path d="M35.4717 63.3728C35.4338 63.3193 35.4094 63.2908 35.3768 63.248C35.4229 63.33 35.4582 63.3835 35.4717 63.3728Z" fill="#F83434"/>
<path d="M31.207 61.9656L31.1989 61.8979C31.0986 61.7624 31.0009 61.627 30.9006 61.4951L31.2043 61.9656H31.207Z" fill="#F83434"/>
<path d="M61.9766 14.9696C61.9766 14.9696 61.9848 14.9731 61.9931 14.9767C61.9656 14.852 61.9573 14.8912 61.9766 14.9696Z" fill="#F83434"/>
<path d="M50.7006 30.8379C51.3133 31.2977 51.1045 31.9357 51.8366 32.3741C51.6088 32.121 51.1777 31.0304 50.7006 30.8379Z" fill="#F83434"/>
<path d="M77.8268 5.14355C77.813 5.17563 77.7993 5.20771 77.7745 5.22553C77.8185 5.21484 77.8323 5.18989 77.8268 5.14355Z" fill="#F83434"/>
<path d="M51.8365 32.374L51.842 32.3812L51.9125 32.4204C51.8826 32.4025 51.8637 32.3883 51.8365 32.374Z" fill="#F83434"/>
<path d="M59.371 19.2471C59.4713 19.3647 59.5553 19.4431 59.6367 19.518C59.5797 19.4467 59.5065 19.3683 59.371 19.2471Z" fill="#F83434"/>
<path d="M62.3207 17.3863L62.1932 17.3613C62.2637 17.397 62.299 17.397 62.3207 17.3863Z" fill="#F83434"/>
<path d="M58.9968 21.739C58.9263 21.7247 58.8422 21.6392 58.8748 21.7853C58.9073 21.8174 58.929 21.8388 58.9534 21.8566C58.8937 21.739 58.8802 21.6713 58.9995 21.739H58.9968Z" fill="#F83434"/>
<path d="M57.8201 23.293C57.8689 23.3393 57.9068 23.3678 57.9502 23.407C57.9502 23.3785 57.9556 23.3464 57.9583 23.3215L57.8201 23.293Z" fill="#F83434"/>
<path d="M38.7956 58.3187C38.6194 58.1547 38.435 57.9551 38.2561 57.752C38.6574 58.2331 38.6221 58.6395 38.7956 58.3187Z" fill="#F83434"/>
<path d="M77.6282 4.79004C77.7583 4.97895 77.8152 5.07875 77.8261 5.1429C77.8342 5.11795 77.8369 5.08588 77.8369 5.0538C77.761 4.9433 77.6851 4.8435 77.6309 4.7936L77.6282 4.79004Z" fill="#F83434"/>
<path d="M63.2019 27.3877L62.9362 27.5303C63.0392 27.5303 63.1368 27.4768 63.2019 27.3877Z" fill="#F83434"/>
<path d="M47.1814 47.0947L47.2034 47.2373C47.2337 47.2302 47.2337 47.191 47.1814 47.0947Z" fill="#F83434"/>
<path d="M62.4563 28.3679C62.234 28.1611 62.0876 28.0649 61.9791 28.0186C62.0144 28.0827 62.0388 28.1397 62.0957 28.2288L62.4563 28.3679V28.3679Z" fill="#F83434"/>
<path d="M38.2507 57.749L38.2571 57.7565C38.2571 57.7565 38.2539 57.7527 38.2507 57.749Z" fill="#F83434"/>
<path d="M38.2968 61.0523C38.492 60.8385 37.6868 60.0294 37.318 59.4448C37.3316 58.8995 37.9389 60.0008 38.3727 60.3822C38.3185 59.9616 37.7708 58.9708 37.8982 58.8781C38.0229 59.0207 38.0853 59.0527 38.2073 59.2737C37.7844 58.347 38.5977 58.6892 38.0528 57.5415C38.1287 57.6092 38.1937 57.6769 38.2507 57.7446C37.8684 57.3134 37.5051 56.8464 37.253 56.5007C37.3207 56.3795 36.9547 55.7166 37.4482 56.2869C37.3858 56.3332 37.5675 56.5827 37.6895 56.8037L37.5729 56.4294C38.313 57.2064 37.6895 56.8821 38.1802 57.5308C38.126 57.0318 37.7681 56.0552 38.0799 56.1372C38.7577 56.9569 38.0067 56.8108 38.7523 57.3526L38.3103 57.2813C39.487 58.4361 38.1205 57.3419 39.3569 58.6072C39.8015 58.5181 39.3108 57.7946 39.7554 57.709C39.4517 57.1565 39.2023 57.0282 38.8959 56.4793C38.6086 55.1498 40.8182 58.2579 40.2163 56.768C39.8503 56.1086 39.0532 54.9895 39.6795 55.3138L40.3519 56.3653C40.6718 56.1372 39.4355 54.7898 40.1892 55.0999C40.4332 55.5419 40.238 55.6774 40.3627 55.7415C41.111 56.2869 40.0645 55.0358 40.1919 54.8683L40.8697 55.6916C41.0297 55.2104 40.848 54.2124 41.0215 53.6707C41.2005 53.9451 41.3523 54.2802 41.6207 54.4512C41.6614 53.5388 42.4856 53.5245 43.2257 53.5673L42.7974 52.6513C42.8353 52.6192 43.1091 52.9079 43.1851 53.0968C43.5375 53.1966 42.8353 52.6192 42.6808 52.2414C42.7187 52.0881 43.1091 52.5301 43.2284 52.8188C42.9953 51.8707 42.895 50.5555 43.7544 51.0081L43.871 51.2933C44.2994 51.3289 42.9438 49.4791 43.6541 49.9246L43.7192 50.1028C44.397 49.8533 44.3617 48.5452 45.5411 49.226C44.7928 48.0783 46.3328 49.1369 45.2293 47.6149C46.0372 48.0248 46.1674 48.3848 46.894 48.4205C47.0404 48.367 46.3273 47.3084 46.3246 47.0019L46.9184 47.7753L46.4548 46.7559L47.2437 47.5757L47.2004 47.2336C47.1217 47.2442 46.8425 47.0054 46.6798 46.7738C46.5822 46.1999 47.504 46.7738 47.8104 47.1658L47.7101 45.9825C47.9378 46.3068 47.9541 46.5029 48.0517 46.7702C47.6613 45.6973 48.7132 47.5365 48.3553 46.5528C48.1954 46.4102 48.0164 46.0716 47.9025 45.9076C48.358 46.2498 48.5831 45.9611 48.5966 45.5476L48.9735 46.1251C49.372 45.872 49.4018 45.0451 49.7435 44.6209C49.4344 44.5283 48.7566 43.5623 48.7864 43.3449L49.4479 44.1148C49.1253 43.5267 49.1117 43.9401 48.7674 43.1489C48.9626 43.0812 49.5618 43.9722 49.6919 44.3322L49.6269 43.8475C49.8221 44.0827 49.8844 44.2574 50.1149 44.5817C49.7895 43.99 51.0014 45.0629 50.4185 44.0613L50.6137 44.293C50.9526 43.8617 50.8876 43.3806 51.1262 42.9849C50.5921 42.2685 50.8171 42.2863 50.4619 41.6091C50.8334 41.5735 51.4759 41.8408 51.6711 41.4665C51.5708 40.8927 51.2644 40.8 51.0204 40.2796C51.5247 40.9069 51.7172 40.5327 51.9449 41.16C52.1537 40.6788 52.2161 40.5469 52.1808 39.5454C51.9395 39.3315 51.8094 39.2745 51.663 39.025C51.6494 38.8325 52.0181 39.0998 52.2459 39.4206L52.2784 39.5097C51.9504 38.0056 54.6534 40.1513 53.9539 38.3799L53.9865 38.469L53.7913 37.3248C54.0326 37.2322 54.0678 37.9343 54.4853 38.1803C54.0299 36.6262 55.1794 37.5815 54.9327 36.4694C56.6136 38.0698 55.6539 35.254 56.8929 36.0559L56.5323 35.6318C56.2774 35.0864 56.8251 35.7601 56.9634 35.785C56.6895 35.4464 56.5703 35.4963 56.4347 35.1862C56.7085 33.7463 58.3488 33.9815 59.3601 33.4611C59.7098 33.2437 57.7415 30.9483 58.8802 31.5934L59.4224 32.5451C59.1811 30.8628 60.5096 31.1835 60.3741 29.6687C60.4906 29.9004 60.6777 30.1499 60.6262 30.2141C61.1928 30.6774 61.0464 29.7222 60.6723 29.2268C60.7943 29.1804 61.0302 29.6509 61.2688 29.8362C61.6483 30.0501 60.9515 28.7099 61.4667 29.2374C61.5507 29.323 61.586 29.4727 61.6022 29.5475C61.4504 29.1626 61.9845 29.1911 61.388 28.5816C61.8327 28.6636 61.5155 27.7903 61.9818 28.0042C61.4884 27.0953 62.5945 27.9507 61.7866 26.8066C62.6406 27.965 62.8196 27.2878 62.5322 26.5927C62.7545 26.9919 62.909 26.8102 63.2235 27.3519C63.3482 27.1559 63.313 26.7781 62.844 26.2221C64.1345 27.2521 62.5186 24.4542 63.9908 26.0153C63.9339 24.8641 63.9962 23.9552 64.1589 23.2031C65.0102 24.3579 63.839 23.8518 64.7635 25.0244C64.7554 24.0977 64.2158 22.8574 64.7689 22.6791C64.9777 22.7148 65.0915 23.2387 65.2108 23.474C65.2027 22.5473 65.9618 22.6934 65.8019 21.6669C65.8805 21.7738 65.9374 21.9342 65.97 22.0625C66.0025 21.9449 66.2384 22.0411 65.8398 21.535L65.8859 21.7524C65.219 21.1322 64.937 19.8669 64.6469 19.457C65.669 21.0752 65.2352 19.4285 66.4959 21.5136C66.4607 21.3639 66.3251 21.0503 66.054 20.7188C66.1896 20.7402 66.3631 20.9184 66.6017 21.3924C66.6071 20.8221 66.111 20.3766 66.317 20.1271C66.5068 20.3802 66.5393 20.5263 66.7427 20.8471C66.4715 20.2269 66.2004 19.6067 66.5312 19.5996C66.6369 19.7636 66.805 19.9346 66.7508 19.9952C66.9813 19.5426 66.2519 18.0527 66.927 18.1097C67.6618 19.318 67.3066 18.3271 68.0386 19.2467L67.9952 18.7442L67.5804 18.377C67.7404 18.1988 67.35 17.3398 67.7133 17.4788L67.8976 18.0099L68.0413 17.4646L67.613 17.3149C67.3934 16.6305 66.6912 16.1458 67.0897 16.1458C67.1222 16.2919 67.247 15.9605 67.7458 16.4131C67.5913 16.0175 67.4259 15.6005 67.716 15.6896C67.9736 15.9533 68.4833 16.7589 68.6568 16.9371C68.1308 16.0567 68.8384 16.2599 68.2935 15.3011C68.4128 15.5399 68.7869 16.0353 68.8737 16.1208L68.448 15.4009C68.673 15.5149 68.7571 15.6005 69.0472 16.0104C69.3427 15.8535 68.0739 14.9019 68.711 15.0943C68.73 15.1727 68.814 15.2547 68.8466 15.4044C69.2966 15.3474 69.0146 14.3708 69.481 14.3886C70.2672 15.2476 69.4593 14.8805 70.1425 15.5791C70.3404 14.9767 69.9554 13.5546 70.4435 13.3621L70.3052 13.3336C69.3319 11.9399 71.0426 13.6829 70.7227 12.8417C70.758 12.9914 71.2351 13.6508 71.1321 13.4904C71.5117 13.4191 71.3246 12.5779 71.3327 11.7261L71.555 12.1253C71.9156 12.2643 72.0268 11.858 72.2816 11.833C72.062 11.4374 72.184 11.3875 71.7557 10.9526C73.6698 12.3498 71.7692 8.83543 73.3878 9.96888C73.3444 10.033 73.5098 10.4109 73.5451 10.3645L73.6264 9.62671C73.1574 9.07781 73.3173 9.33087 72.9025 8.96375C72.6802 8.56455 72.569 8.1796 72.6477 8.07267C72.7968 8.65009 73.3607 9.00652 73.6698 9.24889C73.5234 9.08493 73.3959 8.86038 73.2523 8.68573C74.2093 9.50196 72.3901 7.47744 73.1492 7.87307L73.3688 8.19386C73.3363 7.92297 73.1086 7.41684 73.2658 7.3812C73.8162 8.00495 73.4122 7.81605 73.8297 8.3792C73.9301 8.16891 73.1167 6.76458 73.743 7.2814C73.8297 7.5416 73.7538 7.64852 73.8406 7.90872C74.5699 8.53247 74.4316 8.31148 74.6241 8.31148L74.6024 8.30435L75.0959 8.37208L74.8763 8.23307C73.7023 6.26201 74.963 7.47744 74.3069 6.03746C74.9224 7.40615 74.7515 6.71468 75.3155 7.49882C75.5324 7.63783 75.7981 7.76258 75.9363 8.00852C75.5703 7.25645 76.4786 8.26515 75.9391 7.17447C76.1315 7.40972 76.0692 7.05329 76.5138 7.70199C76.5003 7.3313 76.1559 7.31705 75.9336 6.99269C75.5025 5.88064 77.197 7.37051 76.6169 5.82361C76.5138 5.01095 75.9309 4.11988 75.855 3.39276C76.2346 3.68147 76.4704 4.3765 76.4704 4.3765C76.8771 4.56898 76.9232 4.37294 76.831 3.93097C76.9693 4.1769 77.132 4.3266 77.3787 4.55115C77.4275 4.35868 76.7633 3.57097 77.1699 3.76345C77.357 4.06641 77.6607 4.54403 77.8233 4.87907C77.7664 4.50125 77.5332 3.89176 77.4844 3.51038C77.8423 3.89532 77.9074 4.25532 78.0755 4.59036C78.0646 4.21968 78.1297 3.74206 77.6552 3.01138L77.3841 2.88307C77.4085 2.78683 77.8532 3.43197 77.9101 3.60305C78.1975 4.2874 77.5658 3.5888 77.3706 3.34999L77.3353 3.0791C76.1505 1.75318 77.1672 3.76345 76.9313 3.90602L76.2047 2.76188L76.6901 3.86325C76.446 3.6387 75.9743 3.08623 75.9391 2.81891C75.4212 2.46248 76.1126 3.33573 75.5676 2.89732C75.4863 2.82247 75.4537 2.76544 75.4348 2.70842L75.5513 3.1789C75.4077 2.92584 74.9684 2.46604 75.1582 2.51951C74.4804 2.19872 75.4077 3.76345 74.7217 3.07554L74.6919 2.98643C74.6621 3.73493 75.2477 3.79552 75.7113 4.99313L74.1144 3.29296L74.6702 4.10205C74.6187 4.11631 74.513 4.1377 74.2906 3.81691C74.5753 4.49413 74.5645 4.127 74.8763 4.71155C74.193 4.20542 74.7136 5.58123 73.7484 4.39789C74.1388 5.05372 74.2337 4.66165 74.3855 5.27827C73.3363 4.02007 74.3747 5.74519 73.7782 5.32104C73.3038 4.5868 73.705 4.7757 73.1058 4.34799C73.9002 5.60618 72.6504 4.44423 72.7019 4.81491C73.3932 5.73806 72.7425 5.52421 72.7805 6.0838C72.5582 5.75945 72.0349 6.05885 71.6038 5.96261L71.4927 5.80222C72.1624 6.77171 71.8451 6.84299 71.856 7.21012C71.4385 6.64696 71.2975 6.39746 71.1809 6.05529L71.0589 6.22637C71.2541 6.56141 71.3327 6.77171 71.3327 6.98557L70.8393 6.25132C70.701 6.51152 71.1185 7.51308 70.5519 7.33487C71.0318 7.99782 72.0919 8.90316 72.1895 9.6374C71.9156 9.29879 71.452 8.71425 71.4032 8.49326C71.4168 8.56455 71.5523 8.87464 71.4032 8.7784L71.048 8.07267C70.7525 7.94436 71.3707 8.63227 71.2487 8.6786C70.8718 8.1796 70.9206 8.40059 70.6305 7.9907C70.6143 7.91585 70.8556 8.10475 70.7363 7.86951C70.579 7.89802 70.2482 7.74476 69.9256 7.41328C70.1479 7.68773 70.4353 8.08337 70.4191 8.23307C70.2781 8.4897 69.9066 7.70912 69.6138 7.58437C69.8361 7.98357 69.4566 7.76615 70.0178 8.51465C69.9663 8.57524 69.6924 8.2402 69.5189 8.06555C69.6816 8.50752 69.1827 8.69643 69.8822 9.35582L69.9446 9.37721C69.9527 9.39859 69.9473 9.40572 69.9554 9.42711C70.232 10.5427 69.0418 9.7871 68.9984 10.4786L68.8086 10.2291C68.8547 10.7352 68.5592 10.892 68.8466 11.5871C68.795 11.6512 68.3829 11.2877 68.1796 10.9633C68.1932 11.3197 68.3911 11.6191 67.8922 11.4552C67.6916 10.8493 67.5533 11.1308 67.7838 10.9633C67.453 10.9704 67.1114 10.6211 67.4476 11.5372C67.0246 10.8172 66.7101 10.9027 66.7752 11.195L67.2415 11.498C67.2225 11.7083 67.1005 11.7546 66.9785 11.8081L66.3848 10.9134C65.2651 10.3467 67.0843 13.4654 65.5226 12.1003C65.8778 12.8061 66.0242 12.2678 66.4634 13.0591C66.2194 13.1554 65.1376 12.168 65.0861 12.2286C64.5168 12.0504 65.8154 13.7185 65.3464 13.7007C65.6013 13.9609 66.2384 14.7236 66.2818 15.2298C66.0405 15.326 65.1322 14.2318 65.0509 13.8611C65.0699 13.7862 65.1593 13.8575 65.2352 13.9609C65.2027 13.7862 65.1729 13.5688 64.8638 13.3264L65.0699 13.6544C64.7581 13.4512 64.5656 13.772 64.2429 13.2124C64.3405 13.6544 64.5656 13.772 64.7716 13.8076C64.2402 13.6401 64.4436 14.2104 64.0152 14.1961C64.1752 14.3173 64.4707 14.6274 64.4354 14.6702C63.8471 14.7023 64.731 15.4151 64.6225 15.8179C64.1589 15.5185 63.8363 14.6737 63.9176 15.3296C63.5543 15.187 63.2859 14.5704 63.153 14.2603C63.3998 15.0872 62.5078 14.3494 62.318 14.385L62.2339 14.0108C62.2827 14.2318 62.2312 14.2924 62.1797 14.3565L62.6921 14.8805C62.5539 14.8555 62.5024 14.9161 62.3126 14.6666C62.5512 15.1371 63.1151 15.6005 63.4025 16.2955C63.0934 16.0959 63.4106 16.9371 62.7816 16.1779C63.2344 16.1208 62.1472 15.4151 62.2583 15.0124C62.2909 15.1585 62.2367 15.2226 62.0984 15.1941C62.0225 15.1157 61.9818 15.0195 61.9628 14.9518C61.1874 14.5526 62.5376 15.9925 62.2773 16.2955C61.9682 15.8072 61.5751 15.522 61.6077 15.6682C61.7134 15.547 62.2231 16.3525 62.3939 16.8159C61.971 16.6733 62.421 17.3006 62.3071 17.3683L62.5268 17.4076C62.8358 17.8959 62.7111 17.9422 62.7084 18.2273C62.4346 17.8923 62.6271 17.8567 62.4698 17.7533C62.947 18.6978 61.5751 17.3006 61.8083 18.0527C61.4992 17.8531 61.1603 17.2222 60.9353 17.1082C61.1874 17.9386 60.2629 16.766 60.4283 17.5074C60.9434 18.0313 60.8404 17.8709 61.1468 18.6444L61.1522 17.7889L61.6077 18.9402C61.7134 18.819 61.529 18.2879 61.6673 18.3129C61.9411 18.9366 61.8354 18.7727 62.2638 19.2075C61.4423 18.484 62.3939 20.0879 61.773 19.6851L60.6452 18.1881C59.905 17.8353 60.8079 19.5034 60.2168 19.5319L60.5123 19.6602C60.9217 20.3053 60.3849 19.9917 60.469 20.3624C60.1002 19.8527 59.8996 19.7529 59.6231 19.4998C59.9077 19.8634 59.3736 19.76 60.1002 20.7901L59.4658 20.316C59.0157 20.373 60.2629 22.1053 59.8969 22.2479C59.558 21.6134 59.1811 21.4031 59.0456 20.8079C58.9615 20.9077 58.8205 20.9113 59.0835 21.257C58.7989 21.0075 59.3736 22.2158 58.9398 21.838C59.0727 22.1017 59.4577 22.6364 59.3384 22.7112C59.2516 22.6221 59.1513 22.4653 59.1513 22.4653C59.3384 22.7112 59.2679 22.9821 59.764 23.4312C58.338 22.2015 59.1676 24.4399 57.9394 23.3884C57.8933 23.7841 57.8066 24.2189 57.6764 24.4613C57.5734 24.2973 57.4893 24.2118 57.5571 24.226C56.9878 24.0478 58.5088 25.83 57.8716 25.6375C57.1342 24.9995 57.671 25.0316 57.3619 24.8284C56.0822 23.2352 57.2345 25.4415 56.3398 24.7072L56.3073 24.5575C55.7569 24.169 56.4699 25.584 56.1744 25.7409C56.1744 25.7409 56.0741 25.584 55.9873 25.4914C56.4808 26.5143 56.4211 27.1416 56.3994 27.6371C55.9738 26.9135 56.2313 27.1773 55.7 26.5785C55.681 26.7888 56.5214 27.5907 56.4808 28.0078C56.1554 27.7333 55.7948 27.5943 55.2499 26.9242L55.3909 26.664C54.6209 25.8799 55.1957 26.9812 54.9896 26.942L54.7022 26.5357C54.5423 27.0026 55.2906 27.9971 54.9598 28.2893L55.2147 28.5495C55.8084 29.7293 54.667 28.1646 55.071 29.0949L54.2684 28.161C54.3498 28.5317 54.6507 29.5832 54.6128 30.0073C54.1546 29.1376 54.0759 28.4818 53.8726 27.8759C53.7669 28.0006 53.5906 28.3927 53.9133 28.9523C53.8807 28.8026 53.7452 28.4925 53.9024 28.5959C54.3769 29.5368 54.507 30.1321 54.2983 30.3745C52.8668 28.3998 53.4144 30.5634 52.1293 29.2553C52.3218 30.4279 51.2048 29.8612 50.8849 30.5135C52.17 31.8251 50.7981 30.7131 51.9965 32.2208C51.9748 32.4417 51.9205 32.4667 51.8365 32.3776L50.8496 31.8358C50.4402 31.4758 50.6815 31.376 50.4104 31.0445C50.1122 31.1978 49.8275 30.5063 49.3774 30.2782C49.8248 30.7915 49.9061 31.1622 49.6269 31.1087L50.3345 31.6006C50.668 32.8017 49.1009 30.6382 49.4262 31.8322L49.1497 31.2263C49.2175 31.7111 48.5885 31.9427 49.3829 33.3756C49.2202 33.233 48.865 32.8588 48.846 32.6592C48.3472 32.9443 49.0494 35.0259 48.1899 34.6302L47.9297 34.2168C47.9459 34.4128 48.3526 35.0793 47.9785 34.8084C47.8646 34.648 47.7182 34.3985 47.6721 34.4164C47.7345 34.591 47.9974 35.311 47.7399 35.2076L47.4932 34.6837C46.7693 34.6516 47.7426 36.4231 47.645 37.0646C46.8018 35.9526 46.2514 35.9561 45.9776 35.9561L45.8637 35.7922C45.3513 36.1914 45.8719 37.6207 45.8258 38.5509C44.6762 37.6563 44.6491 39.0891 43.7598 38.9074C43.9713 39.0321 44.4078 39.7842 44.4268 39.9838C44.1665 39.8733 44.7684 41.0745 44.0093 40.0372L44.0554 40.0159C43.2284 39.107 43.2501 39.6095 43.0875 39.7699L44.077 41.1315C42.2334 39.6844 43.646 43.1204 42.125 41.6519C42.2877 42.101 42.1738 42.2435 42.3392 42.6926L41.8024 41.9727C41.4147 42.1152 41.2249 42.1901 41.0459 42.7639L40.7206 42.1723C40.5118 42.3505 42.068 44.5176 41.9406 44.7671L41.0812 43.7655C40.7911 44.179 39.7771 43.6443 40.2136 45.0023C40.0997 44.8384 39.8747 44.5211 39.891 44.4142C39.7283 44.5746 38.7929 44.4142 39.956 45.8078C39.2294 44.8597 39.5737 46.1251 39.731 46.7559L39.2213 46.0217C39.7662 47.0981 39.9479 47.3512 39.9452 47.8502C39.8313 47.8181 39.4789 47.3405 39.6741 47.4403C39.243 47.2728 40.0618 48.2601 39.5927 48.1282L39.3189 47.59C39.121 47.7397 39.3189 47.9642 39.628 48.6022C39.7446 49.0121 39.1969 48.8125 38.6926 48.2102C38.9664 48.6236 39.2755 49.2545 39.0424 49.1939C38.8471 48.9694 38.7685 48.7769 38.7279 48.6842C38.1043 48.5488 38.961 50.0101 38.2561 49.5575C38.0745 49.3294 37.9741 49.2296 37.9064 49.1797C38.126 48.923 38.3212 48.7448 38.3456 48.8161C37.8521 48.1674 37.6 48.2743 37.0523 47.205C37.2882 47.868 37.8657 49.2331 37.4726 49.1404C37.4156 49.087 37.3614 49.0371 37.2801 48.9444L37.2421 48.8482C37.1554 48.8339 37.1662 48.9373 37.2177 49.087C37.0849 49.0478 36.9927 49.0121 36.9357 49.0692C36.5101 48.5595 36.5236 49.0335 36.4206 49.1155C36.9656 49.8141 36.7704 49.8462 37.318 50.2953C37.2665 50.2632 37.2692 50.1919 37.3018 50.0885C37.2991 50.0529 37.3045 50.0208 37.2828 49.9674C37.2963 49.9888 37.3099 50.0137 37.3235 50.0386C37.3614 49.946 37.4211 49.8355 37.4943 49.7179C37.703 50.1634 37.863 50.559 37.4726 50.2846C37.7762 50.7978 38.0853 51.3254 38.2263 51.582C37.3614 50.7444 36.7351 50.4984 36.239 49.9317C36.2878 50.6624 35.8377 50.9832 36.6917 52.523C36.7487 52.7903 36.3176 52.2521 36.1332 52.0774C36.0736 51.8885 36.1387 51.8422 36.0167 51.6212C36.1305 52.1523 35.6886 52.3162 36.361 53.2928C35.8594 53.1146 35.8133 52.302 35.6778 52.7832L35.4961 52.4552C33.8721 51.6176 36.4992 55.8841 34.5011 54.6936C34.6285 54.7613 34.6882 54.7899 34.8156 54.936C33.5522 54.9146 34.1324 57.4132 32.5002 56.8892C32.1207 56.85 32.5545 57.4702 32.7903 58.0619L32.1722 57.349L32.6575 58.4682C32.8879 59.4519 30.7895 57.1886 31.3859 58.8353L31.817 59.2916C31.6245 59.3486 31.6733 60.0828 31.2449 59.4698C31.3046 59.5803 31.611 60.0543 31.3615 59.8476L31.0552 59.4555L31.2856 60.5177C30.8437 60.5248 30.1171 58.8924 29.7321 59.2417C29.7267 59.5553 30.2689 60.8563 30.5156 61.063C30.5807 61.0167 30.8301 61.145 31.1365 61.5406L31.1826 61.8935C32.0556 63.0946 32.8825 64.4063 33.7799 64.8697L33.4247 63.9037L33.9182 64.3921L33.7853 64.638C34.2842 65.055 33.9805 64.5061 33.7989 64.0962C34.0456 64.3778 34.2327 64.556 34.3547 64.6202L33.6877 63.255C34.0592 63.6863 34.2978 64.278 34.615 64.3635C34.3059 63.7291 33.7474 63.444 33.6335 62.9129C34.1297 63.3263 34.4333 63.7968 34.1947 63.2016C34.4387 63.4832 34.5635 63.7077 34.6231 63.8931C34.4414 63.4047 34.7587 63.4083 34.333 62.7204C34.9295 63.255 34.5228 62.1287 35.3605 63.2515C35.187 62.945 34.8644 62.1608 34.9159 61.9969C35.7672 63.5366 35.3009 61.644 36.3447 63.1267C35.553 61.7759 36.3664 62.0361 36.0709 61.0986C36.1305 61.2091 36.2552 61.4301 36.1902 61.3945C36.3827 61.3375 36.6917 61.6547 36.9385 61.7794C36.2037 60.7707 36.2146 60.3038 35.8486 59.566C36.7189 60.3288 36.6429 60.842 37.3831 61.6975C36.7677 60.9062 37.0252 60.5676 36.4694 59.9652C37.0279 60.4107 36.7812 60.1256 37.4617 60.8705C36.5426 59.6088 37.4048 60.5284 36.9195 59.648C37.5431 60.0472 37.8413 60.7493 37.7301 60.1434C38.1016 60.4107 38.2778 61.0559 38.2778 61.0559L38.2968 61.0523ZM40.8426 53.4354L40.8534 53.4497C40.829 53.5138 40.8101 53.5673 40.7965 53.6029C40.8073 53.5709 40.8209 53.5245 40.8426 53.4354V53.4354ZM41.1842 52.9649C41.1191 52.9935 41.0649 53.0576 41.0107 53.136C40.8128 52.9079 40.6338 52.637 40.6799 52.6049C40.7857 52.7938 40.9754 52.8259 41.1842 52.9649V52.9649ZM36.708 49.03C36.6863 48.8553 36.811 48.9729 36.9303 49.1048C36.9141 49.1511 36.9005 49.2153 36.8978 49.3187C36.9168 49.3472 36.9358 49.3828 36.9574 49.4149C36.8598 49.2723 36.7704 49.1369 36.708 49.03V49.03Z" fill="#F83434"/>
<path d="M37.3153 50.0886C37.318 50.1136 37.337 50.1492 37.3316 50.1706C37.3912 50.2169 37.4427 50.2561 37.4861 50.2847C37.4346 50.1991 37.3858 50.1171 37.337 50.0352C37.3289 50.053 37.3207 50.0672 37.3153 50.0851V50.0886Z" fill="#F83434"/>
<path d="M69.8876 9.37041L69.8687 9.36328C69.8958 9.38467 69.9229 9.40249 69.9608 9.44526C69.931 9.41675 69.912 9.39536 69.8876 9.37041Z" fill="#F83434"/>
<path d="M47.0567 47.9575L46.9211 47.7793L47.0079 47.9753L47.0567 47.9575Z" fill="#F83434"/>
<path d="M73.6671 9.26367C73.7186 9.3207 73.7756 9.37773 73.8298 9.41337C73.7945 9.36704 73.7322 9.31714 73.6671 9.26367Z" fill="#F83434"/>
<path d="M74.6215 8.32617L74.9305 8.42241C74.7706 8.34756 74.6811 8.32617 74.6215 8.32617Z" fill="#F83434"/>
<path d="M75.5297 7.83412C75.443 7.69867 75.3752 7.60244 75.3101 7.51333C75.3101 7.51333 75.3101 7.51333 75.3047 7.50977L75.5297 7.83412Z" fill="#F83434"/>
<path d="M65.97 22.0703C65.97 22.0703 65.9617 22.106 65.97 22.1345C66.0167 22.3483 66.014 22.2414 65.97 22.0703Z" fill="#F83434"/>
<path d="M67.743 16.4238C67.8081 16.5949 67.8732 16.7624 67.9003 16.8872C67.9952 16.8694 68.0494 16.8302 67.743 16.4238Z" fill="#F83434"/>
<path d="M63.2322 27.3736C63.2322 27.3736 63.2267 27.3665 63.2239 27.3594C63.2184 27.3701 63.2102 27.3772 63.2019 27.3879L63.2322 27.3736V27.3736Z" fill="#F83434"/>
<path d="M67.7512 17.0623C67.9112 17.1336 67.9356 17.0445 67.9004 16.8877C67.819 16.8984 67.7133 16.8948 67.7512 17.0623Z" fill="#F83434"/>
<path d="M78.5527 4.50136L78.6069 4.49067C78.5716 4.44433 78.5445 4.40513 78.5228 4.37305L78.5527 4.50136Z" fill="#F83434"/>
<path d="M78.5234 4.37343L78.4932 4.24512C78.4767 4.2665 78.4684 4.28789 78.5234 4.37343Z" fill="#F83434"/>
<path d="M78.4307 3.9707L78.493 4.24515C78.5201 4.21307 78.5662 4.19525 78.4307 3.9707Z" fill="#F83434"/>
<path d="M77.4546 5.29297L77.6417 5.56385C77.6064 5.50326 77.5468 5.41772 77.4546 5.29297Z" fill="#F83434"/>
<path d="M77.254 5.70662C77.3597 5.68524 77.826 6.05236 77.7881 5.77791L77.6417 5.56405C77.8911 5.99889 76.9829 5.19693 77.254 5.70662Z" fill="#F83434"/>
<path d="M73.7619 3.94515L74.1334 3.86673C73.8866 3.64218 73.5586 3.33922 73.6074 3.14674C72.7127 2.68695 74.1279 3.68495 73.7619 3.94871V3.94515Z" fill="#F83434"/>
<path d="M72.7886 4.42678C72.8076 4.1452 72.4849 4.03114 72.3738 3.86719C72.4904 4.21292 72.5202 4.30203 72.7886 4.42678Z" fill="#F83434"/>
<path d="M67.9464 10.7922L67.4665 10.1328C67.4476 10.3431 67.6563 10.3823 67.9464 10.7922Z" fill="#F83434"/>
<path d="M69.5542 15.3405L69.9446 15.6292L69.538 14.9805L69.5542 15.3405Z" fill="#F83434"/>
<path d="M65.5149 11.4694L65.4819 11.3232L65.5122 11.7545L65.5149 11.4694Z" fill="#F83434"/>
<path d="M57.5544 22.3906L58.1861 23.1497C58.1373 22.9288 57.473 22.0199 57.5544 22.3906Z" fill="#F83434"/>
<path d="M54.6589 27.8157C54.32 27.4699 54.0244 27.3452 54.2603 27.8157C54.3796 27.7658 54.6941 27.9725 54.6589 27.8157Z" fill="#F83434"/>
<path d="M43.1444 40.3659L43.0116 40.0059L43.0468 40.4051L43.1444 40.3659Z" fill="#F83434"/>
<path d="M123.44 62.24C123.96 62.4 124.52 62.24 124.92 62L125.32 61.16L125.16 60.12C125.16 59.32 125.16 58.52 125.16 57.56C125.16 56.64 125.32 55.84 125.44 55.16V54.2C125.32 52.48 125.32 50.72 125.32 49C125.16 47.24 125.04 45.64 124.76 43.92C124.52 42.32 124.12 40.72 123.56 39.24C122.92 38.68 122.12 38.28 121.16 38.16C120.24 38.04 119.16 38.04 118.24 37.88C117.28 37.88 116.36 37.76 115.56 37.36C115.68 36.68 115.96 35.88 116.36 35.2C116.76 34.56 117 33.76 117.16 32.96C117.28 32.28 117.4 31.48 117.56 30.8C117.68 29.88 117.4 28.92 117 28.28C116.6 27.88 116.08 27.6 115.4 27.48C114.76 27.48 114.2 27.32 113.68 27.2L112.24 27.48L112.12 27.72C112.52 28.68 112.64 29.72 112.64 30.92C112.64 32.16 112.64 33.2 112.8 34.28C112.92 35.36 113.12 36.48 113.6 37.32L113.4 37.76L111.68 38.44L108.72 38.16C108.04 38.04 107.64 38.16 107.24 38.68L107.4 39.52C107.4 41.12 107.24 42.72 107.12 44.2C106.84 45.8 106.72 47.4 106.6 48.88C106.44 50.48 106.2 52.08 105.84 55.6C105.68 56.64 105.84 57.6 106.24 58.52C106.52 59.08 106.76 59.6 107.04 60.12C107.32 60.68 107.72 61.08 108.24 61.48C108.92 60.92 109.32 60.28 109.56 59.32C109.84 58.52 110.12 57.72 110.4 56.8C110.52 56 110.72 53.16 110.88 52.2C111.8 51.96 112.72 51.8 113.8 51.68C114.76 51.68 118.76 51.12 119.68 51L120.88 51.12C121.16 52.08 121.44 54.64 121.56 55.56L121.44 56.24C120.88 56.76 120.24 57.04 119.44 57.16C118.64 57.28 117.8 57.44 117.16 57.56V57.84L118.08 58.12C119.04 58.64 119.84 59.44 120.48 60.36C120.88 60.92 121.28 61.32 121.84 61.44C122.36 61.72 122.92 62 123.44 62.24ZM98.28 58.64L100.16 58.24C100.84 57.28 101.36 56.24 101.76 55C102.04 53.96 102.44 52.88 102.84 51.68C103.24 50.6 103.52 49.52 103.92 48.48L103.52 47.24H103.12L100.56 50.2C99.88 50.88 99.24 51.4 98.56 52.08C97.88 52.76 97.08 53.4 96.4 54.08C95.76 54.76 94.96 55.28 94.16 55.68L94.28 56.24C94.8 56.88 95.48 57.28 96.16 57.56C96.8 57.96 97.6 58.24 98.28 58.64ZM120.76 48.08C119.96 48.2 113.52 48.72 112.72 48.88C112.08 49 111.52 48.88 111.12 48.48C111.28 47.52 111.52 46.44 111.68 45.52C112.6 45.8 120.36 46.04 120.36 46.04L121.04 46.84C121.16 47.24 121.04 47.68 120.76 48.08ZM100.04 45.4L102.16 45.24L102.32 45C102.44 44.32 102.32 43.8 102.04 43.24C101.36 42.56 100.56 42.04 99.88 41.64C99.08 41.24 98.28 40.96 97.36 40.96L94.16 41.36L95.08 42.96C95.76 43.8 96.4 44.44 97.2 44.84C98.04 45.24 98.96 45.52 100.04 45.4ZM120.08 43.4H111.8L111.68 41.92C112.32 41.52 113 41.36 113.8 41.24C114.6 41.24 115.4 41.24 116.08 41.12C116.76 41.12 117.28 41.12 117.96 41.12C118.64 41.12 119.16 41.24 119.68 41.52L120.36 42.84L120.08 43.4ZM102.04 39.24H103.36L103.76 38.68L103.36 37.24C102.56 36.44 101.76 35.76 100.84 35.2C99.88 34.68 98.96 34.4 97.76 34.56H95.76L97.2 36.84L102.04 39.24ZM109.92 37.24L110.72 37.08L111 36.56L110.88 34.8L111 34.16L110.88 31.88L107.52 31.2L106.6 31.36L107.4 33.2C107.8 33.88 108.2 34.68 108.44 35.36C108.72 36.04 109.24 36.68 109.92 37.24ZM119.96 35.76H120.64L121.44 34.8C122.12 34.68 122.64 34.4 123.32 34C123.84 33.6 124.52 33.48 125.16 33.36L125.84 31.6L125.56 30.52C124.92 30.12 124.36 29.72 123.72 29.48C123.04 29.2 122.52 28.8 121.96 28.4L121.04 28.52C120.64 29.48 120.36 30.4 119.96 31.36C119.56 32.28 119.16 33.2 118.76 34.16V34.8L119.96 35.76ZM157.08 63.36C158.12 63.52 159.08 63.36 159.64 62.72L159.24 61.76C158.72 61.12 158.04 60.72 157.36 60.32C156.64 59.92 155.8 59.64 155.08 59.36H151.08L150.24 59.48V59.92C150.92 60.32 151.76 60.84 152.44 61.24C153.2 61.76 153.88 62.16 154.72 62.56C155.44 62.96 156.28 63.24 157.08 63.36ZM141.36 63.24C142.16 63.12 142.96 62.96 143.84 62.72C144.56 62.44 145.4 62.16 146.08 62.04C146.8 61.92 147.16 61.52 147.56 60.96L147.04 59.48C146.44 59.08 145.84 58.68 145.16 58.56C144.44 58.44 143.52 58.28 142.8 58.04C141.84 57.88 141.04 58.04 140.36 58.28L139.28 60.44L139.68 62.32L141.36 63.24ZM140.52 57.36C141.72 57.48 143 57.36 144.32 57.24C145.44 57.08 151.32 56.6 152.44 56.36L154.92 57.36L155.28 57.24C155.68 56.44 155.96 55.48 156.08 54.56C156.08 53.6 156.24 52.8 156.36 51.88L156.08 45.6C155.32 44.92 154.36 44.64 153.36 44.52C152.36 44.4 151.24 44.4 150.24 44.24C149.24 44.12 144 44.12 143.12 44.12C142.16 44.24 141.32 44.24 140.48 44.24C139.56 44.4 138.68 44.4 138 44.52C138.4 45.72 138.56 46.92 138.56 48.12C138.56 49.32 138.56 50.68 138.56 51.88C138.56 53.08 138.56 54.4 138.68 55.64C139.12 56.28 139.64 56.96 140.52 57.36ZM152.44 54C151.52 54.16 150.68 54.28 149.84 54.4C148.8 54.56 144 54.8 143.12 54.96L141.84 54.68L142.12 53.96C143.16 53.8 144 53.76 145 53.6C146 53.48 150.96 53.08 152 52.96L152.84 53.36L152.44 54ZM152.08 51.2L144.68 51.36C143.96 51.48 143.16 51.36 142.36 51.08L142.72 50.28L150.8 50L152.2 50.28L152.08 51.2ZM151.92 48.32C150.96 48.32 150.12 48.24 149.24 48.12C148.4 48.04 146.12 48.04 145.28 48.04C144.44 48.04 143.68 47.8 142.88 47.48L143 46.88L143.96 46.44C145 46.56 146.12 46.56 148.56 46.64C149.52 46.76 150.36 46.88 151.48 47.08L151.92 47.72V48.32ZM159 45.32C159.8 45.44 160.48 45.2 161.16 44.8C162.04 44.12 162.72 43.44 163.12 42.52C163.56 41.72 163.8 40.92 164.12 39.96L163.8 38.48C163.44 38.08 162.92 37.84 162.2 37.68C161.52 37.56 160.64 37.56 159.96 37.44C158.96 37.56 157.84 37.56 156.8 37.56C155.64 37.56 154.68 37.68 153.72 37.84C153.12 37.96 152.56 37.84 152.12 37.44L152.56 36.24C153.52 35.84 154.32 35.4 155.04 34.76C155.76 34.2 156.6 33.68 157.36 33.16C158.08 32.76 158.92 32.36 159.64 31.96L159.24 30.6C158.64 30.2 157.84 29.92 156.8 29.92C155.84 29.92 155.12 29.88 153.4 29.76C152.88 29.84 152.08 29.68 151.56 29.28L151.68 27.8L150.88 26.04L147.92 26.44L148.28 28.6L148.08 29.8L145.8 30.2L145.32 29.28C145.04 28.6 144.6 28 143.24 27.6L142.64 27.8L143 28.6C143.12 29.28 143 29.92 142.64 30.6C140.48 30.88 138.12 30.48 137.44 30.08L136.84 30.36L136.96 33.04C137.76 33.68 138.76 34.08 142.2 34.36L141.6 35L138.32 34.48H137.92L136.72 36.64C136.12 37.56 135.88 38.52 136 39.72L136.12 40.8L137.04 41.6L138.44 41.44L141.76 41.84L141 42.92L141.08 43.6L142.96 43.44C143.64 43.04 144.36 42.64 144.92 41.96C145.6 41.32 146.36 40.92 147.4 40.92L148.92 41.04C149.12 41.72 149.4 42.36 149.52 43.04C150.24 43.16 150.92 43.04 151.44 42.64C151.84 41.96 152.12 41.16 152.44 40.52L157.44 39.28L158.44 39.44L158.24 40.12C157.48 40.52 155.08 41.36 154.28 41.36C154.36 42 154.72 42.68 155.44 43.2C156.12 43.76 158.32 44.92 159 45.32ZM141.96 38.88L141.76 39.04L139.84 38.84L140.44 37.28L142.56 37.84L141.96 38.88ZM148.48 38.48L146.96 38.88L145.96 38.48L146.44 37.44L147.64 36.88H148.52L148.96 37.44C149.12 37.84 148.92 38.24 148.48 38.48ZM148.28 34.08L147.68 34.2L146.36 33.96L146.6 33.2L147.6 33.16L148.28 33.4V34.08ZM152.36 33.92L151.32 33.72L151.92 32.4L153.04 32.48L152.36 33.92ZM181.2 62.92C182.28 61.32 182.96 59.44 183.2 57.44C183.36 55.44 183.76 53.56 184.44 51.84L184.96 51.96L185.72 52.88C185.04 54.24 184.28 55.6 184.16 57.04C184.04 58 184.16 58.64 184.68 59.2L185.48 58.8C186.68 57.6 187.76 56.12 188.56 54.64L190.96 56.64C191.08 58.76 191.36 59.88 191.92 61.88C192.32 62.12 192.84 61.76 192.96 61.44C193.64 59.96 193.48 57.84 193.8 56C194.04 53.72 194.72 46.48 194.72 46.48L199.96 45.56L202.48 45.68C203 46.6 203.28 47.68 203.4 48.88L203.28 51.96L201.76 50.88L198.8 48.04C197.84 47.44 197.04 47.4 196.24 47.52L195.96 48.24C196.72 49.24 197.96 50.32 198.32 51.64C198.44 52.84 198.04 53.44 197.4 54.36C197 55.16 196.32 56.24 195.64 57.2L196.48 58.92L197.68 58.52L199.12 57.2L201.16 54.28L203.64 56.4L203.8 58.24C202.88 59.32 201.68 59.88 200.36 60V60.4C201.28 60.8 202.08 61.48 202.76 62.28L204.08 62.52L205.96 62.4C206.64 60.92 207.04 59.32 207.28 57.72C207.56 56.12 207.84 54.52 208.24 52.92C208.12 51.28 208.12 49.68 207.96 48.08C207.84 46.6 207.56 45.16 207.04 43.68C205.84 43 204.64 42.6 203.28 42.48L194.2 43.12L194.04 41C196.08 40.32 197.96 40.52 199.84 39.32L199.8 37.8L198.08 37.32L198.72 35.52C199.96 35.12 201.28 34.72 202.76 34.32C204.08 33.92 205.44 33.64 206.76 33.36L207.84 32.44L207.68 31.64L205.96 30.84L201.96 31.08L201.28 30.84L201.4 29.48L201 27.64C200.2 27.08 199.28 26.8 197.92 26.68C198.08 28.44 197.84 30.32 197.16 31.8L192.2 32.04L192.4 29.84L192 28.88C191.2 28.48 190.28 28.36 189.32 28.36L188.4 28.64L188.52 29.44C188.68 30.12 188.56 32.16 188.32 32.84L180.68 34.56V35.08C181.36 36.04 182.28 36.56 183.2 36.96C184.16 36.68 185.24 36.56 187.92 36.56L188.12 38.76C187.44 39.28 187.44 40.12 186.8 40.32L187.56 41.24C188.76 41.48 189.76 41.4 190.96 41.8L190.72 43.4L183.88 44.88L182.28 44.6C181.2 44.48 180.28 44.76 179.48 45.28L180 46.36L179.72 53.04L179.88 54.92L179.72 55.44C179.88 56.8 179.88 58.12 180 59.44C180 60.8 180.4 62 181.2 62.92ZM174.04 61.32H175.88L176.4 60.4L176.24 59.92C176.64 57.84 177.2 55.8 177.72 53.6C178.12 51.56 178.8 49.64 179.48 47.44L179.32 46H178.04L171.76 58.96L171.88 59.76L174.04 61.32ZM190.84 53.32C189.24 51.84 188 50.24 186.4 48.76L185.08 49.04L184.16 48.64L184.28 48.08L189.76 47L190.72 47.28L190.84 53.32ZM176.2 42.36C177.04 42.2 177.68 41.68 178.24 40.72L178.08 39.96L175.8 38.8C174.6 38.68 173.4 38.8 172.2 39.6L172.32 40.08C173.4 41.56 174.76 42.2 176.2 42.36ZM177.44 34.28C178.24 34.28 178.88 33.92 179.56 33.44L179.44 32.12C178.36 30.8 177.16 30.2 175.68 30.04C175 29.84 174.36 30.04 173.68 30.52V31C174.6 32.48 175.96 33.6 177.44 34.28ZM194.84 38.04L191.76 38.44L191.36 36.44L195.52 36.04C195.24 36.72 195 37.4 194.84 38.04ZM235.24 60.24L236.08 60C236.48 58.92 236.72 57.84 236.8 56.64C236.92 55.44 237.08 54.24 237.2 53.04C237.32 51.84 237.44 50.76 237.56 49.56L237.44 48.08V45.28C237.56 44.6 237.56 44.08 237.56 43.4C237.56 42.72 237.52 40.48 237.32 39.32C237.84 41.08 240 44.88 241.32 46.6C242.52 48.36 243.64 50.08 244.8 52C245.84 53.92 246.96 55.52 248.36 58.72C248.8 59.12 249.32 59.4 250 59.52L250.84 59.24C251.2 58.6 251.92 58.28 252.76 55.56C252.84 54.92 253.12 54.24 253.2 53.56L253.56 49.68L253.44 49L253.72 40.64L253.56 39.84C253.72 39.16 253.84 38.36 253.84 37.44C253.84 36.64 253.96 35.84 254.32 35.16C254.6 34.48 254.56 33.2 254.28 32.52L253.28 30.6L251.84 29.92C251.84 29.92 250.84 29.88 250 30.16C249.32 30.28 248.8 30.68 248.28 31.24L248.36 31.88L248.8 33.56L248.96 39.56L248.88 47.8L248.68 51.72C248.04 49.28 247.28 48.2 246.48 46.64C245.48 45.04 244.56 43.44 243.72 41.72C242.84 40.12 241.52 37.2 240.92 35.48C239.92 32.8 239.48 32.48 238.96 31.6C238.2 31 237.68 30.8 237.16 30.4L236.52 30.48C235.96 30.48 235.44 30.52 234.8 30.4C234.2 30.4 233.68 30.12 232.92 30C232.92 30 232.6 30.72 232.44 31.4L232.36 33.8L232.32 37.48V49.56C232.48 50.48 232.48 51.28 232.6 52.24C232.6 53.16 232.6 53.96 232.72 54.92C232.88 55.84 232.96 56.64 233.24 57.44C233.48 57.96 233.68 58.52 233.96 59.04C234.2 59.6 234.64 60 235.24 60.24ZM271.176 59.72H271.896C272.456 58.76 272.736 57.72 272.736 56.52C272.576 55.32 272.736 54.24 273.016 53.04C273.096 51.96 273.216 50.88 273.336 49.68L273.216 48.36L273.096 38.72C273.096 38.04 273.096 37.52 273.096 36.84C273.096 36.16 273.176 35.64 273.576 35.24C274.256 35 274.976 34.68 276.416 34.6C277.576 34.6 279.616 33.36 280.816 33.36L281.856 32.44L281.536 31.36C280.816 30.68 279.776 30.28 278.776 30.28H270.536C268.816 30.28 266.536 30.48 264.616 30.68C263.416 30.68 260.816 30.72 259.576 30.16L258.656 30.4L258.296 31.48C258.216 32.16 258.456 32.84 258.856 33.36C259.376 34.04 259.816 34.88 260.536 35.28C261.256 35.68 262.336 35.6 263.136 35.48C264.416 35.4 266.376 35.36 266.936 35.24L267.576 35.52C267.856 36.16 268.056 36.84 268.056 37.64C267.856 38.56 267.856 39.4 268.056 40.04L267.856 45.52C268.056 46.32 268.056 47.16 268.056 48.08C268.056 49 268.176 49.8 268.296 50.6L268.176 51.96C268.296 52.88 268.416 53.96 268.536 54.92C268.656 55.84 268.896 56.76 269.576 57.44C270.216 58.24 270.456 59.04 271.176 59.72ZM289.103 60.08C290.543 59.68 291.983 59.28 293.703 59.04C295.143 58.88 296.663 58.68 298.023 58.28C299.423 57.88 300.823 57.92 302.623 57.56C305.423 57 306.943 55.8 307.583 55.16C308.223 54.48 308.863 53.8 309.343 53C309.743 52.36 310.103 51.52 310.543 50.72C310.383 49.28 310.223 47.92 310.023 46.44C309.743 45.12 309.503 43.76 309.383 42.32C309.063 40.96 308.503 39.76 307.583 38.68C306.423 37.48 305.223 36.44 304.023 35.2C302.783 34.16 301.463 33.2 300.103 32.4C298.743 31.6 297.223 31.2 295.503 31.08L292.783 30.72C289.543 30.04 288.423 30.28 287.743 30.12C287.303 30 286.863 30.12 286.703 30.52L287.143 32.12L286.823 50.72L286.943 52.76L286.663 55.4C286.223 58.48 286.983 58.64 287.543 59.04C287.863 59.44 288.343 59.84 289.103 60.08ZM304.663 50.28C303.223 51 302.303 52.04 300.583 52.48C298.983 52.92 297.583 53.04 296.223 53.44C294.623 53.84 293.103 54.76 291.663 54.6L291.263 54.04L291.343 50.36L291.183 47.52L291.463 39.72L291.183 38.48L291.583 35.8C291.903 35.24 292.463 35 293.063 34.84C293.663 34.84 294.183 34.84 294.783 34.68C295.623 34.84 296.503 35 297.343 35.4C298.183 35.8 298.983 36.2 299.783 36.6C300.463 37.12 301.223 37.68 301.943 38.32C302.623 39 303.183 39.72 303.863 40.4C304.343 41.04 304.743 41.84 305.023 42.64C305.223 43.6 305.503 44.44 305.583 45.24L305.663 48.32L304.663 50.28ZM326.311 59.56C327.311 59.56 328.471 59.44 329.431 59.32C330.471 59.16 331.391 59.04 332.591 58.6L334.191 56.72L333.871 56.16L331.551 55.4L331.031 55.52C330.071 55.52 329.191 55.52 328.191 55.52C327.151 55.52 326.311 55.52 325.431 55.4C324.431 55.4 323.391 55.24 323.151 54.76C323.551 53.92 325.031 52.32 326.271 51.32C328.071 49.84 329.631 48.52 330.191 47.56C330.791 46.72 331.231 45.72 331.471 44.8C331.631 44.12 331.471 43.44 331.391 42.72C331.231 42.2 331.071 41.64 330.911 41.08C330.511 40.48 330.111 39.8 329.791 39.12C328.951 37.32 327.751 36.4 327.071 35.8C325.871 35.08 325.471 34.08 324.031 33.2C322.831 32.48 321.511 31.56 320.231 31.32C319.031 31 317.751 30.6 316.351 30.16L315.311 30.4L316.111 32.48C316.511 33.04 317.111 33.4 317.511 33.56C317.991 33.84 320.231 34.8 321.351 35.8C322.271 36.56 323.431 37.44 324.271 38.28C325.031 39.16 325.751 40 326.191 41.32C326.191 42.16 325.991 42.88 325.711 43.6C325.351 44.4 325.031 45.4 324.711 46.08C324.031 47.48 323.111 48.24 322.111 49.28C321.111 50.4 319.511 51.72 318.391 52.28C317.151 52.84 315.991 53.32 314.391 53.72L314.111 55.4C314.111 55.4 314.031 57.32 314.751 58.12C315.631 58.72 316.511 59.04 317.591 59.04C318.591 59.16 319.431 59.2 320.431 59.32C321.991 59.52 325.311 59.72 326.311 59.56ZM338.736 63.32C339.416 63.48 339.976 63.24 340.456 62.96C340.896 62.68 341.376 62.4 341.896 61.92C342.456 61.4 342.896 60.84 343.296 60.28C343.656 59.76 343.936 59.12 344.176 58.44C344.056 58 344.016 57.4 343.736 56.88C343.736 56.88 343.016 56.24 342.816 55.8L340.896 55.08C340.256 55.08 339.576 55.24 339.016 55.52L338.176 56.36C338.056 57 338.176 57.52 338.616 57.88C339.016 58.36 339.296 58.88 339.576 59.28C339.456 59.92 339.296 60.4 338.896 60.84C338.536 61.36 338.256 61.92 338.016 62.48V62.88L338.736 63.32ZM355.776 60.12C356.896 60.12 357.856 59.72 358.816 59.04C359.656 58.36 360.456 57.72 361.296 57.04C362.416 55.56 363.536 54.08 364.456 52.64C365.456 51.16 366.016 49.56 366.136 47.68C366.176 46.12 366.616 44.68 366.816 42.44C367.056 40.2 366.776 38.2 366.816 37.36L366.536 35.36C366.016 34.68 365.576 34.04 365.176 33.24C364.776 32.56 364.176 31.88 363.536 31.48C362.496 30.92 359.536 30.28 358.816 30.4C357.976 30.32 357.296 30.68 356.456 30.68C355.776 31.08 354.936 31.64 354.296 32.04C353.456 32.56 352.736 33.08 352.176 33.76C351.496 34.44 350.936 35.12 350.536 35.92L351.376 37C351.216 37.92 350.136 40.8 349.896 42.52C349.776 43.44 349.576 44.6 349.296 45.52C349.176 47.16 349.296 48.6 349.696 50.08C349.976 51.56 350.376 52.88 350.936 54.24C351.496 55.72 352.176 57.04 353.056 58.24C353.856 59.2 354.816 59.72 355.776 60.12ZM356.976 56.36C355.856 56.4 355.456 55.96 355.456 55.96C355.056 55.32 354.616 54.52 354.376 53.68C354.056 53.04 353.776 52.24 353.376 51.44C352.936 50.72 352.816 49.96 352.656 49.12C352.536 47.44 352.656 45.76 352.936 44.16C353.096 42.6 353.536 41 354.056 39.52C354.496 38.12 355.176 37.12 356.016 35.76C356.856 35.92 357.736 35.6 358.576 35.8C359.296 36.04 359.976 36.44 360.696 36.84C361.256 37.48 361.656 38.08 361.976 38.88C362.496 40.2 362.696 43 362.696 43.8C362.536 45.28 362.376 46.72 361.976 48.08C361.536 49.56 361.136 50.88 360.696 52.24C360.256 53.52 359.696 54.8 356.976 56.36ZM379.76 60.12C380.88 60.12 381.84 59.72 382.8 59.04C383.64 58.36 384.44 57.72 385.28 57.04C386.4 55.56 387.52 54.08 388.44 52.64C389.44 51.16 390 49.56 390.12 47.68C390.16 46.12 390.6 44.68 390.8 42.44C391.04 40.2 390.76 38.2 390.8 37.36L390.52 35.36C390 34.68 389.56 34.04 389.16 33.24C388.76 32.56 388.16 31.88 387.52 31.48C386.48 30.92 383.52 30.28 382.8 30.4C381.96 30.32 381.28 30.68 380.44 30.68C379.76 31.08 378.92 31.64 378.28 32.04C377.44 32.56 376.72 33.08 376.16 33.76C375.48 34.44 374.92 35.12 374.52 35.92L375.36 37C375.2 37.92 374.12 40.8 373.88 42.52C373.76 43.44 373.56 44.6 373.28 45.52C373.16 47.16 373.28 48.6 373.68 50.08C373.96 51.56 374.36 52.88 374.92 54.24C375.48 55.72 376.16 57.04 377.04 58.24C377.84 59.2 378.8 59.72 379.76 60.12ZM380.96 56.36C379.84 56.4 379.44 55.96 379.44 55.96C379.04 55.32 378.6 54.52 378.36 53.68C378.04 53.04 377.76 52.24 377.36 51.44C376.92 50.72 376.8 49.96 376.64 49.12C376.52 47.44 376.64 45.76 376.92 44.16C377.08 42.6 377.52 41 378.04 39.52C378.48 38.12 379.16 37.12 380 35.76C380.84 35.92 381.72 35.6 382.56 35.8C383.28 36.04 383.96 36.44 384.68 36.84C385.24 37.48 385.64 38.08 385.96 38.88C386.48 40.2 386.68 43 386.68 43.8C386.52 45.28 386.36 46.72 385.96 48.08C385.52 49.56 385.12 50.88 384.68 52.24C384.24 53.52 383.68 54.8 380.96 56.36ZM403.744 60.12C404.864 60.12 405.824 59.72 406.784 59.04C407.624 58.36 408.424 57.72 409.264 57.04C410.384 55.56 411.504 54.08 412.424 52.64C413.424 51.16 413.984 49.56 414.104 47.68C414.144 46.12 414.584 44.68 414.784 42.44C415.024 40.2 414.744 38.2 414.784 37.36L414.504 35.36C413.984 34.68 413.544 34.04 413.144 33.24C412.744 32.56 412.144 31.88 411.504 31.48C410.464 30.92 407.504 30.28 406.784 30.4C405.944 30.32 405.264 30.68 404.424 30.68C403.744 31.08 402.904 31.64 402.264 32.04C401.424 32.56 400.704 33.08 400.144 33.76C399.464 34.44 398.904 35.12 398.504 35.92L399.344 37C399.184 37.92 398.104 40.8 397.864 42.52C397.744 43.44 397.544 44.6 397.264 45.52C397.144 47.16 397.264 48.6 397.664 50.08C397.944 51.56 398.344 52.88 398.904 54.24C399.464 55.72 400.144 57.04 401.024 58.24C401.824 59.2 402.784 59.72 403.744 60.12ZM404.944 56.36C403.824 56.4 403.424 55.96 403.424 55.96C403.024 55.32 402.584 54.52 402.344 53.68C402.024 53.04 401.744 52.24 401.344 51.44C400.904 50.72 400.784 49.96 400.624 49.12C400.504 47.44 400.624 45.76 400.904 44.16C401.064 42.6 401.504 41 402.024 39.52C402.464 38.12 403.144 37.12 403.984 35.76C404.824 35.92 405.704 35.6 406.544 35.8C407.264 36.04 407.944 36.44 408.664 36.84C409.224 37.48 409.624 38.08 409.944 38.88C410.464 40.2 410.664 43 410.664 43.8C410.504 45.28 410.344 46.72 409.944 48.08C409.504 49.56 409.104 50.88 408.664 52.24C408.224 53.52 407.664 54.8 404.944 56.36ZM468.729 61.4C469.649 61.52 470.609 61.52 471.529 61.4C472.489 61.28 473.289 61 473.929 60.6L474.489 59.24C473.929 56.84 473.809 55.76 473.809 54.72C473.689 53.76 472.649 51.84 472.529 50.88L471.569 49.96C471.169 50.88 469.809 53.36 469.409 54.44C469.009 55.52 468.609 56.6 468.329 57.16L467.409 57.56L461.769 57.04L460.849 56.44C460.969 55.52 461.089 54.72 461.249 53.76C461.369 52.96 461.489 52.16 461.649 51.24C461.769 50.28 461.889 49.48 462.169 48.68C462.849 48.28 463.529 48.16 464.169 48C464.849 48 465.369 47.76 465.929 47.2C466.329 46.56 466.729 45.88 467.129 45.2C467.529 44.56 467.809 43.88 467.929 43.08C468.049 42.28 468.329 41.6 469.009 41.08L468.729 40.12C467.929 39.6 467.129 39.2 466.169 38.92C465.249 38.64 464.169 38.4 462.049 38.24C462.569 37.6 463.089 36.8 463.649 36.12C464.049 35.44 464.449 34.64 464.729 33.84L464.449 33.16C463.249 32.24 461.889 31.68 460.449 31.56C458.969 31.56 457.489 31.16 456.289 30.48C455.089 29.84 453.889 29.04 452.689 28.08L450.809 28.64C450.649 29.56 450.249 30.48 449.729 31.28C449.209 32.12 448.809 32.92 448.529 33.84C448.649 34.52 448.649 35.04 448.649 35.72C448.529 36.4 448.809 36.92 449.209 37.32L451.889 36.64L452.929 35.56C453.609 34.92 454.289 34.36 455.089 34.24L458.809 33.84L458.969 34.24L456.969 37.72C456.289 38.8 455.369 39.32 454.289 39.44C453.209 39.6 446.089 39.12 445.289 39.12H444.209C444.889 40.36 445.409 41.56 445.689 42.88C445.929 44.24 446.209 45.56 446.489 46.88C446.609 48.24 447.409 49.16 449.489 49.8C448.969 51 448.009 52.84 447.329 54.04C446.649 55.24 445.969 56.32 445.169 57.4C444.249 58.44 443.329 59.52 442.369 60.48V60.88L442.889 61.28C443.849 61.12 444.929 60.88 445.849 60.6C446.769 60.32 447.609 60.04 448.529 59.64C449.449 59.24 450.409 58.6 451.209 57.8C452.009 57 452.729 55.84 453.569 54.88C454.409 53.92 454.809 52.44 455.569 50.04L456.809 50.44L456.409 53.24C456.569 54.32 456.969 55.24 457.369 56.2C457.769 57.12 458.289 58.04 458.809 59C459.769 59.8 460.689 60.2 461.889 60.32C463.089 60.48 464.169 60.72 465.369 60.88C466.449 61 467.529 61.28 468.729 61.4ZM454.369 46.16C453.689 46.44 452.889 46.56 452.089 46.56L450.809 46.44C450.689 45.88 450.089 42.12 450.089 42.12L450.729 41.48L452.129 41.6L453.089 41.48C453.889 41.32 454.529 41.6 455.089 42.28C455.089 43.08 455.089 43.88 455.089 44.56C454.929 45.36 454.369 46.16 454.369 46.16ZM462.289 45.76L461.089 46C460.169 46.16 459.209 46 458.569 45.6L459.089 43.6C459.209 42.92 459.089 42.4 458.809 42V41.32L459.649 41.08L462.849 41.2L462.969 41.6C462.969 44.56 462.689 45.2 462.289 45.76ZM500.569 61.68C502.169 61.8 503.649 61.8 505.169 61.4C506.649 61 507.969 60.6 509.329 60.2C510.649 59.8 511.969 59.28 513.329 58.72C514.009 58.44 514.529 58.04 515.209 57.52C515.849 56.96 516.449 56.4 516.849 55.88L516.729 55.12L516.369 54.96C514.969 55.64 513.569 56.04 512.089 56.16C510.609 56.44 509.129 56.68 507.649 56.96C506.209 57.24 504.569 57.48 503.729 57.96C503.089 58.08 502.449 57.96 501.969 57.6L502.409 53.32C503.009 52.96 506.049 52.56 506.849 52.44C507.649 52.44 508.489 52.32 509.169 52.16L510.289 51.2V50.56C509.569 49.88 508.609 49.6 507.409 49.72L504.329 49.88C503.649 50 503.009 49.88 502.529 49.52L502.809 48.44L507.729 47.68C508.449 46.88 508.649 45.28 508.809 44.48C508.929 43.68 509.049 42.88 509.209 41.92L508.809 39.76C508.089 39.2 507.369 38.92 506.449 38.92C505.529 38.92 503.369 38.64 502.649 38.48L502.889 36.76C504.369 36.56 505.569 35.84 506.289 35.16C506.129 34.52 505.849 34.08 505.249 33.96L502.169 33.64L501.929 31.6L507.049 31.12C507.729 30.96 508.089 31.12 508.449 31.6C508.329 32.52 508.049 33.32 507.929 34.12C507.649 34.88 507.369 35.68 506.969 36.52L507.409 37.52L508.329 37.4C509.249 36.88 509.969 36.16 510.489 35.2C510.889 34.28 511.569 33.48 512.169 32.68C512.889 32 513.449 31.2 513.849 30.28C513.969 29.56 513.689 28.84 513.249 28.4C512.329 27.76 511.329 27.48 510.129 27.6C508.689 27.48 502.569 27.68 501.129 27.8C499.649 28.08 498.169 28.2 496.689 28.32C496.049 28.32 493.689 28.2 492.569 28.08L490.649 28.36L489.969 30.44C490.369 31.28 490.489 32.04 490.489 33C490.369 33.92 490.369 34.84 490.489 35.8C490.489 36.44 490.769 37.28 492.009 37.84L492.729 37.56C493.289 36.88 493.569 36.32 493.689 35.36C493.689 34.56 493.729 33.24 493.969 32.48C494.329 32.12 496.689 31.96 497.369 31.84L498.769 31.96L499.009 33.16L496.129 33.32L495.129 33.48V34.88C495.249 35.6 495.689 36.04 496.409 36.44C496.409 36.44 498.569 36.28 499.209 36.68C499.329 37.44 499.169 38.4 498.809 38.92L494.009 38.64L492.969 38.76L492.729 40.84C493.129 41.84 493.969 45.84 494.209 46.76C494.649 47.6 495.209 48.16 495.889 48.56H498.249L498.769 49.28L498.609 50.16C498.009 50.52 497.249 50.68 496.449 50.68C495.489 50.8 492.409 50.92 491.489 51.04L491.409 51.88C492.209 53.04 495.169 53.24 495.969 53.24C496.769 53.24 497.769 53.12 498.529 53.36C498.889 53.72 499.289 56.12 499.409 56.64L499.169 57.64C497.769 57.76 496.449 57.64 495.209 57.36C493.889 57.24 492.609 56.96 491.369 56.56C490.169 56.16 488.969 55.64 487.969 55L488.329 54.12C488.329 52.84 486.689 51.2 486.489 49.8C486.929 48.92 488.049 48.12 488.049 48.12L488.889 46.72L488.729 45.36L481.289 44.8C481.289 44.8 480.529 45.12 480.569 45.8C480.449 46.4 481.529 47.08 481.529 47.08L483.889 48.12C483.889 48.12 483.609 49.76 483.209 50.88L483.529 52.24C482.889 52.88 482.489 53.36 481.809 53.76C481.129 54.28 480.489 54.68 479.769 55V55.48C481.929 56.44 484.209 57.4 486.489 58.32C488.769 59.28 491.049 59.92 493.329 60.6C495.609 61.28 498.049 61.52 500.569 61.68ZM498.489 45.84L497.889 46L497.009 45.92C496.889 45.6 497.089 44.68 497.089 44.68L498.809 44.84L498.489 45.84ZM505.569 45.76C503.369 45.76 503.009 45.6 502.649 45.4V44.92C503.649 44.44 505.329 44.84 505.569 45.2V45.76ZM498.729 43.2L496.769 43.16L496.809 41.88L498.929 41.84L498.729 43.2ZM505.609 43.16C503.529 43.16 503.169 43.04 502.809 42.52L502.889 41.64L505.369 41.84L505.849 42.72L505.609 43.16ZM486.849 43L487.849 42.44C488.529 42 488.809 41.48 488.929 40.56L489.729 39.56L489.489 38.6C488.889 38.16 488.329 38 487.649 38C486.569 38.16 485.529 38.28 484.449 38.28C483.369 38.28 482.249 38.56 481.289 39L481.569 40C482.249 41 483.209 41.52 484.129 41.8C485.089 42.2 485.889 42.6 486.849 43ZM545.049 63.36C546.089 63.52 547.049 63.36 547.609 62.72L547.209 61.76C546.689 61.12 546.009 60.72 545.329 60.32C544.609 59.92 543.769 59.64 543.049 59.36H539.049L538.209 59.48V59.92C538.889 60.32 539.729 60.84 540.409 61.24C541.169 61.76 541.849 62.16 542.689 62.56C543.409 62.96 544.249 63.24 545.049 63.36ZM529.329 63.24C530.129 63.12 530.929 62.96 531.809 62.72C532.529 62.44 533.369 62.16 534.049 62.04C534.769 61.92 535.129 61.52 535.529 60.96L535.009 59.48C534.409 59.08 533.809 58.68 533.129 58.56C532.409 58.44 531.489 58.28 530.769 58.04C529.809 57.88 529.009 58.04 528.329 58.28L527.249 60.44L527.649 62.32L529.329 63.24ZM528.489 57.36C529.689 57.48 530.969 57.36 532.289 57.24C533.409 57.08 539.289 56.6 540.409 56.36L542.889 57.36L543.249 57.24C543.649 56.44 543.929 55.48 544.049 54.56C544.049 53.6 544.209 52.8 544.329 51.88L544.049 45.6C543.289 44.92 542.329 44.64 541.329 44.52C540.329 44.4 539.209 44.4 538.209 44.24C537.209 44.12 531.969 44.12 531.089 44.12C530.129 44.24 529.289 44.24 528.449 44.24C527.529 44.4 526.649 44.4 525.969 44.52C526.369 45.72 526.529 46.92 526.529 48.12C526.529 49.32 526.529 50.68 526.529 51.88C526.529 53.08 526.529 54.4 526.649 55.64C527.089 56.28 527.609 56.96 528.489 57.36ZM540.409 54C539.489 54.16 538.649 54.28 537.809 54.4C536.769 54.56 531.969 54.8 531.089 54.96L529.809 54.68L530.089 53.96C531.129 53.8 531.969 53.76 532.969 53.6C533.969 53.48 538.929 53.08 539.969 52.96L540.809 53.36L540.409 54ZM540.049 51.2L532.649 51.36C531.929 51.48 531.129 51.36 530.329 51.08L530.689 50.28L538.769 50L540.169 50.28L540.049 51.2ZM539.889 48.32C538.929 48.32 538.089 48.24 537.209 48.12C536.369 48.04 534.089 48.04 533.249 48.04C532.409 48.04 531.649 47.8 530.849 47.48L530.969 46.88L531.929 46.44C532.969 46.56 534.089 46.56 536.529 46.64C537.489 46.76 538.329 46.88 539.449 47.08L539.889 47.72V48.32ZM546.969 45.32C547.769 45.44 548.449 45.2 549.129 44.8C550.009 44.12 550.689 43.44 551.089 42.52C551.529 41.72 551.769 40.92 552.089 39.96L551.769 38.48C551.409 38.08 550.889 37.84 550.169 37.68C549.489 37.56 548.609 37.56 547.929 37.44C546.929 37.56 545.809 37.56 544.769 37.56C543.609 37.56 542.649 37.68 541.689 37.84C541.089 37.96 540.529 37.84 540.089 37.44L540.529 36.24C541.489 35.84 542.289 35.4 543.009 34.76C543.729 34.2 544.569 33.68 545.329 33.16C546.049 32.76 546.889 32.36 547.609 31.96L547.209 30.6C546.609 30.2 545.809 29.92 544.769 29.92C543.809 29.92 543.089 29.88 541.369 29.76C540.849 29.84 540.049 29.68 539.529 29.28L539.649 27.8L538.849 26.04L535.889 26.44L536.249 28.6L536.049 29.8L533.769 30.2L533.289 29.28C533.009 28.6 532.569 28 531.209 27.6L530.609 27.8L530.969 28.6C531.089 29.28 530.969 29.92 530.609 30.6C528.449 30.88 526.089 30.48 525.409 30.08L524.809 30.36L524.929 33.04C525.729 33.68 526.729 34.08 530.169 34.36L529.569 35L526.289 34.48H525.889L524.689 36.64C524.089 37.56 523.849 38.52 523.969 39.72L524.089 40.8L525.009 41.6L526.409 41.44L529.729 41.84L528.969 42.92L529.049 43.6L530.929 43.44C531.609 43.04 532.329 42.64 532.889 41.96C533.569 41.32 534.329 40.92 535.369 40.92L536.889 41.04C537.089 41.72 537.369 42.36 537.489 43.04C538.209 43.16 538.889 43.04 539.409 42.64C539.809 41.96 540.089 41.16 540.409 40.52L545.409 39.28L546.409 39.44L546.209 40.12C545.449 40.52 543.049 41.36 542.249 41.36C542.329 42 542.689 42.68 543.409 43.2C544.089 43.76 546.289 44.92 546.969 45.32ZM529.929 38.88L529.729 39.04L527.809 38.84L528.409 37.28L530.529 37.84L529.929 38.88ZM536.449 38.48L534.929 38.88L533.929 38.48L534.409 37.44L535.609 36.88H536.489L536.929 37.44C537.089 37.84 536.889 38.24 536.449 38.48ZM536.249 34.08L535.649 34.2L534.329 33.96L534.569 33.2L535.569 33.16L536.249 33.4V34.08ZM540.329 33.92L539.289 33.72L539.889 32.4L541.009 32.48L540.329 33.92Z" fill="#757575"/>
</svg>
