<svg width="304" height="98" viewBox="0 0 304 98" fill="none" xmlns="http://www.w3.org/2000/svg">
<rect x="3" y="9" width="47" height="47" stroke="#FFA300" stroke-width="6"/>
<path d="M25.3562 46.9964C25.4862 46.847 25.7582 46.4799 25.6822 46.5219L25.1982 47.1144L25.3562 46.9938V46.9964Z" fill="#F83434"/>
<path d="M26.0803 45.6724C25.8283 45.9372 25.4003 46.4222 24.9863 47.0068C25.4603 46.4484 25.2783 46.7027 25.8423 46.0368C25.9183 45.9922 25.7303 46.2832 25.5543 46.5035C25.6823 46.3566 25.4843 46.6817 25.7903 46.3121C26.1243 45.8008 26.1043 45.7353 25.7683 46.0787C25.8623 45.9345 25.9923 45.7825 26.0803 45.6724V45.6724Z" fill="#F83434"/>
<path d="M24.7272 41.9863L24.6846 42.0755C24.713 42.0309 24.7252 42.0021 24.7272 41.9863Z" fill="#F83434"/>
<path d="M23.6934 39.9599C23.7154 39.9599 23.7654 39.9022 23.8074 39.8472C23.7674 39.876 23.7314 39.9022 23.6934 39.9599Z" fill="#F83434"/>
<path d="M23.9899 38.9925C23.9798 39.0188 23.9778 39.0319 23.9717 39.0502C24.0102 38.9873 24.0305 38.9506 23.9899 38.9925Z" fill="#F83434"/>
<path d="M24.7256 41.9866L24.8376 41.748C24.6816 41.9447 24.7416 41.9185 24.7256 41.9866Z" fill="#F83434"/>
<path d="M24.6621 46.7765C24.6921 46.7555 24.7421 46.7057 24.8041 46.6401C24.7781 46.6585 24.7561 46.6742 24.7361 46.6821C24.7101 46.7162 24.6881 46.7424 24.6621 46.7765V46.7765Z" fill="#F83434"/>
<path d="M25.6758 42.2352L25.6878 42.2483C25.7438 42.1828 25.8118 42.1015 25.8858 42.0098L25.6758 42.2352V42.2352Z" fill="#F83434"/>
<path d="M26.1833 42.7123C26.1913 42.6756 25.7893 43.1921 25.6133 43.4149C25.7833 43.2078 25.8673 43.1161 25.9073 43.0872C25.9833 42.9876 26.0713 42.867 26.1833 42.7123Z" fill="#F83434"/>
<path d="M26.1768 44.5375L26.2448 44.4824C26.2248 44.5008 26.2028 44.5139 26.1768 44.5375Z" fill="#F83434"/>
<path d="M25.4473 41.7109C25.5053 41.6323 25.5553 41.5615 25.5853 41.5195C25.5353 41.5851 25.4893 41.6506 25.4473 41.7109Z" fill="#F83434"/>
<path d="M10.254 29.6245C10.282 29.5878 10.3 29.5642 10.324 29.5327C10.282 29.5825 10.252 29.6166 10.254 29.6245V29.6245Z" fill="#F83434"/>
<path d="M11.7158 26.3816L11.7438 26.3633C11.8198 26.2663 11.8938 26.1693 11.9678 26.0723L11.7158 26.3816V26.3816Z" fill="#F83434"/>
<path d="M24.0959 37.797C24.0959 37.797 24.0919 37.8049 24.0898 37.8101C24.1467 37.7655 24.1325 37.7682 24.0959 37.797Z" fill="#F83434"/>
<path d="M20.1011 33.3315C19.7871 33.8533 19.5771 33.8402 19.2451 34.4405C19.3951 34.2282 19.9231 33.7038 20.1011 33.3315Z" fill="#F83434"/>
<path d="M24.7042 46.6922C24.694 46.6922 24.6839 46.6869 24.6819 46.6738C24.6778 46.7027 24.6839 46.7053 24.7042 46.6922Z" fill="#F83434"/>
<path d="M19.2464 34.4385L19.2423 34.4437L19.2119 34.5014C19.2261 34.4778 19.2342 34.4595 19.2464 34.4385Z" fill="#F83434"/>
<path d="M22.9277 36.8921C22.8597 36.9865 22.8097 37.0599 22.7637 37.1333C22.8037 37.0782 22.8517 37.0127 22.9277 36.8921Z" fill="#F83434"/>
<path d="M23.0547 38.5415L23.0912 38.4497C23.0608 38.5048 23.0547 38.5284 23.0547 38.5415Z" fill="#F83434"/>
<path d="M22.0077 37.1572C22.0297 37.1047 22.0797 37.0287 22.0137 37.0811C21.9937 37.11 21.9817 37.1283 21.9697 37.1493C22.0297 37.0838 22.0597 37.0575 22.0077 37.1545V37.1572Z" fill="#F83434"/>
<path d="M21.6326 36.6696C21.6046 36.7116 21.5846 36.7456 21.5586 36.7823C21.5706 36.7771 21.5806 36.7745 21.5926 36.7692L21.6326 36.667V36.6696Z" fill="#F83434"/>
<path d="M11.5812 30.8648C11.6852 30.7075 11.8032 30.5397 11.9212 30.3745C11.6452 30.752 11.4892 30.8123 11.5812 30.8648V30.8648Z" fill="#F83434"/>
<path d="M24.8861 46.4824C24.7841 46.6109 24.7301 46.6712 24.7041 46.6922C24.7121 46.6922 24.7241 46.6869 24.7381 46.6817C24.7981 46.6056 24.8541 46.5322 24.8861 46.4824V46.4824Z" fill="#F83434"/>
<path d="M18.8566 41.2499V41.0952C18.8343 41.166 18.8343 41.2211 18.8566 41.2499Z" fill="#F83434"/>
<path d="M14.3214 34.3076L14.2594 34.3522C14.2554 34.3705 14.2714 34.3627 14.3214 34.3076Z" fill="#F83434"/>
<path d="M18.6201 40.9404C18.7501 40.7437 18.8201 40.6205 18.8621 40.5366C18.8281 40.5733 18.8001 40.6048 18.7521 40.6625L18.6201 40.9404V40.9404Z" fill="#F83434"/>
<path d="M11.9262 30.3667L11.9219 30.3717L11.9262 30.3667Z" fill="#F83434"/>
<path d="M10.5899 31.093C10.6359 31.1822 11.1279 30.4586 11.4399 30.081C11.6559 29.9762 11.0859 30.6263 10.8419 31.0065C11.0219 30.8807 11.5339 30.2934 11.5459 30.3616C11.4619 30.4769 11.4379 30.5267 11.3219 30.6578C11.7819 30.1728 11.4739 30.8046 12.0479 30.1885C12.0059 30.2541 11.9639 30.3144 11.9259 30.3668C12.1799 30.0129 12.4439 29.6615 12.6339 29.4177C12.6679 29.4387 13.0119 29.0481 12.6799 29.5069C12.6739 29.4728 12.5359 29.6511 12.4219 29.7821L12.5979 29.6222C12.1299 30.296 12.3919 29.7979 12.0279 30.275C12.2399 30.1335 12.7059 29.6799 12.6079 29.9132C12.1359 30.5529 12.3539 30.0024 11.9799 30.6316L12.1019 30.3091C11.3919 31.3631 12.1179 30.1911 11.3499 31.3106C11.2919 31.599 11.6859 31.1087 11.6259 31.3971C11.9119 31.072 12.0139 30.8728 12.2999 30.5451C12.8939 30.0679 11.1819 32.2466 11.9059 31.5177C12.2479 31.1271 12.8639 30.3406 12.6019 30.8413L12.0379 31.5256C12.0619 31.6986 12.8639 30.5608 12.5799 31.1481C12.3519 31.4076 12.3379 31.3028 12.2859 31.4024C11.9099 32.0342 12.6319 31.0484 12.6719 31.1009L12.1999 31.7432C12.3599 31.7537 12.7979 31.4181 12.9779 31.4234C12.8299 31.6043 12.6639 31.7799 12.5379 32.0028C12.8939 31.8402 12.7279 32.4065 12.5559 32.9256L13.0139 32.438C13.0199 32.4563 12.8439 32.708 12.7539 32.7998C12.6399 33.0646 13.0199 32.4589 13.2039 32.2702C13.2579 32.2649 12.9979 32.6267 12.8579 32.7683C13.2879 32.4091 13.8359 32.0631 13.4739 32.7526L13.3339 32.8942C13.2279 33.1983 14.2559 31.8717 13.9279 32.4563L13.8439 32.5376C13.8019 32.9545 14.3339 32.6556 13.8119 33.6151C14.4299 32.8574 13.6819 34.1421 14.5239 33.0619C14.1899 33.7069 14.0179 33.8721 13.8499 34.3807C13.8419 34.4698 14.4139 33.7567 14.5379 33.6885L14.1019 34.2601L14.6079 33.7252L14.1139 34.4436L14.2599 34.3414C14.2719 34.2889 14.4259 34.0477 14.5539 33.8852C14.8039 33.6964 14.3799 34.4541 14.1579 34.7503L14.6539 34.4331C14.4759 34.6586 14.3939 34.711 14.2659 34.8342C14.7779 34.3387 13.8199 35.453 14.2879 34.9994C14.3779 34.8578 14.5519 34.6638 14.6419 34.5511C14.4099 34.9365 14.4779 35.0335 14.6419 34.9548L14.3319 35.335C14.3499 35.5578 14.6739 35.4058 14.7739 35.55C14.8759 35.3166 15.4059 34.6455 15.4859 34.6193L15.0379 35.238C15.3419 34.8919 15.1799 34.968 15.5679 34.5642C15.5539 34.6848 15.0699 35.2852 14.8979 35.453L15.1059 35.3062C14.9719 35.4897 14.8879 35.571 14.7099 35.7964C15.0159 35.4477 14.3299 36.5095 14.8559 35.896L14.7219 36.0796C14.8239 36.2238 15.0299 36.0796 15.1379 36.1608C15.5379 35.6417 15.4819 35.8017 15.8299 35.4136C15.7659 35.6627 15.5239 36.1635 15.6339 36.2185C15.8859 36.0298 15.9859 35.7964 16.2459 35.5185C15.8879 35.9983 15.9979 36.0534 15.6979 36.3417C15.8479 36.3837 15.8859 36.3994 16.2959 36.1661C16.4319 35.9537 16.4819 35.8515 16.6139 35.6994C16.6939 35.6496 16.5099 35.9616 16.3319 36.1844L16.2899 36.2264C16.9619 35.6837 15.5319 38.0039 16.3899 37.1492L16.3459 37.1912L16.8459 36.8163C16.8319 36.9631 16.5439 37.1335 16.3559 37.477C17.0759 36.8373 16.4499 37.8309 16.9479 37.4271C15.9519 38.9242 17.2839 37.671 16.7019 38.6961L16.9479 38.3579C17.2199 38.0669 16.8359 38.5886 16.7959 38.6882C16.9879 38.4287 16.9939 38.3552 17.1459 38.1979C17.6659 38.0852 17.2259 39.2676 17.2219 39.8575C17.2359 40.0515 18.5699 38.211 18.0719 39.1339L17.5759 39.7081C18.3019 39.189 17.8919 40.1747 18.5299 39.7631C18.4119 39.8916 18.2719 40.0751 18.2579 40.0515C17.9519 40.5418 18.3679 40.2377 18.6439 39.8759C18.6379 39.9493 18.3999 40.2114 18.2739 40.4159C18.1079 40.7227 18.7919 39.9598 18.4739 40.4264C18.4219 40.5025 18.3539 40.5575 18.3219 40.5837C18.5079 40.3976 18.3839 40.7751 18.7539 40.2324C18.6279 40.5575 19.0439 40.1564 18.8599 40.5234C19.3299 39.9912 18.7519 40.935 19.3819 40.1354C18.7379 40.9691 18.9719 40.9508 19.3119 40.6073C19.1059 40.8433 19.1439 40.9141 18.8619 41.2444C18.9139 41.289 19.0739 41.1867 19.3939 40.7463C18.7079 41.8553 20.1719 40.1511 19.2359 41.4961C19.7099 41.2156 20.0619 41.0687 20.3279 41.0242C19.6859 41.8553 20.1359 40.9377 19.4699 41.8238C19.8439 41.6246 20.4539 40.9901 20.4099 41.3362C20.3519 41.4882 20.1179 41.677 19.9979 41.8081C20.3719 41.6088 20.1539 42.1646 20.5999 41.8369C20.5399 41.9156 20.4639 41.9864 20.4059 42.0362C20.4459 42.0362 20.3579 42.2171 20.6459 41.8343L20.5479 41.913C20.938 41.3204 21.504 40.8616 21.73 40.5732C20.866 41.6193 21.618 40.9744 20.5159 42.2826C20.5839 42.2276 20.7359 42.0676 20.928 41.8107C20.89 41.9103 20.7819 42.065 20.5439 42.3298C20.7719 42.2145 21.054 41.7766 21.112 41.8684C20.972 42.0519 20.904 42.107 20.7319 42.3141C21.038 41.9968 21.344 41.6796 21.278 41.9051C21.19 42.0126 21.086 42.1646 21.072 42.141C21.206 42.204 21.956 41.3886 21.792 41.8684C21.152 42.6287 21.626 42.1751 21.102 42.8751L21.314 42.7388L21.548 42.3744C21.586 42.4478 22.012 41.9995 21.88 42.2774L21.628 42.5159L21.816 42.5002L21.966 42.1725C22.286 41.8789 22.628 41.289 22.544 41.5643C22.478 41.6167 22.584 41.635 22.298 42.0755C22.49 41.8867 22.69 41.6849 22.594 41.9025C22.434 42.1358 22.002 42.6575 21.896 42.8122C22.36 42.2643 22.128 42.7965 22.628 42.2171C22.508 42.3482 22.23 42.7126 22.178 42.7886L22.556 42.3429C22.464 42.5212 22.41 42.5998 22.186 42.883C22.186 43.056 22.834 41.9785 22.624 42.4583C22.588 42.4871 22.538 42.5631 22.472 42.6182C22.4 42.9171 22.85 42.5186 22.746 42.8437C22.236 43.5673 22.554 42.9328 22.13 43.5515C22.33 43.562 22.982 42.9984 22.956 43.2946L22.996 43.1924C23.76 42.2276 22.7 43.777 23.104 43.3785C23.036 43.4362 22.672 43.9029 22.758 43.798C22.706 44.047 23.082 43.7403 23.424 43.5673L23.218 43.8032C23.086 44.0811 23.226 44.0733 23.182 44.2463C23.388 44.0103 23.382 44.0838 23.646 43.6984C22.684 45.3134 24.492 43.2658 23.698 44.6186C23.682 44.6029 23.496 44.7942 23.506 44.81L23.784 44.713C24.102 44.2751 23.968 44.4351 24.202 44.0733C24.408 43.8373 24.588 43.6774 24.612 43.7115C24.35 43.9343 24.088 44.401 23.926 44.6658C24.022 44.5295 24.14 44.3931 24.24 44.2594C23.712 45.0905 24.906 43.41 24.588 44.0182L24.412 44.2384C24.526 44.1598 24.778 43.895 24.76 43.9972C24.394 44.5085 24.554 44.1912 24.242 44.595C24.306 44.6212 25.04 43.7639 24.7 44.3066C24.578 44.422 24.55 44.3905 24.428 44.5059C24.024 45.1403 24.142 44.9987 24.102 45.1325L24.11 45.1141L23.978 45.468L24.08 45.2871C25.118 44.0628 24.366 45.1875 25.08 44.4324C24.402 45.1456 24.716 44.8808 24.282 45.4366C24.18 45.6148 24.074 45.8246 23.946 45.974C24.324 45.565 23.728 46.4014 24.28 45.801C24.144 45.9845 24.302 45.8639 23.948 46.3096C24.1 46.2231 24.178 45.9819 24.354 45.759C24.892 45.2268 23.938 46.7107 24.678 45.9871C25.026 45.7459 25.506 45.156 25.814 44.9516C25.618 45.274 25.29 45.5834 25.29 45.5834C25.128 45.9032 25.196 45.8954 25.394 45.7407C25.266 45.8875 25.172 46.0317 25.03 46.2493C25.098 46.2441 25.552 45.6175 25.39 45.9399C25.23 46.1313 24.974 46.4433 24.804 46.6242C24.968 46.5062 25.262 46.2152 25.424 46.1025C25.194 46.4302 25.036 46.5508 24.866 46.737C25.016 46.6504 25.194 46.598 25.588 46.1156L25.696 45.9006C25.73 45.8954 25.378 46.3385 25.296 46.4145C24.962 46.7579 25.374 46.1733 25.512 45.9871L25.628 45.9059C26.41 44.81 25.39 45.9321 25.382 45.801L25.994 45.059L25.45 45.6253C25.592 45.4104 25.912 44.9673 26.026 44.8886C26.278 44.456 25.782 45.1167 26.072 44.6474C26.118 44.5766 26.148 44.5426 26.176 44.5163L25.962 44.6946C26.094 44.5426 26.37 44.1414 26.31 44.283C26.58 43.7482 25.758 44.7156 26.178 44.0995L26.22 44.0602C25.926 44.1965 25.778 44.6133 25.2 45.1849L26.218 43.7246L25.776 44.2778C25.782 44.2437 25.794 44.1755 25.97 43.9553C25.638 44.2961 25.788 44.2096 25.488 44.5478C25.834 43.971 25.174 44.6186 25.852 43.701C25.506 44.11 25.644 44.0916 25.366 44.325C26.092 43.3366 25.18 44.4141 25.478 43.9133C25.874 43.4309 25.712 43.7482 26.01 43.2448C25.338 44.0575 26.068 42.9485 25.908 43.0639C25.392 43.7351 25.614 43.2395 25.382 43.3837C25.558 43.1635 25.55 42.8646 25.678 42.5448L25.766 42.4347C25.236 43.1006 25.276 42.8961 25.124 42.98C25.438 42.5736 25.566 42.4242 25.73 42.2721L25.688 42.2223C25.512 42.4268 25.412 42.5264 25.326 42.571L25.724 42.0755C25.65 42.0336 25.16 42.5343 25.35 42.1043C24.984 42.5736 24.396 43.4965 24.082 43.7193C24.276 43.4598 24.608 43.0167 24.706 42.9354C24.674 42.959 24.522 43.119 24.592 42.9931L24.95 42.5998C25.064 42.3691 24.658 42.9381 24.664 42.8673C24.944 42.5028 24.844 42.5815 25.07 42.2957C25.104 42.2695 24.976 42.4766 25.096 42.3455C25.118 42.2433 25.25 41.9811 25.45 41.6901C25.294 41.9025 25.074 42.183 25.018 42.204C24.944 42.1594 25.336 41.7399 25.448 41.5118C25.242 41.7478 25.408 41.441 24.99 41.9864C24.976 41.9628 25.168 41.7032 25.276 41.5485C25.064 41.753 25.094 41.4489 24.682 42.0703L24.66 42.1174C24.66 42.1174 24.648 42.1253 24.638 42.1358C24.132 42.5605 24.686 41.58 24.418 41.6953L24.558 41.5118C24.344 41.6508 24.344 41.4777 24.006 41.8212C23.99 41.8002 24.224 41.4384 24.396 41.2287C24.25 41.3126 24.088 41.5118 24.26 41.1317C24.544 40.8669 24.462 40.8302 24.48 40.9534C24.548 40.7253 24.758 40.4159 24.32 40.8407C24.698 40.3976 24.73 40.1983 24.598 40.3032L24.38 40.6886C24.3 40.7201 24.306 40.644 24.312 40.5732L24.796 39.9755C25.26 39.0815 23.626 40.9953 24.5 39.6294C24.142 40.0227 24.328 40.0096 23.916 40.4815C23.93 40.332 24.552 39.3777 24.538 39.3568C24.73 38.9242 23.786 40.1747 23.892 39.847C23.734 40.0777 23.294 40.6781 23.082 40.8144C23.094 40.6676 23.724 39.8103 23.89 39.6766C23.916 39.674 23.868 39.75 23.812 39.826C23.89 39.7657 23.982 39.7002 24.144 39.4354L23.97 39.6478C24.116 39.3908 24.03 39.3227 24.322 38.9845C24.124 39.1444 24.03 39.3253 23.972 39.4747C24.15 39.071 23.878 39.3332 23.976 39.0317C23.894 39.168 23.706 39.438 23.698 39.4223C23.808 39.0212 23.336 39.7841 23.198 39.7946C23.416 39.4092 23.822 39.0107 23.542 39.2047C23.674 38.9242 23.978 38.6096 24.132 38.4522C23.748 38.7983 24.232 38.0249 24.256 37.9017L24.424 37.7654C24.324 37.8466 24.312 37.823 24.296 37.7994L23.978 38.2635C24.018 38.1612 24.004 38.1403 24.144 37.9567C23.904 38.2189 23.6 38.7092 23.262 39.0526C23.408 38.7957 23.004 39.1942 23.44 38.5991C23.368 38.9006 23.878 38.0013 24.016 37.9934C23.95 38.0459 23.936 38.0223 23.976 37.92C24.022 37.8519 24.07 37.8021 24.102 37.7758C24.426 37.1545 23.564 38.3919 23.496 38.2766C23.756 37.9594 23.954 37.629 23.888 37.6815C23.914 37.7286 23.484 38.2504 23.264 38.4654C23.41 38.1429 23.064 38.586 23.062 38.5204L23 38.6803C22.74 38.995 22.748 38.9189 22.634 38.9792C22.826 38.7197 22.8 38.8455 22.874 38.7144C22.394 39.2414 23.244 38.0013 22.892 38.3212C23.038 38.0642 23.362 37.6998 23.454 37.5189C23.068 37.8676 23.732 36.9815 23.4 37.2515C23.08 37.7182 23.166 37.6133 22.794 37.9856L23.136 37.8099L22.578 38.3657C22.604 38.4129 22.856 38.1743 22.818 38.274C22.51 38.5938 22.598 38.4863 22.334 38.8743C22.798 38.1534 21.954 39.1496 22.246 38.6358L23.084 37.5425C23.382 36.9579 22.522 37.9305 22.636 37.5268L22.522 37.7575C22.176 38.177 22.416 37.7391 22.25 37.8755C22.532 37.5137 22.614 37.3537 22.774 37.1099C22.568 37.3826 22.722 36.9919 22.156 37.7103L22.48 37.1702C22.552 36.8713 21.596 38.0957 21.614 37.8728C21.94 37.5058 22.104 37.2017 22.372 36.9815C22.35 36.9447 22.378 36.8477 22.184 37.1021C22.344 36.853 21.738 37.5032 21.98 37.1256C21.846 37.2725 21.55 37.6526 21.546 37.5845C21.6 37.5058 21.684 37.4036 21.684 37.4036C21.546 37.5845 21.452 37.5923 21.168 38.0301C21.962 36.7874 20.888 37.8283 21.568 36.7612C21.42 36.811 21.264 36.8425 21.194 36.8032C21.28 36.6983 21.334 36.6223 21.314 36.6721C21.504 36.2421 20.4699 37.6683 20.6819 37.1859C21.094 36.541 20.968 36.9212 21.114 36.6642C22.022 35.4451 20.894 36.7035 21.378 35.9328L21.444 35.8777C21.716 35.4163 20.998 36.2054 20.998 36.0324C20.998 36.0324 21.082 35.9301 21.138 35.8515C20.6239 36.4073 20.3839 36.4991 20.1919 36.5856C20.5719 36.1399 20.4099 36.3732 20.7639 35.8803C20.6839 35.9118 20.1859 36.659 20.0259 36.7193C20.2039 36.4361 20.3359 36.1582 20.7199 35.6391L20.794 35.6811C21.272 34.9837 20.7079 35.6129 20.7679 35.4608L20.992 35.1777C20.8379 35.1646 20.2819 35.8908 20.2339 35.723L20.0759 35.9537C19.4779 36.6118 20.3459 35.4949 19.8879 35.9695L20.4319 35.2196C20.2659 35.3533 19.7819 35.7807 19.6199 35.8436C20.0659 35.3429 20.3439 35.1541 20.6319 34.8841C20.6039 34.8369 20.4839 34.7975 20.1919 35.1384C20.2579 35.0833 20.4119 34.926 20.3379 35.0545C19.8599 35.5788 19.5939 35.7964 19.5419 35.702C20.6359 34.2968 19.6519 35.1305 20.4459 33.9691C19.9339 34.3492 20.3959 33.4578 20.2039 33.3713C19.4079 34.5354 20.1419 33.353 19.2859 34.496C19.2019 34.5275 19.2039 34.496 19.2559 34.4174L19.6819 33.6204C19.9119 33.2612 19.9019 33.408 20.0919 33.1511C20.0919 32.978 20.4299 32.6346 20.6179 32.2754C20.3179 32.6923 20.1519 32.826 20.2319 32.6215L19.8859 33.214C19.3339 33.6964 20.5319 32.1574 19.9839 32.6346L20.2859 32.3174C20.0779 32.4642 20.1159 32.0788 19.3739 32.9309C19.4659 32.7893 19.6899 32.4642 19.7739 32.4091C19.7639 32.1234 18.7819 33.0462 19.1219 32.3698L19.3419 32.105C19.2599 32.1574 18.9079 32.5769 19.0939 32.2623C19.1819 32.1496 19.3139 31.9975 19.3159 31.9687C19.2319 32.05 18.8899 32.3803 18.9839 32.181L19.2459 31.9005C19.4119 31.3919 18.4959 32.438 18.2579 32.5061C18.8799 31.6908 18.9959 31.3106 19.0539 31.1219L19.1439 31.0091C19.0919 30.7391 18.4079 31.3971 18.0439 31.5623C18.6459 30.5792 18.0759 30.8623 18.3359 30.2095C18.2419 30.3825 17.8479 30.8413 17.7639 30.8964C17.8619 30.6945 17.2539 31.3604 17.8299 30.6185V30.6447C18.3679 29.8818 18.1619 30.0024 18.1319 29.9237L17.3779 30.8938C18.3459 29.3155 16.6719 31.0144 17.5799 29.6537C17.3639 29.8608 17.3319 29.8136 17.1179 30.0207L17.5199 29.499C17.5439 29.263 17.5539 29.1451 17.3619 29.1424L17.6679 28.7937C17.6399 28.6863 16.4439 30.2174 16.3699 30.1807L16.9519 29.3784C16.8479 29.2657 17.2759 28.4503 16.6379 29.0376C16.7279 28.9248 16.9019 28.702 16.9419 28.6915C16.9119 28.6128 17.1719 27.9338 16.3679 29.0297C16.9019 28.3271 16.3219 28.8331 16.0339 29.0743L16.4359 28.5683C15.8879 29.1713 15.7499 29.3496 15.5499 29.4518C15.5859 29.3653 15.8519 29.0218 15.7719 29.1791C15.9299 28.8462 15.3619 29.6196 15.5119 29.2683L15.7859 28.9668C15.7659 28.8619 15.6359 29.0454 15.3159 29.3941C15.1259 29.5619 15.3219 29.1398 15.6699 28.6653C15.4459 28.9406 15.1279 29.2866 15.2019 29.1136C15.3319 28.9327 15.4259 28.8357 15.4719 28.7911C15.6579 28.3323 14.8899 29.2316 15.2219 28.6496C15.3519 28.4765 15.4119 28.3874 15.4479 28.3297C15.5039 28.4267 15.5359 28.5263 15.5019 28.5578C15.8659 28.0806 15.8759 27.9286 16.4199 27.3256C16.1039 27.6297 15.4359 28.314 15.5539 28.023C15.5859 27.9731 15.6179 27.926 15.6719 27.8499L15.7179 27.8027C15.7419 27.7398 15.6979 27.7686 15.6259 27.8368C15.6699 27.7372 15.7019 27.6664 15.6919 27.6376C15.9859 27.2364 15.7939 27.3439 15.7819 27.2915C15.3859 27.8158 15.4159 27.6874 15.1199 28.1593C15.1439 28.1173 15.1719 28.1042 15.2059 28.1042C15.2219 28.0937 15.2319 28.0911 15.2579 28.0649C15.2459 28.078 15.2339 28.0937 15.2219 28.1095C15.2499 28.1173 15.2819 28.1357 15.3139 28.1619C15.0919 28.4005 14.8999 28.5945 15.0899 28.2668C14.8199 28.584 14.5439 28.9091 14.4119 29.0585C14.9299 28.2851 15.1599 27.8001 15.4919 27.3387C15.1879 27.5248 15.1539 27.281 14.3579 28.1934C14.2399 28.2904 14.5459 27.8788 14.6539 27.7136C14.7419 27.6323 14.7459 27.669 14.8619 27.5379C14.6239 27.7293 14.6519 27.4567 14.1179 28.1278C14.2959 27.7424 14.6299 27.5406 14.4659 27.5484L14.6359 27.3544C15.3139 26.0566 13.0499 28.7675 13.9479 27.1368C13.8939 27.2391 13.8699 27.2862 13.7859 27.4042C14.0599 26.5259 12.9359 27.4514 13.4899 26.214C13.5859 25.9439 13.2459 26.3713 12.9579 26.6597L13.3739 26.0829L12.8239 26.6518C12.3819 27.0162 13.7299 25.0918 12.9439 25.8495L12.6699 26.2454C12.6879 26.1248 12.3819 26.3136 12.7199 25.8862C12.6639 25.9492 12.4079 26.2611 12.5439 26.0462L12.7659 25.7525L12.2919 26.1353C12.3819 25.8312 13.1899 24.987 13.1299 24.793C13.0059 24.8559 12.3699 25.5008 12.2339 25.7158C12.2379 25.7499 12.1339 25.9492 11.9119 26.2454L11.7599 26.3529C11.0959 27.2076 10.3939 28.057 10.0199 28.7728L10.4819 28.3245L10.1819 28.7675L10.1119 28.7282C9.83989 29.1608 10.1239 28.8357 10.3279 28.6233C10.1619 28.8514 10.0519 29.0192 10.0019 29.1188L10.6899 28.3716C10.4399 28.7203 10.1519 29.0061 10.0499 29.2447C10.3699 28.8986 10.5999 28.4529 10.8379 28.2615C10.5679 28.6915 10.3159 29.0009 10.6039 28.7099C10.4399 28.9379 10.3239 29.0717 10.2359 29.1503C10.4699 28.9222 10.4019 29.1424 10.7679 28.7046C10.4279 29.229 10.9659 28.7125 10.3399 29.5252C10.4979 29.3417 10.8819 28.9537 10.9359 28.9563C10.1399 29.8687 10.9959 29.1503 10.1819 30.1807C10.8899 29.3496 10.6159 29.9683 11.0539 29.5672C10.9979 29.6327 10.8819 29.7638 10.9099 29.7114C10.8919 29.8346 10.6999 30.1125 10.5979 30.3091C11.1559 29.5881 11.3419 29.499 11.7139 29.0926C11.2259 29.8529 11.0359 29.908 10.5359 30.6001C10.9819 30.0076 11.0639 30.1177 11.4219 29.6065C11.1259 30.0863 11.2919 29.8556 10.8499 30.4822C11.5499 29.5829 10.9999 30.372 11.4539 29.8503C11.1639 30.3642 10.8179 30.7181 11.0839 30.5136C10.8979 30.8256 10.6039 31.0825 10.6039 31.0825L10.5899 31.093ZM13.1099 31.2556L13.1019 31.2661C13.0819 31.2634 13.0639 31.2608 13.0519 31.2608C13.0639 31.2608 13.0799 31.2608 13.1099 31.2556V31.2556ZM13.2279 31.3919C13.2299 31.3526 13.2159 31.329 13.1959 31.308C13.3299 31.1219 13.4739 30.9436 13.4779 30.9672C13.3799 31.0799 13.3279 31.2189 13.2279 31.3919V31.3919ZM15.7479 27.4724C15.8219 27.4226 15.7479 27.5327 15.6699 27.6428C15.6539 27.6428 15.6319 27.6454 15.5919 27.6638C15.5759 27.6821 15.5579 27.7031 15.5419 27.7241C15.6199 27.6271 15.6919 27.5353 15.7479 27.4724V27.4724Z" fill="#F83434"/>
<path d="M15.1931 28.1147C15.1811 28.1226 15.1631 28.1436 15.1571 28.1436C15.1251 28.1934 15.0991 28.238 15.0791 28.2747C15.1231 28.2222 15.1671 28.1698 15.2091 28.12C15.2031 28.12 15.1991 28.1147 15.1931 28.1147Z" fill="#F83434"/>
<path d="M24.6778 42.0909L24.6838 42.0752C24.6698 42.0988 24.6558 42.1224 24.6318 42.1565C24.6498 42.1303 24.6618 42.1119 24.6758 42.0909H24.6778Z" fill="#F83434"/>
<path d="M14.002 34.4016L14.102 34.2705L14.004 34.3728L14.002 34.4016Z" fill="#F83434"/>
<path d="M23.926 44.6816C23.892 44.7288 23.858 44.7786 23.832 44.8258C23.858 44.7918 23.89 44.7393 23.926 44.6816Z" fill="#F83434"/>
<path d="M24.1001 45.1455L23.9961 45.3788C24.0601 45.253 24.0861 45.1875 24.1001 45.1455Z" fill="#F83434"/>
<path d="M24.1055 45.6701C24.1775 45.581 24.2315 45.5154 24.2795 45.4525V45.4473L24.1055 45.6701V45.6701Z" fill="#F83434"/>
<path d="M20.4079 42.0464C20.4079 42.0464 20.3959 42.0464 20.3819 42.0595C20.2859 42.1355 20.3299 42.1119 20.4079 42.0464Z" fill="#F83434"/>
<path d="M22.2976 42.0908C22.2156 42.1721 22.1336 42.2507 22.0796 42.2953C22.0656 42.3582 22.0716 42.3845 22.2976 42.0908Z" fill="#F83434"/>
<path d="M18.8564 41.2645C18.8564 41.2645 18.8603 41.2595 18.8641 41.257C18.8603 41.257 18.8603 41.252 18.8584 41.2495V41.267L18.8564 41.2645Z" fill="#F83434"/>
<path d="M22.0419 42.2273C21.9799 42.3531 22.0119 42.3505 22.0799 42.2954C22.0919 42.243 22.1159 42.167 22.0419 42.2273Z" fill="#F83434"/>
<path d="M24.8078 47.0623L24.8018 47.0964C24.8278 47.0623 24.8498 47.0335 24.8678 47.0151L24.8098 47.0623H24.8078Z" fill="#F83434"/>
<path d="M24.8662 47.0149L24.9242 46.9677C24.9242 46.9677 24.9122 46.9598 24.8662 47.0149Z" fill="#F83434"/>
<path d="M25.0459 46.8657L24.9219 46.968C24.9219 46.968 24.9259 47.0099 25.0459 46.8657Z" fill="#F83434"/>
<path d="M24.7212 46.4692L24.5732 46.6554C24.6052 46.6187 24.6532 46.5584 24.7212 46.4692Z" fill="#F83434"/>
<path d="M24.598 46.4141C24.584 46.4823 24.34 46.8808 24.456 46.7995L24.574 46.6527C24.346 46.9175 24.86 46.1205 24.598 46.4141V46.4141Z" fill="#F83434"/>
<path d="M26.0392 43.6327L25.9932 43.8739C26.1352 43.6563 26.3252 43.3653 26.3932 43.3575C26.7652 42.6443 26.0672 43.832 26.0392 43.6327Z" fill="#F83434"/>
<path d="M26.0498 43.0615C26.1578 43.0169 26.2718 42.7678 26.3618 42.6577C26.1978 42.8098 26.1578 42.8491 26.0498 43.0615Z" fill="#F83434"/>
<path d="M24.5166 41.0474L24.8826 40.5781C24.8026 40.6096 24.7426 40.7616 24.5166 41.0474Z" fill="#F83434"/>
<path d="M22.3513 43.1139L22.1553 43.4442L22.4993 43.0273L22.3513 43.1139Z" fill="#F83434"/>
<path d="M24.7556 39.509L24.8196 39.4565L24.6416 39.5667L24.7556 39.509Z" fill="#F83434"/>
<path d="M22.0484 36.2975L21.6104 36.8926C21.7104 36.814 22.2144 36.1611 22.0484 36.2975Z" fill="#F83434"/>
<path d="M20.4817 35.4319C20.6917 35.1252 20.8037 34.8945 20.5657 35.1566C20.5597 35.2301 20.4117 35.4896 20.4817 35.4319Z" fill="#F83434"/>
<path d="M17.8701 30.1041L18.0421 29.939L17.8741 30.0465L17.8701 30.1041Z" fill="#F83434"/>
<path d="M60.8372 0.730456C60.7332 0.546934 60.4472 0.198242 60.4532 0.334573L60.8852 0.995252L60.8372 0.730456Z" fill="#F83434"/>
<path d="M59.6377 0.0308029C59.8057 0.405712 60.1377 1.01658 60.6057 1.53044C60.2137 0.864517 60.4157 1.09261 59.9417 0.308708C59.9377 0.172377 60.1777 0.392603 60.3417 0.62856C60.2397 0.44766 60.5217 0.662643 60.2537 0.243164C59.8277 -0.147476 59.7297 -0.0583363 59.9437 0.445038C59.8217 0.334925 59.7177 0.151403 59.6357 0.0308029H59.6377Z" fill="#F83434"/>
<path d="M54.0615 5.42632L54.1475 5.45778C54.1075 5.42894 54.0815 5.42108 54.0615 5.42632Z" fill="#F83434"/>
<path d="M50.8023 9.0238C50.8143 8.97923 50.7763 8.90582 50.7363 8.84814C50.7463 8.91631 50.7563 8.97661 50.8023 9.0238Z" fill="#F83434"/>
<path d="M49.7744 9.0205C49.8004 9.02574 49.8164 9.0205 49.8364 9.0205C49.7824 8.97855 49.7464 8.96282 49.7744 9.0205Z" fill="#F83434"/>
<path d="M54.062 5.42636L53.834 5.33984C53.98 5.54696 53.988 5.43423 54.062 5.42636Z" fill="#F83434"/>
<path d="M60.0966 2.38753C60.0906 2.33509 60.0606 2.25906 60.0166 2.16992C60.0226 2.21449 60.0266 2.25382 60.0246 2.2879C60.0486 2.32198 60.0706 2.35082 60.0946 2.38753H60.0966Z" fill="#F83434"/>
<path d="M55.0054 3.19267L55.0294 3.15858C54.9834 3.07993 54.9254 2.98555 54.8594 2.8833L55.0054 3.19267Z" fill="#F83434"/>
<path d="M55.9491 1.76904C55.9091 1.77691 56.2991 2.30912 56.4632 2.5477C56.3131 2.31699 56.2511 2.19114 56.2411 2.1256C56.1651 2.02597 56.0732 1.91062 55.9491 1.76904V1.76904Z" fill="#F83434"/>
<path d="M58.2598 0.573492L58.2334 0.463379C58.2435 0.49484 58.2476 0.534166 58.2598 0.573492Z" fill="#F83434"/>
<path d="M54.193 4.03406C54.133 3.95802 54.077 3.8951 54.041 3.8584C54.091 3.92394 54.143 3.98162 54.193 4.03406Z" fill="#F83434"/>
<path d="M28.7751 45.1855C28.7471 45.1462 28.7291 45.1252 28.7051 45.0938C28.7391 45.1541 28.7651 45.1934 28.7751 45.1855Z" fill="#F83434"/>
<path d="M25.6293 44.1498L25.6233 44.1C25.5493 44.0003 25.4773 43.9007 25.4033 43.8037L25.6273 44.1498H25.6293Z" fill="#F83434"/>
<path d="M48.3281 9.58208C48.3281 9.58208 48.3341 9.5847 48.3402 9.58733C48.3199 9.49556 48.3139 9.5244 48.3281 9.58208Z" fill="#F83434"/>
<path d="M40.0098 21.2539C40.4618 21.5921 40.3078 22.0614 40.8478 22.3839C40.6798 22.1977 40.3618 21.3955 40.0098 21.2539Z" fill="#F83434"/>
<path d="M60.02 2.354C60.0099 2.3776 59.9997 2.4012 59.9814 2.4143C60.0139 2.40644 60.0241 2.38809 60.02 2.354Z" fill="#F83434"/>
<path d="M40.8467 22.3838L40.8507 22.389L40.9027 22.4179C40.8807 22.4048 40.8667 22.3943 40.8467 22.3838Z" fill="#F83434"/>
<path d="M46.4043 12.728C46.4783 12.8145 46.5403 12.8722 46.6003 12.9273C46.5583 12.8748 46.5043 12.8172 46.4043 12.728Z" fill="#F83434"/>
<path d="M48.5803 11.3597L48.4863 11.3413C48.5383 11.3675 48.5643 11.3675 48.5803 11.3597Z" fill="#F83434"/>
<path d="M46.1295 14.5605C46.0775 14.55 46.0155 14.4871 46.0395 14.5946C46.0635 14.6182 46.0795 14.6339 46.0975 14.6471C46.0535 14.5605 46.0435 14.5107 46.1315 14.5605H46.1295Z" fill="#F83434"/>
<path d="M45.2617 15.7036C45.2977 15.7377 45.3257 15.7587 45.3577 15.7875C45.3577 15.7665 45.3617 15.7429 45.3637 15.7246L45.2617 15.7036Z" fill="#F83434"/>
<path d="M31.2271 41.4671C31.0971 41.3465 30.9611 41.1997 30.8291 41.0503C31.1251 41.4042 31.0991 41.7031 31.2271 41.4671Z" fill="#F83434"/>
<path d="M59.873 2.09424C59.969 2.23319 60.011 2.3066 60.019 2.35379C60.025 2.33544 60.027 2.31184 60.027 2.28825C59.971 2.20697 59.915 2.13356 59.875 2.09686L59.873 2.09424Z" fill="#F83434"/>
<path d="M49.2312 18.7163L49.0352 18.8212C49.1112 18.8212 49.1832 18.7819 49.2312 18.7163Z" fill="#F83434"/>
<path d="M37.4131 33.2114L37.4293 33.3163C37.4516 33.3111 37.4516 33.2822 37.4131 33.2114Z" fill="#F83434"/>
<path d="M48.6811 19.4366C48.5171 19.2846 48.4091 19.2138 48.3291 19.1797C48.3551 19.2269 48.3731 19.2688 48.4151 19.3344L48.6811 19.4366V19.4366Z" fill="#F83434"/>
<path d="M30.8252 41.0483L30.8295 41.0534C30.8295 41.0534 30.8274 41.0508 30.8252 41.0483Z" fill="#F83434"/>
<path d="M30.8591 43.4782C31.0031 43.3209 30.4091 42.7257 30.1371 42.2958C30.1471 41.8946 30.5951 42.7048 30.9151 42.9853C30.8751 42.6759 30.4711 41.9471 30.5651 41.8789C30.6571 41.9838 30.7031 42.0074 30.7931 42.1699C30.4811 41.4883 31.0811 41.74 30.6791 40.8958C30.7351 40.9456 30.7831 40.9954 30.8251 41.0452C30.5431 40.728 30.2751 40.3845 30.0891 40.1302C30.1391 40.0411 29.8691 39.5534 30.2331 39.9729C30.1871 40.007 30.3211 40.1905 30.4111 40.3531L30.3251 40.0778C30.8711 40.6493 30.4111 40.4107 30.7731 40.8879C30.7331 40.5208 30.4691 39.8025 30.6991 39.8628C31.1991 40.4658 30.6451 40.3583 31.1951 40.7568L30.8691 40.7044C31.7371 41.5538 30.7291 40.7489 31.6411 41.6797C31.9691 41.6141 31.6071 41.0819 31.9351 41.019C31.7111 40.6126 31.5271 40.5182 31.3011 40.1145C31.0891 39.1366 32.7191 41.4227 32.2751 40.3268C32.0051 39.8418 31.4171 39.0186 31.8791 39.2572L32.3751 40.0306C32.6111 39.8628 31.6991 38.8718 32.2551 39.0999C32.4351 39.425 32.2911 39.5246 32.3831 39.5718C32.9351 39.9729 32.1631 39.0527 32.2571 38.9294L32.7571 39.5351C32.8751 39.1811 32.7411 38.447 32.8691 38.0485C33.0011 38.2504 33.1131 38.4969 33.3111 38.6227C33.3411 37.9515 33.9491 37.941 34.4951 37.9725L34.1791 37.2987C34.2071 37.2751 34.4091 37.4875 34.4651 37.6264C34.7251 37.6999 34.2071 37.2751 34.0931 36.9972C34.1211 36.8845 34.4091 37.2096 34.4971 37.4219C34.3251 36.7246 34.2511 35.7571 34.8851 36.0901L34.9711 36.2998C35.2871 36.3261 34.2871 34.9654 34.8111 35.2931L34.8591 35.4242C35.3591 35.2407 35.3331 34.2785 36.2031 34.7792C35.6511 33.935 36.7871 34.7137 35.9731 33.5942C36.5691 33.8957 36.6651 34.1605 37.2011 34.1867C37.3091 34.1474 36.7831 33.3687 36.7811 33.1433L37.2191 33.7122L36.8771 32.9624L37.4591 33.5654L37.4271 33.3137C37.3691 33.3215 37.1631 33.1459 37.0431 32.9755C36.9711 32.5534 37.6511 32.9755 37.8771 33.2639L37.8031 32.3934C37.9711 32.632 37.9831 32.7762 38.0551 32.9729C37.7671 32.1837 38.5431 33.5365 38.2791 32.8129C38.1611 32.7081 38.0291 32.459 37.9451 32.3384C38.2811 32.5901 38.4471 32.3777 38.4571 32.0736L38.7351 32.4983C39.0291 32.3122 39.0511 31.7039 39.3031 31.3919C39.0751 31.3238 38.5751 30.6133 38.5971 30.4534L39.0851 31.0197C38.8471 30.5871 38.8371 30.8912 38.5831 30.3092C38.7271 30.2593 39.1691 30.9148 39.2651 31.1796L39.2171 30.823C39.3611 30.9961 39.4071 31.1245 39.5771 31.3631C39.3371 30.9279 40.2311 31.717 39.8011 30.9803L39.9451 31.1507C40.1951 30.8335 40.1471 30.4796 40.3231 30.1886C39.9291 29.6616 40.0951 29.6747 39.8331 29.1766C40.1071 29.1503 40.5811 29.347 40.7251 29.0717C40.6511 28.6496 40.4251 28.5814 40.2451 28.1987C40.6171 28.6601 40.7591 28.3848 40.9271 28.8462C41.0811 28.4923 41.1271 28.3953 41.1011 27.6586C40.9231 27.5013 40.8271 27.4593 40.7191 27.2758C40.7091 27.1342 40.9811 27.3309 41.1491 27.5668L41.1731 27.6324C40.9311 26.526 42.9251 28.1043 42.4091 26.8013L42.4331 26.8668L42.2891 26.0252C42.4671 25.9571 42.4931 26.4735 42.8011 26.6544C42.4651 25.5114 43.3131 26.214 43.1311 25.396C44.3712 26.5732 43.6632 24.502 44.5772 25.0919L44.3112 24.7799C44.1232 24.3788 44.5272 24.8743 44.6292 24.8926C44.4272 24.6436 44.3392 24.6803 44.2392 24.4522C44.4412 23.393 45.6512 23.566 46.3972 23.1833C46.6552 23.0233 45.2032 21.3349 46.0432 21.8095L46.4432 22.5095C46.2652 21.272 47.2452 21.508 47.1452 20.3937C47.2312 20.5641 47.3692 20.7477 47.3312 20.7949C47.7492 21.1357 47.6412 20.4331 47.3652 20.0686C47.4552 20.0345 47.6292 20.3806 47.8052 20.5169C48.0852 20.6743 47.5712 19.6885 47.9512 20.0765C48.0132 20.1394 48.0392 20.2495 48.0512 20.3046C47.9392 20.0214 48.3332 20.0424 47.8932 19.5941C48.2212 19.6544 47.9872 19.0121 48.3312 19.1694C47.9672 18.5008 48.7832 19.13 48.1872 18.2885C48.8172 19.1405 48.9492 18.6424 48.7372 18.1312C48.9012 18.4248 49.0152 18.2911 49.2472 18.6896C49.3392 18.5454 49.3132 18.2675 48.9672 17.8585C49.9192 18.6162 48.7272 16.5581 49.8132 17.7064C49.7712 16.8596 49.8172 16.1911 49.9372 15.6379C50.5652 16.4873 49.7012 16.115 50.3832 16.9776C50.3772 16.2959 49.9792 15.3836 50.3872 15.2525C50.5412 15.2787 50.6252 15.6641 50.7132 15.8371C50.7072 15.1555 51.2672 15.263 51.1492 14.5079C51.2072 14.5866 51.2492 14.7045 51.2732 14.7989C51.2972 14.7124 51.4712 14.7832 51.1772 14.4109L51.2112 14.5708C50.7192 14.1147 50.5112 13.1839 50.2972 12.8824C51.0512 14.0727 50.7312 12.8615 51.6612 14.3952C51.6352 14.2851 51.5352 14.0544 51.3352 13.8105C51.4352 13.8263 51.5632 13.9573 51.7392 14.306C51.7432 13.8866 51.3772 13.5588 51.5292 13.3753C51.6692 13.5615 51.6932 13.669 51.8432 13.9049C51.6432 13.4487 51.4432 12.9925 51.6872 12.9873C51.7652 13.1079 51.8892 13.2337 51.8492 13.2783C52.0192 12.9454 51.4812 11.8495 51.9792 11.8914C52.5212 12.7802 52.2592 12.0513 52.7992 12.7277L52.7672 12.3581L52.4612 12.088C52.5792 11.957 52.2912 11.3251 52.5592 11.4274L52.6952 11.818L52.8012 11.4169L52.4852 11.3068C52.3232 10.8034 51.8052 10.4468 52.0992 10.4468C52.1232 10.5543 52.2152 10.3105 52.5832 10.6435C52.4692 10.3524 52.3472 10.0457 52.5612 10.1112C52.7512 10.3053 53.1272 10.8978 53.2552 11.0289C52.8672 10.3813 53.3892 10.5307 52.9872 9.82548C53.0752 10.0011 53.3512 10.3656 53.4152 10.4285L53.1012 9.89889C53.2672 9.98278 53.3292 10.0457 53.5432 10.3472C53.7612 10.2318 52.8252 9.53184 53.2952 9.67342C53.3092 9.7311 53.3712 9.7914 53.3952 9.90151C53.7272 9.85956 53.5192 9.1412 53.8632 9.15431C54.4432 9.78615 53.8472 9.51611 54.3512 10.03C54.4972 9.5869 54.2132 8.54083 54.5732 8.39925L54.4712 8.37828C53.7532 7.35318 55.0152 8.63521 54.7792 8.01648C54.8052 8.12659 55.1572 8.61161 55.0812 8.49363C55.3612 8.4412 55.2232 7.82247 55.2292 7.19587L55.3932 7.48951C55.6592 7.59175 55.7412 7.29288 55.9292 7.27452C55.7672 6.98351 55.8572 6.94681 55.5412 6.62695C56.9532 7.65468 55.5512 5.06964 56.7452 5.90335C56.7132 5.95054 56.8352 6.22845 56.8612 6.19436L56.9212 5.65166C56.5752 5.24792 56.6932 5.43406 56.3872 5.16402C56.2232 4.87038 56.1412 4.58724 56.1992 4.50858C56.3092 4.93331 56.7252 5.19548 56.9532 5.37376C56.8452 5.25316 56.7512 5.08799 56.6452 4.95952C57.3512 5.5599 56.0092 4.07075 56.5692 4.36177L56.7312 4.59772C56.7072 4.39847 56.5392 4.02618 56.6552 3.99997C57.0612 4.45877 56.7632 4.31982 57.0712 4.73405C57.1452 4.57937 56.5452 3.5464 57.0072 3.92656C57.0712 4.11794 57.0152 4.1966 57.0792 4.38798C57.6172 4.84679 57.5152 4.68424 57.6572 4.68424L57.6412 4.679L58.0052 4.72881L57.8432 4.62656C56.9772 3.17674 57.9072 4.07075 57.4232 3.01157C57.8772 4.01832 57.7512 3.5097 58.1672 4.08648C58.3272 4.18873 58.5232 4.28049 58.6252 4.46139C58.3552 3.90821 59.0252 4.65016 58.6272 3.8479C58.7692 4.02094 58.7232 3.75877 59.0512 4.23592C59.0412 3.96326 58.7872 3.95278 58.6232 3.7142C58.3052 2.89621 59.5552 3.9921 59.1272 2.85426C59.0512 2.25651 58.6212 1.60107 58.5652 1.06624C58.8452 1.2786 59.0192 1.78984 59.0192 1.78984C59.3192 1.93141 59.3532 1.78721 59.2852 1.46212C59.3872 1.64302 59.5072 1.75313 59.6892 1.9183C59.7252 1.77673 59.2352 1.19732 59.5352 1.3389C59.6732 1.56175 59.8972 1.91306 60.0172 2.1595C59.9752 1.8816 59.8032 1.43328 59.7672 1.15275C60.0312 1.4359 60.0792 1.7007 60.2032 1.94714C60.1952 1.67448 60.2432 1.32317 59.8932 0.785709L59.6932 0.691326C59.7112 0.620539 60.0392 1.09507 60.0812 1.22092C60.2932 1.72429 59.8272 1.21043 59.6832 1.03477L59.6572 0.835522C58.7832 -0.139766 59.5332 1.3389 59.3592 1.44377L58.8232 0.602187L59.1812 1.41231C59.0012 1.24714 58.6532 0.840766 58.6272 0.644135C58.2452 0.381961 58.7552 1.02429 58.3532 0.701813C58.2932 0.646757 58.2692 0.604809 58.2552 0.562861L58.3412 0.908931C58.2352 0.722787 57.9112 0.384582 58.0512 0.423909C57.5512 0.187952 58.2352 1.3389 57.7292 0.832901L57.7072 0.767357C57.6852 1.31792 58.1172 1.36249 58.4592 2.2434L57.2812 0.992827L57.6912 1.58796C57.6532 1.59845 57.5752 1.61418 57.4112 1.37822C57.6212 1.87635 57.6132 1.60631 57.8432 2.03628C57.3392 1.66399 57.7232 2.67599 57.0112 1.80557C57.2992 2.28797 57.3692 1.99958 57.4812 2.45314C56.7072 1.52766 57.4732 2.79659 57.0332 2.4846C56.6832 1.94452 56.9792 2.08347 56.5372 1.76886C57.1232 2.69434 56.2012 1.83965 56.2392 2.11231C56.7492 2.79134 56.2692 2.63404 56.2972 3.04565C56.1332 2.80707 55.7472 3.0273 55.4292 2.95651L55.3472 2.83853C55.8412 3.55165 55.6072 3.60408 55.6152 3.87412C55.3072 3.45989 55.2032 3.27637 55.1172 3.02468L55.0272 3.15052C55.1712 3.39697 55.2292 3.55165 55.2292 3.70895L54.8652 3.16887C54.7632 3.36026 55.0712 4.09697 54.6532 3.96588C55.0072 4.45353 55.7892 5.11945 55.8612 5.65953C55.6592 5.41046 55.3172 4.9805 55.2812 4.81795C55.2912 4.87038 55.3912 5.09848 55.2812 5.02769L55.0192 4.50858C54.8012 4.4142 55.2572 4.9202 55.1672 4.95428C54.8892 4.58724 54.9252 4.74978 54.7112 4.44828C54.6992 4.39323 54.8772 4.53218 54.7892 4.35914C54.6732 4.38012 54.4292 4.26738 54.1912 4.02356C54.3552 4.22544 54.5672 4.51645 54.5552 4.62656C54.4512 4.81533 54.1772 4.24117 53.9612 4.14941C54.1252 4.44304 53.8452 4.28311 54.2592 4.83368C54.2212 4.87825 54.0192 4.63181 53.8912 4.50334C54.0112 4.82844 53.6432 4.96739 54.1592 5.45241L54.2052 5.46814C54.2112 5.48387 54.2072 5.48912 54.2132 5.50485C54.4172 6.32545 53.5392 5.76964 53.5072 6.27826L53.3672 6.09474C53.4012 6.46703 53.1832 6.58238 53.3952 7.09362C53.3572 7.14081 53.0532 6.8734 52.9032 6.63482C52.9132 6.89699 53.0592 7.11722 52.6912 6.99662C52.5432 6.55092 52.4412 6.75804 52.6112 6.63482C52.3672 6.64006 52.1152 6.38313 52.3632 7.05692C52.0512 6.52733 51.8192 6.59025 51.8672 6.80523L52.2112 7.02808C52.1972 7.18276 52.1072 7.21684 52.0172 7.25617L51.5792 6.59811C50.7532 6.18126 52.0952 8.47528 50.9432 7.47115C51.2052 7.99026 51.3132 7.59438 51.6372 8.1764C51.4572 8.24719 50.6592 7.52097 50.6212 7.56554C50.2012 7.43445 51.1592 8.66142 50.8132 8.64832C51.0012 8.8397 51.4712 9.40076 51.5032 9.77304C51.3252 9.84383 50.6552 9.03896 50.5952 8.76629C50.6092 8.71124 50.6752 8.76367 50.7312 8.8397C50.7072 8.71124 50.6852 8.55131 50.4572 8.37303L50.6092 8.61423C50.3792 8.46479 50.2372 8.70075 49.9992 8.28914C50.0712 8.61423 50.2372 8.70075 50.3892 8.72697C49.9972 8.60375 50.1472 9.02323 49.8312 9.01274C49.9492 9.10188 50.1672 9.32997 50.1412 9.36143C49.7072 9.38503 50.3592 9.90938 50.2792 10.2056C49.9372 9.98541 49.6992 9.36405 49.7592 9.84645C49.4912 9.74158 49.2932 9.28802 49.1952 9.05993C49.3772 9.66817 48.7192 9.12547 48.5792 9.15169L48.5172 8.87641C48.5532 9.03896 48.5152 9.08353 48.4772 9.13072L48.8552 9.51611C48.7532 9.49776 48.7152 9.54233 48.5752 9.35881C48.7512 9.70488 49.1672 10.0457 49.3792 10.5569C49.1512 10.4101 49.3852 11.0289 48.9212 10.4704C49.2552 10.4285 48.4532 9.90937 48.5352 9.61312C48.5592 9.72061 48.5192 9.7678 48.4172 9.74683C48.3612 9.68915 48.3312 9.61836 48.3172 9.56855C47.7452 9.27491 48.7412 10.3341 48.5492 10.5569C48.3212 10.1978 48.0312 9.98803 48.0552 10.0955C48.1332 10.0064 48.5092 10.5989 48.6352 10.9397C48.3232 10.8349 48.6552 11.2963 48.5712 11.3461L48.7332 11.3749C48.9612 11.7341 48.8692 11.7682 48.8672 11.9779C48.6652 11.7315 48.8072 11.7053 48.6912 11.6292C49.0432 12.324 48.0312 11.2963 48.2032 11.8495C47.9752 11.7026 47.7252 11.2386 47.5592 11.1547C47.7452 11.7656 47.0632 10.903 47.1852 11.4483C47.5652 11.8337 47.4892 11.7158 47.7152 12.2847L47.7192 11.6555L48.0552 12.5023C48.1332 12.4131 47.9972 12.0225 48.0992 12.0409C48.3012 12.4997 48.2232 12.3791 48.5392 12.6989C47.9332 12.1667 48.6352 13.3465 48.1772 13.0502L47.3452 11.9491C46.7992 11.6895 47.4652 12.9165 47.0292 12.9375L47.2472 13.0319C47.5492 13.5064 47.1532 13.2757 47.2152 13.5484C46.9432 13.1734 46.7952 13.1 46.5912 12.9139C46.8012 13.1813 46.4072 13.1053 46.9432 13.863L46.4752 13.5143C46.1432 13.5562 47.0632 14.8304 46.7932 14.9353C46.5432 14.4686 46.2652 14.3139 46.1652 13.8761C46.1032 13.9495 45.9992 13.9521 46.1932 14.2064C45.9832 14.0229 46.4072 14.9117 46.0872 14.6338C46.1852 14.8278 46.4692 15.221 46.3812 15.2761C46.3172 15.2105 46.2432 15.0952 46.2432 15.0952C46.3812 15.2761 46.3292 15.4753 46.6952 15.8057C45.6432 14.9012 46.2552 16.5476 45.3492 15.7742C45.3152 16.0652 45.2512 16.3851 45.1552 16.5634C45.0792 16.4428 45.0172 16.3798 45.0672 16.3903C44.6472 16.2592 45.7692 17.5701 45.2992 17.4285C44.7552 16.9592 45.1512 16.9828 44.9232 16.8334C43.9792 15.6615 44.8292 17.2843 44.1692 16.7443L44.1452 16.6341C43.7392 16.3484 44.2652 17.3892 44.0472 17.5046C44.0472 17.5046 43.9732 17.3892 43.9092 17.321C44.2732 18.0735 44.2292 18.5349 44.2132 18.8993C43.8992 18.3671 44.0892 18.5611 43.6972 18.1207C43.6832 18.2754 44.3032 18.8653 44.2732 19.172C44.0332 18.9701 43.7672 18.8679 43.3651 18.375L43.4692 18.1836C42.9011 17.6068 43.3252 18.4169 43.1731 18.3881L42.9611 18.0892C42.8431 18.4327 43.3952 19.1641 43.1511 19.3791L43.3392 19.5705C43.7772 20.4383 42.9351 19.2874 43.2332 19.9716L42.6411 19.2847C42.7011 19.5574 42.9231 20.3308 42.8951 20.6428C42.5571 20.0031 42.4991 19.5207 42.3491 19.075C42.2711 19.1668 42.1411 19.4551 42.3791 19.8668C42.3551 19.7566 42.2551 19.5286 42.3711 19.6046C42.7211 20.2967 42.8171 20.7346 42.6631 20.9128C41.6071 19.4604 42.0111 21.0518 41.0631 20.0896C41.2051 20.9522 40.3811 20.5353 40.1451 21.0151C41.0931 21.9799 40.0811 21.1619 40.9651 22.2709C40.9491 22.4334 40.9091 22.4518 40.8471 22.3863L40.1191 21.9877C39.8171 21.723 39.9951 21.6495 39.7951 21.4057C39.5751 21.5185 39.3651 21.0098 39.0331 20.842C39.3631 21.2196 39.4231 21.4922 39.2171 21.4529L39.7391 21.8147C39.9851 22.6982 38.8291 21.1068 39.0691 21.9851L38.8651 21.5394C38.9151 21.896 38.4511 22.0664 39.0371 23.1203C38.9171 23.0155 38.6551 22.7402 38.6411 22.5934C38.2731 22.8031 38.7911 24.3342 38.1571 24.0432L37.9651 23.7391C37.9771 23.8833 38.2771 24.3735 38.0011 24.1743C37.9171 24.0563 37.8091 23.8728 37.7751 23.8859C37.8211 24.0144 38.0151 24.5439 37.8251 24.4679L37.6431 24.0825C37.1091 24.0589 37.8271 25.3619 37.7551 25.8338C37.1331 25.0159 36.7271 25.0185 36.5251 25.0185L36.4411 24.8979C36.0631 25.1915 36.4471 26.2428 36.4131 26.9271C35.5651 26.2691 35.5451 27.323 34.8891 27.1893C35.0451 27.281 35.3671 27.8342 35.3811 27.9811C35.1891 27.8998 35.6331 28.7833 35.0731 28.0204L35.1071 28.0046C34.4971 27.3361 34.5131 27.7058 34.3931 27.8237L35.1231 28.8253C33.7631 27.7608 34.8051 30.2882 33.6831 29.208C33.8031 29.5384 33.7191 29.6432 33.8411 29.9736L33.4451 29.444C33.1591 29.5489 33.0191 29.6039 32.8871 30.026L32.6471 29.5908C32.4931 29.7219 33.6411 31.3159 33.5471 31.4994L32.9131 30.7627C32.6991 31.0668 31.9511 30.6736 32.2731 31.6725C32.1891 31.5519 32.0231 31.3185 32.0351 31.2399C31.9151 31.3579 31.2251 31.2399 32.0831 32.265C31.5471 31.5676 31.8011 32.4983 31.9171 32.9624L31.5411 32.4223C31.9431 33.214 32.0771 33.4002 32.0751 33.7672C31.9911 33.7436 31.7311 33.3923 31.8751 33.4657C31.5571 33.3425 32.1611 34.0687 31.8151 33.9717L31.6131 33.5759C31.4671 33.686 31.6131 33.8511 31.8411 34.3204C31.9271 34.6219 31.5231 34.4751 31.1511 34.032C31.3531 34.3362 31.5811 34.8002 31.4091 34.7556C31.2651 34.5905 31.2071 34.4489 31.1771 34.3807C30.7171 34.2811 31.3491 35.356 30.8291 35.023C30.6951 34.8553 30.6211 34.7818 30.5711 34.7451C30.7331 34.5564 30.8771 34.4253 30.8951 34.4777C30.5311 34.0006 30.3451 34.0792 29.9411 33.2927C30.1151 33.7803 30.5411 34.7845 30.2511 34.7163C30.2091 34.677 30.1691 34.6403 30.1091 34.5721L30.0811 34.5013C30.0171 34.4908 30.0251 34.5669 30.0631 34.677C29.9651 34.6481 29.8971 34.6219 29.8551 34.6639C29.5411 34.289 29.5511 34.6377 29.4751 34.698C29.8771 35.2118 29.7331 35.2354 30.1371 35.5658C30.0991 35.5422 30.1011 35.4897 30.1251 35.4137C30.1231 35.3875 30.1271 35.3639 30.1111 35.3246C30.1211 35.3403 30.1311 35.3586 30.1411 35.377C30.1691 35.3088 30.2131 35.2275 30.2671 35.141C30.4211 35.4687 30.5391 35.7598 30.2511 35.5579C30.4751 35.9354 30.7031 36.3234 30.8071 36.5122C30.1691 35.8961 29.7071 35.7152 29.3411 35.2983C29.3771 35.8358 29.0451 36.0717 29.6751 37.2043C29.7171 37.401 29.3991 37.0051 29.2631 36.8766C29.2191 36.7377 29.2671 36.7036 29.1771 36.541C29.2611 36.9317 28.9351 37.0523 29.4311 37.7706C29.0611 37.6396 29.0271 37.0418 28.9271 37.3957L28.7931 37.1545C27.5951 36.5384 29.5331 39.6766 28.0591 38.801C28.1531 38.8508 28.1971 38.8718 28.2911 38.9793C27.3591 38.9635 27.7871 40.8014 26.5831 40.416C26.3031 40.3871 26.6231 40.8433 26.7971 41.2785L26.3411 40.7542L26.6991 41.5774C26.8691 42.301 25.321 40.6362 25.7611 41.8475L26.0791 42.183C25.9371 42.225 25.9731 42.7651 25.6571 42.3141C25.7011 42.3954 25.9271 42.7441 25.7431 42.592L25.5171 42.3036L25.6871 43.0849C25.3611 43.0902 24.825 41.8894 24.541 42.1463C24.537 42.377 24.937 43.334 25.119 43.486C25.167 43.452 25.351 43.5463 25.5771 43.8374L25.6111 44.0969C26.2551 44.9804 26.8651 45.9452 27.5271 46.2861L27.2651 45.5756L27.6291 45.9347L27.5311 46.1156C27.8991 46.4224 27.6751 46.0186 27.5411 45.7171C27.7231 45.9243 27.8611 46.0553 27.9511 46.1025L27.4591 45.0984C27.7331 45.4156 27.9091 45.8509 28.1431 45.9138C27.9151 45.4471 27.5031 45.2374 27.4191 44.8467C27.7851 45.1508 28.0091 45.4969 27.8331 45.0591C28.0131 45.2662 28.1051 45.4314 28.1491 45.5677C28.0151 45.2085 28.2491 45.2111 27.9351 44.7051C28.3751 45.0984 28.0751 44.2699 28.6931 45.0958C28.5651 44.8703 28.3271 44.2935 28.3651 44.1729C28.9931 45.3055 28.6491 43.9134 29.4191 45.004C28.8351 44.0104 29.4351 44.2018 29.2171 43.5123C29.2611 43.5935 29.3531 43.7561 29.3051 43.7299C29.4471 43.6879 29.6751 43.9212 29.8571 44.013C29.3151 43.2711 29.3231 42.9276 29.0531 42.3849C29.6951 42.946 29.6391 43.3235 30.1851 43.9527C29.7311 43.3707 29.9211 43.1216 29.5111 42.6785C29.9231 43.0063 29.7411 42.7965 30.2431 43.3445C29.5651 42.4164 30.2011 43.0928 29.8431 42.4452C30.3031 42.7388 30.5231 43.2553 30.4411 42.8096C30.7151 43.0063 30.8451 43.4808 30.8451 43.4808L30.8591 43.4782ZM32.7371 37.8755L32.7451 37.886C32.7271 37.9332 32.7131 37.9725 32.7031 37.9987C32.7111 37.9751 32.7211 37.9411 32.7371 37.8755V37.8755ZM32.9891 37.5294C32.9411 37.5504 32.9011 37.5976 32.8611 37.6553C32.7151 37.4875 32.5831 37.2882 32.6171 37.2646C32.6951 37.4036 32.8351 37.4272 32.9891 37.5294V37.5294ZM29.6871 34.635C29.6711 34.5066 29.7631 34.5931 29.8511 34.6901C29.8391 34.7242 29.8291 34.7714 29.8271 34.8474C29.8411 34.8684 29.8551 34.8946 29.8711 34.9182C29.7991 34.8133 29.7331 34.7137 29.6871 34.635V34.635Z" fill="#F83434"/>
<path d="M30.1357 35.4138C30.1377 35.4322 30.1517 35.4584 30.1477 35.4741C30.1917 35.5082 30.2297 35.5371 30.2617 35.558C30.2237 35.4951 30.1877 35.4348 30.1517 35.3745C30.1457 35.3876 30.1397 35.3981 30.1357 35.4112V35.4138Z" fill="#F83434"/>
<path d="M54.1624 5.46276L54.1484 5.45752C54.1684 5.47325 54.1884 5.48636 54.2164 5.51782C54.1944 5.49685 54.1804 5.48112 54.1624 5.46276Z" fill="#F83434"/>
<path d="M37.3207 33.8459L37.2207 33.7148L37.2847 33.859L37.3207 33.8459Z" fill="#F83434"/>
<path d="M56.9512 5.38428C56.9892 5.42623 57.0312 5.46817 57.0712 5.49439C57.0452 5.46031 56.9992 5.4236 56.9512 5.38428Z" fill="#F83434"/>
<path d="M57.6553 4.69482L57.8833 4.76561C57.7653 4.71055 57.6993 4.69482 57.6553 4.69482Z" fill="#F83434"/>
<path d="M58.3252 4.33331C58.2612 4.23368 58.2112 4.16289 58.1632 4.09735C58.1632 4.09735 58.1632 4.09735 58.1592 4.09473L58.3252 4.33331Z" fill="#F83434"/>
<path d="M51.2732 14.8042C51.2732 14.8042 51.2671 14.8304 51.2732 14.8514C51.3077 15.0087 51.3057 14.93 51.2732 14.8042Z" fill="#F83434"/>
<path d="M52.582 10.6514C52.63 10.7772 52.678 10.9004 52.698 10.9922C52.768 10.9791 52.808 10.9502 52.582 10.6514Z" fill="#F83434"/>
<path d="M49.2527 18.7048C49.2527 18.7048 49.2489 18.6998 49.2469 18.6948C49.2431 18.7023 49.2372 18.7073 49.2314 18.7148L49.2527 18.7048V18.7048Z" fill="#F83434"/>
<path d="M52.5879 11.1207C52.7059 11.1731 52.7239 11.1075 52.6979 10.9922C52.6379 11.0001 52.5599 10.9974 52.5879 11.1207Z" fill="#F83434"/>
<path d="M60.5552 1.88149L60.5952 1.87363C60.5692 1.83954 60.5492 1.81071 60.5332 1.78711L60.5552 1.88149Z" fill="#F83434"/>
<path d="M60.5334 1.78725L60.5111 1.69287C60.4989 1.7086 60.4928 1.72433 60.5334 1.78725Z" fill="#F83434"/>
<path d="M60.4648 1.49121L60.5108 1.69309C60.5308 1.66949 60.5648 1.65638 60.4648 1.49121Z" fill="#F83434"/>
<path d="M59.7451 2.46387L59.8831 2.66312C59.8571 2.61855 59.8131 2.55563 59.7451 2.46387Z" fill="#F83434"/>
<path d="M59.5973 2.7679C59.6753 2.75217 60.0193 3.02221 59.9913 2.82033L59.8833 2.66303C60.0673 2.98288 59.3973 2.39299 59.5973 2.7679Z" fill="#F83434"/>
<path d="M57.0212 1.47295L57.2952 1.41527C57.1132 1.2501 56.8712 1.02725 56.9072 0.885677C56.2472 0.547473 57.2912 1.28156 57.0212 1.47557V1.47295Z" fill="#F83434"/>
<path d="M56.3031 1.82665C56.3171 1.61953 56.0791 1.53564 55.9971 1.41504C56.0831 1.66935 56.1051 1.73489 56.3031 1.82665Z" fill="#F83434"/>
<path d="M52.7309 6.50944L52.3769 6.02441C52.3629 6.1791 52.5169 6.20794 52.7309 6.50944Z" fill="#F83434"/>
<path d="M53.9173 9.85464L54.2053 10.067L53.9053 9.58984L53.9173 9.85464Z" fill="#F83434"/>
<path d="M50.9374 7.00739L50.9131 6.8999L50.9354 7.21713L50.9374 7.00739Z" fill="#F83434"/>
<path d="M45.0647 15.0402L45.5307 15.5986C45.4947 15.4361 45.0047 14.7675 45.0647 15.0402Z" fill="#F83434"/>
<path d="M42.9289 19.0306C42.6789 18.7763 42.4609 18.6846 42.6349 19.0306C42.7229 18.9939 42.9549 19.146 42.9289 19.0306Z" fill="#F83434"/>
<path d="M34.4349 28.2619L34.3369 27.9971L34.3629 28.2907L34.4349 28.2619Z" fill="#F83434"/>
<path d="M89.08 45.68C89.47 45.8 89.89 45.68 90.19 45.5L90.49 44.87L90.37 44.09C90.37 43.49 90.37 42.89 90.37 42.17C90.37 41.48 90.49 40.88 90.58 40.37V39.65C90.49 38.36 90.49 37.04 90.49 35.75C90.37 34.43 90.28 33.23 90.07 31.94C89.89 30.74 89.59 29.54 89.17 28.43C88.69 28.01 88.09 27.71 87.37 27.62C86.68 27.53 85.87 27.53 85.18 27.41C84.46 27.41 83.77 27.32 83.17 27.02C83.26 26.51 83.47 25.91 83.77 25.4C84.07 24.92 84.25 24.32 84.37 23.72C84.46 23.21 84.55 22.61 84.67 22.1C84.76 21.41 84.55 20.69 84.25 20.21C83.95 19.91 83.56 19.7 83.05 19.61C82.57 19.61 82.15 19.49 81.76 19.4L80.68 19.61L80.59 19.79C80.89 20.51 80.98 21.29 80.98 22.19C80.98 23.12 80.98 23.9 81.1 24.71C81.19 25.52 81.34 26.36 81.7 26.99L81.55 27.32L80.26 27.83L78.04 27.62C77.53 27.53 77.23 27.62 76.93 28.01L77.05 28.64C77.05 29.84 76.93 31.04 76.84 32.15C76.63 33.35 76.54 34.55 76.45 35.66C76.33 36.86 76.15 38.06 75.88 40.7C75.76 41.48 75.88 42.2 76.18 42.89C76.39 43.31 76.57 43.7 76.78 44.09C76.99 44.51 77.29 44.81 77.68 45.11C78.19 44.69 78.49 44.21 78.67 43.49C78.88 42.89 79.09 42.29 79.3 41.6C79.39 41 79.54 38.87 79.66 38.15C80.35 37.97 81.04 37.85 81.85 37.76C82.57 37.76 85.57 37.34 86.26 37.25L87.16 37.34C87.37 38.06 87.58 39.98 87.67 40.67L87.58 41.18C87.16 41.57 86.68 41.78 86.08 41.87C85.48 41.96 84.85 42.08 84.37 42.17V42.38L85.06 42.59C85.78 42.98 86.38 43.58 86.86 44.27C87.16 44.69 87.46 44.99 87.88 45.08C88.27 45.29 88.69 45.5 89.08 45.68ZM70.21 42.98L71.62 42.68C72.13 41.96 72.52 41.18 72.82 40.25C73.03 39.47 73.33 38.66 73.63 37.76C73.93 36.95 74.14 36.14 74.44 35.36L74.14 34.43H73.84L71.92 36.65C71.41 37.16 70.93 37.55 70.42 38.06C69.91 38.57 69.31 39.05 68.8 39.56C68.32 40.07 67.72 40.46 67.12 40.76L67.21 41.18C67.6 41.66 68.11 41.96 68.62 42.17C69.1 42.47 69.7 42.68 70.21 42.98ZM87.07 35.06C86.47 35.15 81.64 35.54 81.04 35.66C80.56 35.75 80.14 35.66 79.84 35.36C79.96 34.64 80.14 33.83 80.26 33.14C80.95 33.35 86.77 33.53 86.77 33.53L87.28 34.13C87.37 34.43 87.28 34.76 87.07 35.06ZM71.53 33.05L73.12 32.93L73.24 32.75C73.33 32.24 73.24 31.85 73.03 31.43C72.52 30.92 71.92 30.53 71.41 30.23C70.81 29.93 70.21 29.72 69.52 29.72L67.12 30.02L67.81 31.22C68.32 31.85 68.8 32.33 69.4 32.63C70.03 32.93 70.72 33.14 71.53 33.05ZM86.56 31.55H80.35L80.26 30.44C80.74 30.14 81.25 30.02 81.85 29.93C82.45 29.93 83.05 29.93 83.56 29.84C84.07 29.84 84.46 29.84 84.97 29.84C85.48 29.84 85.87 29.93 86.26 30.14L86.77 31.13L86.56 31.55ZM73.03 28.43H74.02L74.32 28.01L74.02 26.93C73.42 26.33 72.82 25.82 72.13 25.4C71.41 25.01 70.72 24.8 69.82 24.92H68.32L69.4 26.63L73.03 28.43ZM78.94 26.93L79.54 26.81L79.75 26.42L79.66 25.1L79.75 24.62L79.66 22.91L77.14 22.4L76.45 22.52L77.05 23.9C77.35 24.41 77.65 25.01 77.83 25.52C78.04 26.03 78.43 26.51 78.94 26.93ZM86.47 25.82H86.98L87.58 25.1C88.09 25.01 88.48 24.8 88.99 24.5C89.38 24.2 89.89 24.11 90.37 24.02L90.88 22.7L90.67 21.89C90.19 21.59 89.77 21.29 89.29 21.11C88.78 20.9 88.39 20.6 87.97 20.3L87.28 20.39C86.98 21.11 86.77 21.8 86.47 22.52C86.17 23.21 85.87 23.9 85.57 24.62V25.1L86.47 25.82ZM114.31 46.52C115.09 46.64 115.81 46.52 116.23 46.04L115.93 45.32C115.54 44.84 115.03 44.54 114.52 44.24C113.98 43.94 113.35 43.73 112.81 43.52H109.81L109.18 43.61V43.94C109.69 44.24 110.32 44.63 110.83 44.93C111.4 45.32 111.91 45.62 112.54 45.92C113.08 46.22 113.71 46.43 114.31 46.52ZM102.52 46.43C103.12 46.34 103.72 46.22 104.38 46.04C104.92 45.83 105.55 45.62 106.06 45.53C106.6 45.44 106.87 45.14 107.17 44.72L106.78 43.61C106.33 43.31 105.88 43.01 105.37 42.92C104.83 42.83 104.14 42.71 103.6 42.53C102.88 42.41 102.28 42.53 101.77 42.71L100.96 44.33L101.26 45.74L102.52 46.43ZM101.89 42.02C102.79 42.11 103.75 42.02 104.74 41.93C105.58 41.81 109.99 41.45 110.83 41.27L112.69 42.02L112.96 41.93C113.26 41.33 113.47 40.61 113.56 39.92C113.56 39.2 113.68 38.6 113.77 37.91L113.56 33.2C112.99 32.69 112.27 32.48 111.52 32.39C110.77 32.3 109.93 32.3 109.18 32.18C108.43 32.09 104.5 32.09 103.84 32.09C103.12 32.18 102.49 32.18 101.86 32.18C101.17 32.3 100.51 32.3 100 32.39C100.3 33.29 100.42 34.19 100.42 35.09C100.42 35.99 100.42 37.01 100.42 37.91C100.42 38.81 100.42 39.8 100.51 40.73C100.84 41.21 101.23 41.72 101.89 42.02ZM110.83 39.5C110.14 39.62 109.51 39.71 108.88 39.8C108.1 39.92 104.5 40.1 103.84 40.22L102.88 40.01L103.09 39.47C103.87 39.35 104.5 39.32 105.25 39.2C106 39.11 109.72 38.81 110.5 38.72L111.13 39.02L110.83 39.5ZM110.56 37.4L105.01 37.52C104.47 37.61 103.87 37.52 103.27 37.31L103.54 36.71L109.6 36.5L110.65 36.71L110.56 37.4ZM110.44 35.24C109.72 35.24 109.09 35.18 108.43 35.09C107.8 35.03 106.09 35.03 105.46 35.03C104.83 35.03 104.26 34.85 103.66 34.61L103.75 34.16L104.47 33.83C105.25 33.92 106.09 33.92 107.92 33.98C108.64 34.07 109.27 34.16 110.11 34.31L110.44 34.79V35.24ZM115.75 32.99C116.35 33.08 116.86 32.9 117.37 32.6C118.03 32.09 118.54 31.58 118.84 30.89C119.17 30.29 119.35 29.69 119.59 28.97L119.35 27.86C119.08 27.56 118.69 27.38 118.15 27.26C117.64 27.17 116.98 27.17 116.47 27.08C115.72 27.17 114.88 27.17 114.1 27.17C113.23 27.17 112.51 27.26 111.79 27.38C111.34 27.47 110.92 27.38 110.59 27.08L110.92 26.18C111.64 25.88 112.24 25.55 112.78 25.07C113.32 24.65 113.95 24.26 114.52 23.87C115.06 23.57 115.69 23.27 116.23 22.97L115.93 21.95C115.48 21.65 114.88 21.44 114.1 21.44C113.38 21.44 112.84 21.41 111.55 21.32C111.16 21.38 110.56 21.26 110.17 20.96L110.26 19.85L109.66 18.53L107.44 18.83L107.71 20.45L107.56 21.35L105.85 21.65L105.49 20.96C105.28 20.45 104.95 20 103.93 19.7L103.48 19.85L103.75 20.45C103.84 20.96 103.75 21.44 103.48 21.95C101.86 22.16 100.09 21.86 99.58 21.56L99.13 21.77L99.22 23.78C99.82 24.26 100.57 24.56 103.15 24.77L102.7 25.25L100.24 24.86H99.94L99.04 26.48C98.59 27.17 98.41 27.89 98.5 28.79L98.59 29.6L99.28 30.2L100.33 30.08L102.82 30.38L102.25 31.19L102.31 31.7L103.72 31.58C104.23 31.28 104.77 30.98 105.19 30.47C105.7 29.99 106.27 29.69 107.05 29.69L108.19 29.78C108.34 30.29 108.55 30.77 108.64 31.28C109.18 31.37 109.69 31.28 110.08 30.98C110.38 30.47 110.59 29.87 110.83 29.39L114.58 28.46L115.33 28.58L115.18 29.09C114.61 29.39 112.81 30.02 112.21 30.02C112.27 30.5 112.54 31.01 113.08 31.4C113.59 31.82 115.24 32.69 115.75 32.99ZM102.97 28.16L102.82 28.28L101.38 28.13L101.83 26.96L103.42 27.38L102.97 28.16ZM107.86 27.86L106.72 28.16L105.97 27.86L106.33 27.08L107.23 26.66H107.89L108.22 27.08C108.34 27.38 108.19 27.68 107.86 27.86ZM107.71 24.56L107.26 24.65L106.27 24.47L106.45 23.9L107.2 23.87L107.71 24.05V24.56ZM110.77 24.44L109.99 24.29L110.44 23.3L111.28 23.36L110.77 24.44ZM132.4 46.19C133.21 44.99 133.72 43.58 133.9 42.08C134.02 40.58 134.32 39.17 134.83 37.88L135.22 37.97L135.79 38.66C135.28 39.68 134.71 40.7 134.62 41.78C134.53 42.5 134.62 42.98 135.01 43.4L135.61 43.1C136.51 42.2 137.32 41.09 137.92 39.98L139.72 41.48C139.81 43.07 140.02 43.91 140.44 45.41C140.74 45.59 141.13 45.32 141.22 45.08C141.73 43.97 141.61 42.38 141.85 41C142.03 39.29 142.54 33.86 142.54 33.86L146.47 33.17L148.36 33.26C148.75 33.95 148.96 34.76 149.05 35.66L148.96 37.97L147.82 37.16L145.6 35.03C144.88 34.58 144.28 34.55 143.68 34.64L143.47 35.18C144.04 35.93 144.97 36.74 145.24 37.73C145.33 38.63 145.03 39.08 144.55 39.77C144.25 40.37 143.74 41.18 143.23 41.9L143.86 43.19L144.76 42.89L145.84 41.9L147.37 39.71L149.23 41.3L149.35 42.68C148.66 43.49 147.76 43.91 146.77 44V44.3C147.46 44.6 148.06 45.11 148.57 45.71L149.56 45.89L150.97 45.8C151.48 44.69 151.78 43.49 151.96 42.29C152.17 41.09 152.38 39.89 152.68 38.69C152.59 37.46 152.59 36.26 152.47 35.06C152.38 33.95 152.17 32.87 151.78 31.76C150.88 31.25 149.98 30.95 148.96 30.86L142.15 31.34L142.03 29.75C143.56 29.24 144.97 29.39 146.38 28.49L146.35 27.35L145.06 26.99L145.54 25.64C146.47 25.34 147.46 25.04 148.57 24.74C149.56 24.44 150.58 24.23 151.57 24.02L152.38 23.33L152.26 22.73L150.97 22.13L147.97 22.31L147.46 22.13L147.55 21.11L147.25 19.73C146.65 19.31 145.96 19.1 144.94 19.01C145.06 20.33 144.88 21.74 144.37 22.85L140.65 23.03L140.8 21.38L140.5 20.66C139.9 20.36 139.21 20.27 138.49 20.27L137.8 20.48L137.89 21.08C138.01 21.59 137.92 23.12 137.74 23.63L132.01 24.92V25.31C132.52 26.03 133.21 26.42 133.9 26.72C134.62 26.51 135.43 26.42 137.44 26.42L137.59 28.07C137.08 28.46 137.08 29.09 136.6 29.24L137.17 29.93C138.07 30.11 138.82 30.05 139.72 30.35L139.54 31.55L134.41 32.66L133.21 32.45C132.4 32.36 131.71 32.57 131.11 32.96L131.5 33.77L131.29 38.78L131.41 40.19L131.29 40.58C131.41 41.6 131.41 42.59 131.5 43.58C131.5 44.6 131.8 45.5 132.4 46.19ZM127.03 44.99H128.41L128.8 44.3L128.68 43.94C128.98 42.38 129.4 40.85 129.79 39.2C130.09 37.67 130.6 36.23 131.11 34.58L130.99 33.5H130.03L125.32 43.22L125.41 43.82L127.03 44.99ZM139.63 38.99C138.43 37.88 137.5 36.68 136.3 35.57L135.31 35.78L134.62 35.48L134.71 35.06L138.82 34.25L139.54 34.46L139.63 38.99ZM128.65 30.77C129.28 30.65 129.76 30.26 130.18 29.54L130.06 28.97L128.35 28.1C127.45 28.01 126.55 28.1 125.65 28.7L125.74 29.06C126.55 30.17 127.57 30.65 128.65 30.77ZM129.58 24.71C130.18 24.71 130.66 24.44 131.17 24.08L131.08 23.09C130.27 22.1 129.37 21.65 128.26 21.53C127.75 21.38 127.27 21.53 126.76 21.89V22.25C127.45 23.36 128.47 24.2 129.58 24.71ZM142.63 27.53L140.32 27.83L140.02 26.33L143.14 26.03C142.93 26.54 142.75 27.05 142.63 27.53ZM172.93 44.18L173.56 44C173.86 43.19 174.04 42.38 174.1 41.48C174.19 40.58 174.31 39.68 174.4 38.78C174.49 37.88 174.58 37.07 174.67 36.17L174.58 35.06V32.96C174.67 32.45 174.67 32.06 174.67 31.55C174.67 31.04 174.64 29.36 174.49 28.49C174.88 29.81 176.5 32.66 177.49 33.95C178.39 35.27 179.23 36.56 180.1 38C180.88 39.44 181.72 40.64 182.77 43.04C183.1 43.34 183.49 43.55 184 43.64L184.63 43.43C184.9 42.95 185.44 42.71 186.07 40.67C186.13 40.19 186.34 39.68 186.4 39.17L186.67 36.26L186.58 35.75L186.79 29.48L186.67 28.88C186.79 28.37 186.88 27.77 186.88 27.08C186.88 26.48 186.97 25.88 187.24 25.37C187.45 24.86 187.42 23.9 187.21 23.39L186.46 21.95L185.38 21.44C185.38 21.44 184.63 21.41 184 21.62C183.49 21.71 183.1 22.01 182.71 22.43L182.77 22.91L183.1 24.17L183.22 28.67L183.16 34.85L183.01 37.79C182.53 35.96 181.96 35.15 181.36 33.98C180.61 32.78 179.92 31.58 179.29 30.29C178.63 29.09 177.64 26.9 177.19 25.61C176.44 23.6 176.11 23.36 175.72 22.7C175.15 22.25 174.76 22.1 174.37 21.8L173.89 21.86C173.47 21.86 173.08 21.89 172.6 21.8C172.15 21.8 171.76 21.59 171.19 21.5C171.19 21.5 170.95 22.04 170.83 22.55L170.77 24.35L170.74 27.11V36.17C170.86 36.86 170.86 37.46 170.95 38.18C170.95 38.87 170.95 39.47 171.04 40.19C171.16 40.88 171.22 41.48 171.43 42.08C171.61 42.47 171.76 42.89 171.97 43.28C172.15 43.7 172.48 44 172.93 44.18ZM199.882 43.79H200.422C200.842 43.07 201.052 42.29 201.052 41.39C200.932 40.49 201.052 39.68 201.262 38.78C201.322 37.97 201.412 37.16 201.502 36.26L201.412 35.27L201.322 28.04C201.322 27.53 201.322 27.14 201.322 26.63C201.322 26.12 201.382 25.73 201.682 25.43C202.192 25.25 202.732 25.01 203.812 24.95C204.682 24.95 206.212 24.02 207.112 24.02L207.892 23.33L207.652 22.52C207.112 22.01 206.332 21.71 205.582 21.71H199.402C198.112 21.71 196.402 21.86 194.962 22.01C194.062 22.01 192.112 22.04 191.182 21.62L190.492 21.8L190.222 22.61C190.162 23.12 190.342 23.63 190.642 24.02C191.032 24.53 191.362 25.16 191.902 25.46C192.442 25.76 193.252 25.7 193.852 25.61C194.812 25.55 196.282 25.52 196.702 25.43L197.182 25.64C197.392 26.12 197.542 26.63 197.542 27.23C197.392 27.92 197.392 28.55 197.542 29.03L197.392 33.14C197.542 33.74 197.542 34.37 197.542 35.06C197.542 35.75 197.632 36.35 197.722 36.95L197.632 37.97C197.722 38.66 197.812 39.47 197.902 40.19C197.992 40.88 198.172 41.57 198.682 42.08C199.162 42.68 199.342 43.28 199.882 43.79ZM235.228 43.67C235.978 43.67 236.848 43.58 237.568 43.49C238.348 43.37 239.038 43.28 239.938 42.95L241.138 41.54L240.898 41.12L239.158 40.55L238.768 40.64C238.048 40.64 237.388 40.64 236.638 40.64C235.858 40.64 235.228 40.64 234.568 40.55C233.818 40.55 233.038 40.43 232.858 40.07C233.158 39.44 234.268 38.24 235.198 37.49C236.548 36.38 237.718 35.39 238.138 34.67C238.588 34.04 238.918 33.29 239.098 32.6C239.218 32.09 239.098 31.58 239.038 31.04C238.918 30.65 238.798 30.23 238.678 29.81C238.378 29.36 238.078 28.85 237.838 28.34C237.208 26.99 236.308 26.3 235.798 25.85C234.898 25.31 234.598 24.56 233.518 23.9C232.618 23.36 231.628 22.67 230.668 22.49C229.768 22.25 228.808 21.95 227.758 21.62L226.978 21.8L227.578 23.36C227.878 23.78 228.328 24.05 228.628 24.17C228.988 24.38 230.668 25.1 231.508 25.85C232.198 26.42 233.068 27.08 233.698 27.71C234.268 28.37 234.808 29 235.138 29.99C235.138 30.62 234.988 31.16 234.778 31.7C234.508 32.3 234.268 33.05 234.028 33.56C233.518 34.61 232.828 35.18 232.078 35.96C231.328 36.8 230.128 37.79 229.288 38.21C228.358 38.63 227.488 38.99 226.288 39.29L226.078 40.55C226.078 40.55 226.018 41.99 226.558 42.59C227.218 43.04 227.878 43.28 228.688 43.28C229.438 43.37 230.068 43.4 230.818 43.49C231.988 43.64 234.478 43.79 235.228 43.67ZM244.546 46.49C245.056 46.61 245.476 46.43 245.836 46.22C246.166 46.01 246.526 45.8 246.916 45.44C247.336 45.05 247.666 44.63 247.966 44.21C248.236 43.82 248.446 43.34 248.626 42.83C248.536 42.5 248.506 42.05 248.296 41.66C248.296 41.66 247.756 41.18 247.606 40.85L246.166 40.31C245.686 40.31 245.176 40.43 244.756 40.64L244.126 41.27C244.036 41.75 244.126 42.14 244.456 42.41C244.756 42.77 244.966 43.16 245.176 43.46C245.086 43.94 244.966 44.3 244.666 44.63C244.396 45.02 244.186 45.44 244.006 45.86V46.16L244.546 46.49ZM257.326 44.09C258.166 44.09 258.886 43.79 259.606 43.28C260.236 42.77 260.836 42.29 261.466 41.78C262.306 40.67 263.146 39.56 263.836 38.48C264.586 37.37 265.006 36.17 265.096 34.76C265.126 33.59 265.456 32.51 265.606 30.83C265.786 29.15 265.576 27.65 265.606 27.02L265.396 25.52C265.006 25.01 264.676 24.53 264.376 23.93C264.076 23.42 263.626 22.91 263.146 22.61C262.366 22.19 260.146 21.71 259.606 21.8C258.976 21.74 258.466 22.01 257.836 22.01C257.326 22.31 256.696 22.73 256.216 23.03C255.586 23.42 255.046 23.81 254.626 24.32C254.116 24.83 253.696 25.34 253.396 25.94L254.026 26.75C253.906 27.44 253.096 29.6 252.916 30.89C252.826 31.58 252.676 32.45 252.466 33.14C252.376 34.37 252.466 35.45 252.766 36.56C252.976 37.67 253.276 38.66 253.696 39.68C254.116 40.79 254.626 41.78 255.286 42.68C255.886 43.4 256.606 43.79 257.326 44.09ZM258.226 41.27C257.386 41.3 257.086 40.97 257.086 40.97C256.786 40.49 256.456 39.89 256.276 39.26C256.036 38.78 255.826 38.18 255.526 37.58C255.196 37.04 255.106 36.47 254.986 35.84C254.896 34.58 254.986 33.32 255.196 32.12C255.316 30.95 255.646 29.75 256.036 28.64C256.366 27.59 256.876 26.84 257.506 25.82C258.136 25.94 258.796 25.7 259.426 25.85C259.966 26.03 260.476 26.33 261.016 26.63C261.436 27.11 261.736 27.56 261.976 28.16C262.366 29.15 262.516 31.25 262.516 31.85C262.396 32.96 262.276 34.04 261.976 35.06C261.646 36.17 261.346 37.16 261.016 38.18C260.686 39.14 260.266 40.1 258.226 41.27ZM275.314 44.09C276.154 44.09 276.874 43.79 277.594 43.28C278.224 42.77 278.824 42.29 279.454 41.78C280.294 40.67 281.134 39.56 281.824 38.48C282.574 37.37 282.994 36.17 283.084 34.76C283.114 33.59 283.444 32.51 283.594 30.83C283.774 29.15 283.564 27.65 283.594 27.02L283.384 25.52C282.994 25.01 282.664 24.53 282.364 23.93C282.064 23.42 281.614 22.91 281.134 22.61C280.354 22.19 278.134 21.71 277.594 21.8C276.964 21.74 276.454 22.01 275.824 22.01C275.314 22.31 274.684 22.73 274.204 23.03C273.574 23.42 273.034 23.81 272.614 24.32C272.104 24.83 271.684 25.34 271.384 25.94L272.014 26.75C271.894 27.44 271.084 29.6 270.904 30.89C270.814 31.58 270.664 32.45 270.454 33.14C270.364 34.37 270.454 35.45 270.754 36.56C270.964 37.67 271.264 38.66 271.684 39.68C272.104 40.79 272.614 41.78 273.274 42.68C273.874 43.4 274.594 43.79 275.314 44.09ZM276.214 41.27C275.374 41.3 275.074 40.97 275.074 40.97C274.774 40.49 274.444 39.89 274.264 39.26C274.024 38.78 273.814 38.18 273.514 37.58C273.184 37.04 273.094 36.47 272.974 35.84C272.884 34.58 272.974 33.32 273.184 32.12C273.304 30.95 273.634 29.75 274.024 28.64C274.354 27.59 274.864 26.84 275.494 25.82C276.124 25.94 276.784 25.7 277.414 25.85C277.954 26.03 278.464 26.33 279.004 26.63C279.424 27.11 279.724 27.56 279.964 28.16C280.354 29.15 280.504 31.25 280.504 31.85C280.384 32.96 280.264 34.04 279.964 35.06C279.634 36.17 279.334 37.16 279.004 38.18C278.674 39.14 278.254 40.1 276.214 41.27ZM293.302 44.09C294.142 44.09 294.862 43.79 295.582 43.28C296.212 42.77 296.812 42.29 297.442 41.78C298.282 40.67 299.122 39.56 299.812 38.48C300.562 37.37 300.982 36.17 301.072 34.76C301.102 33.59 301.432 32.51 301.582 30.83C301.762 29.15 301.552 27.65 301.582 27.02L301.372 25.52C300.982 25.01 300.652 24.53 300.352 23.93C300.052 23.42 299.602 22.91 299.122 22.61C298.342 22.19 296.122 21.71 295.582 21.8C294.952 21.74 294.442 22.01 293.812 22.01C293.302 22.31 292.672 22.73 292.192 23.03C291.562 23.42 291.022 23.81 290.602 24.32C290.092 24.83 289.672 25.34 289.372 25.94L290.002 26.75C289.882 27.44 289.072 29.6 288.892 30.89C288.802 31.58 288.652 32.45 288.442 33.14C288.352 34.37 288.442 35.45 288.742 36.56C288.952 37.67 289.252 38.66 289.672 39.68C290.092 40.79 290.602 41.78 291.262 42.68C291.862 43.4 292.582 43.79 293.302 44.09ZM294.202 41.27C293.362 41.3 293.062 40.97 293.062 40.97C292.762 40.49 292.432 39.89 292.252 39.26C292.012 38.78 291.802 38.18 291.502 37.58C291.172 37.04 291.082 36.47 290.962 35.84C290.872 34.58 290.962 33.32 291.172 32.12C291.292 30.95 291.622 29.75 292.012 28.64C292.342 27.59 292.852 26.84 293.482 25.82C294.112 25.94 294.772 25.7 295.402 25.85C295.942 26.03 296.452 26.33 296.992 26.63C297.412 27.11 297.712 27.56 297.952 28.16C298.342 29.15 298.492 31.25 298.492 31.85C298.372 32.96 298.252 34.04 297.952 35.06C297.622 36.17 297.322 37.16 296.992 38.18C296.662 39.14 296.242 40.1 294.202 41.27ZM87.07 89.05C87.76 89.14 88.48 89.14 89.17 89.05C89.89 88.96 90.49 88.75 90.97 88.45L91.39 87.43C90.97 85.63 90.88 84.82 90.88 84.04C90.79 83.32 90.01 81.88 89.92 81.16L89.2 80.47C88.9 81.16 87.88 83.02 87.58 83.83C87.28 84.64 86.98 85.45 86.77 85.87L86.08 86.17L81.85 85.78L81.16 85.33C81.25 84.64 81.34 84.04 81.46 83.32C81.55 82.72 81.64 82.12 81.76 81.43C81.85 80.71 81.94 80.11 82.15 79.51C82.66 79.21 83.17 79.12 83.65 79C84.16 79 84.55 78.82 84.97 78.4C85.27 77.92 85.57 77.41 85.87 76.9C86.17 76.42 86.38 75.91 86.47 75.31C86.56 74.71 86.77 74.2 87.28 73.81L87.07 73.09C86.47 72.7 85.87 72.4 85.15 72.19C84.46 71.98 83.65 71.8 82.06 71.68C82.45 71.2 82.84 70.6 83.26 70.09C83.56 69.58 83.86 68.98 84.07 68.38L83.86 67.87C82.96 67.18 81.94 66.76 80.86 66.67C79.75 66.67 78.64 66.37 77.74 65.86C76.84 65.38 75.94 64.78 75.04 64.06L73.63 64.48C73.51 65.17 73.21 65.86 72.82 66.46C72.43 67.09 72.13 67.69 71.92 68.38C72.01 68.89 72.01 69.28 72.01 69.79C71.92 70.3 72.13 70.69 72.43 70.99L74.44 70.48L75.22 69.67C75.73 69.19 76.24 68.77 76.84 68.68L79.63 68.38L79.75 68.68L78.25 71.29C77.74 72.1 77.05 72.49 76.24 72.58C75.43 72.7 70.09 72.34 69.49 72.34H68.68C69.19 73.27 69.58 74.17 69.79 75.16C69.97 76.18 70.18 77.17 70.39 78.16C70.48 79.18 71.08 79.87 72.64 80.35C72.25 81.25 71.53 82.63 71.02 83.53C70.51 84.43 70 85.24 69.4 86.05C68.71 86.83 68.02 87.64 67.3 88.36V88.66L67.69 88.96C68.41 88.84 69.22 88.66 69.91 88.45C70.6 88.24 71.23 88.03 71.92 87.73C72.61 87.43 73.33 86.95 73.93 86.35C74.53 85.75 75.07 84.88 75.7 84.16C76.33 83.44 76.63 82.33 77.2 80.53L78.13 80.83L77.83 82.93C77.95 83.74 78.25 84.43 78.55 85.15C78.85 85.84 79.24 86.53 79.63 87.25C80.35 87.85 81.04 88.15 81.94 88.24C82.84 88.36 83.65 88.54 84.55 88.66C85.36 88.75 86.17 88.96 87.07 89.05ZM76.3 77.62C75.79 77.83 75.19 77.92 74.59 77.92L73.63 77.83C73.54 77.41 73.09 74.59 73.09 74.59L73.57 74.11L74.62 74.2L75.34 74.11C75.94 73.99 76.42 74.2 76.84 74.71C76.84 75.31 76.84 75.91 76.84 76.42C76.72 77.02 76.3 77.62 76.3 77.62ZM82.24 77.32L81.34 77.5C80.65 77.62 79.93 77.5 79.45 77.2L79.84 75.7C79.93 75.19 79.84 74.8 79.63 74.5V73.99L80.26 73.81L82.66 73.9L82.75 74.2C82.75 76.42 82.54 76.9 82.24 77.32ZM110.95 89.26C112.15 89.35 113.26 89.35 114.4 89.05C115.51 88.75 116.5 88.45 117.52 88.15C118.51 87.85 119.5 87.46 120.52 87.04C121.03 86.83 121.42 86.53 121.93 86.14C122.41 85.72 122.86 85.3 123.16 84.91L123.07 84.34L122.8 84.22C121.75 84.73 120.7 85.03 119.59 85.12C118.48 85.33 117.37 85.51 116.26 85.72C115.18 85.93 113.95 86.11 113.32 86.47C112.84 86.56 112.36 86.47 112 86.2L112.33 82.99C112.78 82.72 115.06 82.42 115.66 82.33C116.26 82.33 116.89 82.24 117.4 82.12L118.24 81.4V80.92C117.7 80.41 116.98 80.2 116.08 80.29L113.77 80.41C113.26 80.5 112.78 80.41 112.42 80.14L112.63 79.33L116.32 78.76C116.86 78.16 117.01 76.96 117.13 76.36C117.22 75.76 117.31 75.16 117.43 74.44L117.13 72.82C116.59 72.4 116.05 72.19 115.36 72.19C114.67 72.19 113.05 71.98 112.51 71.86L112.69 70.57C113.8 70.42 114.7 69.88 115.24 69.37C115.12 68.89 114.91 68.56 114.46 68.47L112.15 68.23L111.97 66.7L115.81 66.34C116.32 66.22 116.59 66.34 116.86 66.7C116.77 67.39 116.56 67.99 116.47 68.59C116.26 69.16 116.05 69.76 115.75 70.39L116.08 71.14L116.77 71.05C117.46 70.66 118 70.12 118.39 69.4C118.69 68.71 119.2 68.11 119.65 67.51C120.19 67 120.61 66.4 120.91 65.71C121 65.17 120.79 64.63 120.46 64.3C119.77 63.82 119.02 63.61 118.12 63.7C117.04 63.61 112.45 63.76 111.37 63.85C110.26 64.06 109.15 64.15 108.04 64.24C107.56 64.24 105.79 64.15 104.95 64.06L103.51 64.27L103 65.83C103.3 66.46 103.39 67.03 103.39 67.75C103.3 68.44 103.3 69.13 103.39 69.85C103.39 70.33 103.6 70.96 104.53 71.38L105.07 71.17C105.49 70.66 105.7 70.24 105.79 69.52C105.79 68.92 105.82 67.93 106 67.36C106.27 67.09 108.04 66.97 108.55 66.88L109.6 66.97L109.78 67.87L107.62 67.99L106.87 68.11V69.16C106.96 69.7 107.29 70.03 107.83 70.33C107.83 70.33 109.45 70.21 109.93 70.51C110.02 71.08 109.9 71.8 109.63 72.19L106.03 71.98L105.25 72.07L105.07 73.63C105.37 74.38 106 77.38 106.18 78.07C106.51 78.7 106.93 79.12 107.44 79.42H109.21L109.6 79.96L109.48 80.62C109.03 80.89 108.46 81.01 107.86 81.01C107.14 81.1 104.83 81.19 104.14 81.28L104.08 81.91C104.68 82.78 106.9 82.93 107.5 82.93C108.1 82.93 108.85 82.84 109.42 83.02C109.69 83.29 109.99 85.09 110.08 85.48L109.9 86.23C108.85 86.32 107.86 86.23 106.93 86.02C105.94 85.93 104.98 85.72 104.05 85.42C103.15 85.12 102.25 84.73 101.5 84.25L101.77 83.59C101.77 82.63 100.54 81.4 100.39 80.35C100.72 79.69 101.56 79.09 101.56 79.09L102.19 78.04L102.07 77.02L96.49 76.6C96.49 76.6 95.92 76.84 95.95 77.35C95.86 77.8 96.67 78.31 96.67 78.31L98.44 79.09C98.44 79.09 98.23 80.32 97.93 81.16L98.17 82.18C97.69 82.66 97.39 83.02 96.88 83.32C96.37 83.71 95.89 84.01 95.35 84.25V84.61C96.97 85.33 98.68 86.05 100.39 86.74C102.1 87.46 103.81 87.94 105.52 88.45C107.23 88.96 109.06 89.14 110.95 89.26ZM109.39 77.38L108.94 77.5L108.28 77.44C108.19 77.2 108.34 76.51 108.34 76.51L109.63 76.63L109.39 77.38ZM114.7 77.32C113.05 77.32 112.78 77.2 112.51 77.05V76.69C113.26 76.33 114.52 76.63 114.7 76.9V77.32ZM109.57 75.4L108.1 75.37L108.13 74.41L109.72 74.38L109.57 75.4ZM114.73 75.37C113.17 75.37 112.9 75.28 112.63 74.89L112.69 74.23L114.55 74.38L114.91 75.04L114.73 75.37ZM100.66 75.25L101.41 74.83C101.92 74.5 102.13 74.11 102.22 73.42L102.82 72.67L102.64 71.95C102.19 71.62 101.77 71.5 101.26 71.5C100.45 71.62 99.67 71.71 98.86 71.71C98.05 71.71 97.21 71.92 96.49 72.25L96.7 73C97.21 73.75 97.93 74.14 98.62 74.35C99.34 74.65 99.94 74.95 100.66 75.25ZM144.31 90.52C145.09 90.64 145.81 90.52 146.23 90.04L145.93 89.32C145.54 88.84 145.03 88.54 144.52 88.24C143.98 87.94 143.35 87.73 142.81 87.52H139.81L139.18 87.61V87.94C139.69 88.24 140.32 88.63 140.83 88.93C141.4 89.32 141.91 89.62 142.54 89.92C143.08 90.22 143.71 90.43 144.31 90.52ZM132.52 90.43C133.12 90.34 133.72 90.22 134.38 90.04C134.92 89.83 135.55 89.62 136.06 89.53C136.6 89.44 136.87 89.14 137.17 88.72L136.78 87.61C136.33 87.31 135.88 87.01 135.37 86.92C134.83 86.83 134.14 86.71 133.6 86.53C132.88 86.41 132.28 86.53 131.77 86.71L130.96 88.33L131.26 89.74L132.52 90.43ZM131.89 86.02C132.79 86.11 133.75 86.02 134.74 85.93C135.58 85.81 139.99 85.45 140.83 85.27L142.69 86.02L142.96 85.93C143.26 85.33 143.47 84.61 143.56 83.92C143.56 83.2 143.68 82.6 143.77 81.91L143.56 77.2C142.99 76.69 142.27 76.48 141.52 76.39C140.77 76.3 139.93 76.3 139.18 76.18C138.43 76.09 134.5 76.09 133.84 76.09C133.12 76.18 132.49 76.18 131.86 76.18C131.17 76.3 130.51 76.3 130 76.39C130.3 77.29 130.42 78.19 130.42 79.09C130.42 79.99 130.42 81.01 130.42 81.91C130.42 82.81 130.42 83.8 130.51 84.73C130.84 85.21 131.23 85.72 131.89 86.02ZM140.83 83.5C140.14 83.62 139.51 83.71 138.88 83.8C138.1 83.92 134.5 84.1 133.84 84.22L132.88 84.01L133.09 83.47C133.87 83.35 134.5 83.32 135.25 83.2C136 83.11 139.72 82.81 140.5 82.72L141.13 83.02L140.83 83.5ZM140.56 81.4L135.01 81.52C134.47 81.61 133.87 81.52 133.27 81.31L133.54 80.71L139.6 80.5L140.65 80.71L140.56 81.4ZM140.44 79.24C139.72 79.24 139.09 79.18 138.43 79.09C137.8 79.03 136.09 79.03 135.46 79.03C134.83 79.03 134.26 78.85 133.66 78.61L133.75 78.16L134.47 77.83C135.25 77.92 136.09 77.92 137.92 77.98C138.64 78.07 139.27 78.16 140.11 78.31L140.44 78.79V79.24ZM145.75 76.99C146.35 77.08 146.86 76.9 147.37 76.6C148.03 76.09 148.54 75.58 148.84 74.89C149.17 74.29 149.35 73.69 149.59 72.97L149.35 71.86C149.08 71.56 148.69 71.38 148.15 71.26C147.64 71.17 146.98 71.17 146.47 71.08C145.72 71.17 144.88 71.17 144.1 71.17C143.23 71.17 142.51 71.26 141.79 71.38C141.34 71.47 140.92 71.38 140.59 71.08L140.92 70.18C141.64 69.88 142.24 69.55 142.78 69.07C143.32 68.65 143.95 68.26 144.52 67.87C145.06 67.57 145.69 67.27 146.23 66.97L145.93 65.95C145.48 65.65 144.88 65.44 144.1 65.44C143.38 65.44 142.84 65.41 141.55 65.32C141.16 65.38 140.56 65.26 140.17 64.96L140.26 63.85L139.66 62.53L137.44 62.83L137.71 64.45L137.56 65.35L135.85 65.65L135.49 64.96C135.28 64.45 134.95 64 133.93 63.7L133.48 63.85L133.75 64.45C133.84 64.96 133.75 65.44 133.48 65.95C131.86 66.16 130.09 65.86 129.58 65.56L129.13 65.77L129.22 67.78C129.82 68.26 130.57 68.56 133.15 68.77L132.7 69.25L130.24 68.86H129.94L129.04 70.48C128.59 71.17 128.41 71.89 128.5 72.79L128.59 73.6L129.28 74.2L130.33 74.08L132.82 74.38L132.25 75.19L132.31 75.7L133.72 75.58C134.23 75.28 134.77 74.98 135.19 74.47C135.7 73.99 136.27 73.69 137.05 73.69L138.19 73.78C138.34 74.29 138.55 74.77 138.64 75.28C139.18 75.37 139.69 75.28 140.08 74.98C140.38 74.47 140.59 73.87 140.83 73.39L144.58 72.46L145.33 72.58L145.18 73.09C144.61 73.39 142.81 74.02 142.21 74.02C142.27 74.5 142.54 75.01 143.08 75.4C143.59 75.82 145.24 76.69 145.75 76.99ZM132.97 72.16L132.82 72.28L131.38 72.13L131.83 70.96L133.42 71.38L132.97 72.16ZM137.86 71.86L136.72 72.16L135.97 71.86L136.33 71.08L137.23 70.66H137.89L138.22 71.08C138.34 71.38 138.19 71.68 137.86 71.86ZM137.71 68.56L137.26 68.65L136.27 68.47L136.45 67.9L137.2 67.87L137.71 68.05V68.56ZM140.77 68.44L139.99 68.29L140.44 67.3L141.28 67.36L140.77 68.44Z" fill="#757575"/>
</svg>
