<svg width="125" height="31" viewBox="0 0 125 31" fill="none" xmlns="http://www.w3.org/2000/svg">
<path d="M22.824 28.8C24.52 28.704 25.064 27.936 25.48 27.232L25.352 26.784C24.392 26.144 23.592 25.472 22.472 25.408C21.192 25.536 20.232 25.056 18.856 25.12C17.608 25.184 16.264 25.216 15.272 24.832L15.784 21.184C16.424 21.056 17.064 20.96 19.112 20.864C19.752 20.864 20.392 20.704 21.032 20.608C21.032 20.608 22.056 20.192 21.992 19.52L21.896 18.88C21.352 18.56 20.712 18.24 20.072 18.176C19.272 18.08 17.352 17.952 16.712 17.76L15.976 17.088L16.104 14.368L19.272 14.496L21.864 14.24C22.376 14.112 22.696 13.792 22.888 13.28C23.016 12.48 22.248 12 22.248 12C21.512 11.456 20.648 11.232 19.784 11.168C18.824 11.04 16.68 10.944 15.848 10.624L15.304 10.112C15.4 9.152 15.368 8.32 15.496 7.296C15.592 6.464 15.912 5.696 16.456 4.96L16.232 4.32C15.88 3.776 15.464 3.456 14.92 3.264C14.376 3.168 13.832 3.072 13.32 3.072C12.328 2.944 11.464 3.168 10.92 3.808L11.048 4.672L10.888 10.112L10.344 10.592C9.192 10.56 7.464 10.464 7.144 10.144C7.464 9.632 7.688 8.992 7.752 8.224C7.88 7.584 8.744 5.024 8.936 4.384C9.288 3.424 8.456 2.72 7.4 2.656L5.384 3.2L4.744 3.136L4.2 3.232L4.456 4.288C4.232 5.696 3.912 6.848 3.368 8.256C2.856 9.664 2.44 10.944 1.928 12.128C1.384 13.408 0.872 14.688 0.552 16.064C0.552 16.736 0.552 17.376 0.648 17.92C0.776 18.56 0.904 19.104 1.224 19.648L2.088 20.384C3.048 20.224 3.368 18.88 3.56 18.144C3.656 17.376 3.976 16.64 4.52 15.872C4.936 15.232 5.064 14.464 6.312 13.152L10.568 13.44L11.016 14.848L10.792 17.44C10.28 17.568 9.224 17.664 8.68 17.792C8.136 17.888 7.432 17.856 6.888 18.08L6.024 18.208C5.576 18.112 5.256 18.336 5.16 18.688L5.416 19.296C5.736 19.808 6.92 20.608 8.52 20.768L10.952 20.736L11.144 22.24L10.984 24.704C10.44 25.056 9.384 25.184 8.744 25.056C7.56 25.024 5.16 25.152 3.4 25.312C2.856 25.408 2.44 25.312 2.12 24.992L1.352 25.312C1.48 26.176 1.672 26.912 2.12 27.552L3.752 28.384L5 28.288C5.8 28.352 6.632 28.448 7.496 28.448C8.232 28.448 9.096 28.448 9.96 28.448C10.696 28.416 11.464 28.544 12.776 28.64C13.832 28.64 14.92 28.64 15.976 28.704C16.936 28.832 18.792 28.512 19.752 28.64C20.712 28.8 21.672 29.024 22.824 28.8ZM57.608 30.176C57.608 30.176 58.248 30.4 58.408 29.728C58.504 29.504 58.28 28.96 58.28 28.96C57.928 28.224 57.352 27.584 56.744 27.04C56.04 26.496 55.336 26.08 54.504 25.536C53.608 25.12 52.872 24.576 51.944 24.064L52.776 23.104C53.96 21.76 54.12 21.824 54.408 21.504L54.792 20.544C54.792 19.904 53.768 19.136 53.16 18.976L50.728 19.776L49.352 20.896L48.456 21.696C47.432 21.472 46.664 21.152 45.992 20.608C45.416 20.096 44.712 19.776 44.072 19.456C43.304 19.456 42.664 19.648 42.152 19.968C42.28 20.736 42.76 21.28 43.336 21.696C43.944 22.24 44.584 22.752 45.16 23.616L40.968 24.96H39.848C39.848 24.96 39.976 23.136 39.88 22.592C39.752 22.048 39.912 18.496 40.296 18.016C41.16 18.016 41.672 17.952 42.568 17.952C43.304 17.952 44.04 18.048 44.776 18.176L54.984 17.856C55.368 17.728 55.656 17.408 55.912 16.992L55.592 15.904C54.824 15.072 53.832 14.624 52.584 14.624C50.376 14.624 49.096 14.528 47.784 14.432C40.776 14.304 40.264 14.368 39.528 14.048C39.528 14.048 39.688 13.312 39.976 13.088L42.696 13.344C46.76 13.376 47.496 13.376 48.392 13.376C49.032 13.376 49.576 13.152 50.12 12.832L50.6 12.192L50.44 11.552C49.896 11.232 49.16 11.136 48.36 11.008C47.496 11.008 46.632 11.008 42.376 10.976C41.544 10.976 40.808 10.816 39.88 10.496L40.328 9.696L46.12 10.016C46.856 10.144 47.496 10.144 48.264 10.016C49 9.92 49.704 9.92 50.408 9.824C51.016 9.696 51.624 9.504 52.104 9.184L52.36 8.544L52.232 7.872C51.528 7.552 50.6 7.36 49.48 7.232C48.424 7.136 47.432 7.136 46.376 7.136C42.568 7.136 41.448 7.136 40.104 7.04L39.88 6.048C40.648 5.728 45.576 5.376 46.152 5.248L52.744 5.376C53.32 5.472 54.12 5.536 54.28 5.152L54.568 4.608L53.768 3.264C53.288 2.848 52.744 2.528 52.04 2.4C51.208 2.304 50.44 2.208 49.704 2.08C49 1.984 48.264 1.984 47.496 1.856L40.936 1.984L38.664 1.76L37.288 1.984L37.064 4.384L37.48 5.248L36.648 14.496L33.096 14.752C33.096 14.752 31.656 14.784 31.592 15.712C31.528 16.416 32.552 17.184 32.552 17.184C33.128 17.632 33.768 17.856 34.536 17.728C35.464 17.632 35.848 17.792 36.776 18.016L36.712 25.76L37.064 27.68C37.416 28.448 38.088 29.184 38.856 29.728H39.912C40.68 29.408 41.48 28.864 42.056 28.224C42.696 27.584 43.144 26.944 43.624 26.304C44.136 25.664 44.776 25.024 45.704 24.48C47.176 25.12 48.456 25.856 49.8 26.624C51.016 27.488 52.328 28.224 53.672 28.864C54.984 29.6 56.072 30.048 57.608 30.176Z" fill="#2D2D2D"/>
<path d="M77.384 30.976L78.152 30.656C78.536 30.176 78.76 29.728 78.856 29.12C78.856 28.608 78.984 28.16 79.112 27.648L78.984 27.008L79.112 26.24L78.856 24.96C78.984 24.416 79.112 24 79.24 23.648C80.232 24.128 81.256 24.864 82.312 25.632C83.304 26.368 84.328 27.136 85.352 27.648C86.344 28.288 87.56 28.736 88.776 28.832C89.352 28.832 89.832 28.832 90.344 28.736C90.952 28.608 91.4 28.512 91.976 28.352L91.72 27.68L88.296 26.016C87.688 25.696 86.984 25.248 86.44 24.928C85.832 24.608 85.288 24.16 84.808 23.68C85.064 23.2 85.48 22.72 86.088 22.4C86.632 22.08 87.08 21.696 87.432 21.28L87.336 20.288L85.096 19.2L82.824 22.272C81.832 22.144 81.032 21.824 80.392 21.248V21.056L81.384 20L81.16 19.168L81.416 18.56C82.344 18.336 83.176 18.144 84.104 18.016C85.032 17.92 85.992 17.696 86.92 17.312L87.432 13.824L86.952 12.416C86.312 12.192 85.704 12.096 85.128 12C84.424 11.872 81.384 12.096 80.552 12.32C79.784 12.512 78.824 12.64 78.056 12.736C77.128 12.832 76.296 12.96 75.336 13.216L75.72 14.048L75.592 15.328C75.72 16.064 75.336 16.768 75.784 17.504C75.816 18.08 76.456 18.336 76.552 18.848C76.2 19.648 75.688 20.416 75.112 21.152C74.408 21.888 73.736 22.656 73.032 23.392C72.36 24.16 71.944 24.896 71.816 25.92C71.944 26.688 72.168 27.392 72.616 27.968H73.32L75.144 26.464L75.464 26.528C75.464 27.424 75.592 28.288 75.848 29.088C76.2 29.856 76.68 30.368 77.384 30.976ZM86.024 11.328C86.92 11.2 87.88 11.2 88.776 11.104C89.576 11.104 90.408 10.88 91.24 10.496L91.144 9.824C90.408 9.344 89.576 9.12 88.776 9.12L86.92 9.024L86.024 9.12L85.672 9.024C82.504 9.248 81.224 9.344 79.88 9.344C78.472 9.344 77.224 9.44 75.912 9.76C74.664 10.08 73.544 10.528 72.36 11.008V11.36L74.6 12.384C75.496 12.16 76.424 11.968 77.32 11.84C78.248 11.744 79.176 11.744 80.2 11.648H81.928C82.376 11.52 85.128 11.424 86.024 11.328ZM63.784 23.232C64.392 23.36 65 23.232 65.416 23.04C65.864 22.816 66.28 22.592 66.824 22.496C67.56 22.176 68.296 21.76 69.064 21.312C69.8 20.896 70.568 20.448 71.304 20.032C72.04 19.616 72.712 19.008 73.288 18.368L73.192 17.696L71.784 17.088C71.24 17.088 70.632 17.312 69.768 17.568L69.672 14.528L71.784 12.704C71.912 12.032 71.688 11.392 71.208 11.296L69.672 11.392C69.672 10.912 69.672 10.496 69.672 9.952C69.544 9.408 69.672 9.056 69.928 8.736C70.248 8.48 70.6 8.256 71.144 8.384C71.72 8.064 72.744 7.488 72.456 6.368C72.36 5.984 71.464 5.664 71.464 5.664L69.608 5.92C68.936 6.048 66.056 6.496 65.512 6.72C64.872 6.944 64.232 7.136 63.752 7.456L63.016 7.36L61.736 7.648L62.216 8.64C62.824 9.344 63.368 9.664 64.168 9.664L65.672 9.344H66.44L66.504 12.032C66.056 12.384 65.512 12.608 64.744 12.928C64.104 13.056 63.496 13.152 62.92 13.44L63.016 14.08C63.496 14.752 64.104 14.976 64.744 14.976C65.512 14.976 66.344 14.976 66.344 14.976C66.408 15.744 66.312 16.704 66.184 17.44L66.312 19.168L66.184 19.616C65.608 20.096 64.968 20.544 64.424 20.96C63.784 21.376 63.144 21.696 62.344 21.984L62.44 22.432L63.784 23.232ZM78.952 16.576C78.792 15.648 78.728 15.168 79.112 14.752C79.784 14.464 80.744 14.304 81.576 14.176L83.656 14.272L84.04 15.232L83.944 15.936C83.304 16.064 82.632 16.064 81.96 16.16C81.128 16.256 78.952 16.576 78.952 16.576ZM77.352 9.152C78.376 9.024 79.56 9.024 80.584 8.928C81.576 8.832 82.504 8.704 83.56 8.512C84.552 8.384 86.536 8.48 87.56 7.968C87.944 7.488 88.168 6.72 88.392 6.176C88.488 5.664 88.744 5.12 88.968 4.512V3.776L88.552 1.696C88.2 1.088 87.624 0.895998 87.016 0.768L85.736 0.671999L78.984 0.991999L76.968 1.216L74.376 1.376C74.6 1.984 74.792 3.2 74.792 3.712C74.792 4.256 74.792 4.704 74.888 5.216C75.144 6.176 75.176 6.88 74.6 7.584L74.92 8.512C75.496 8.992 76.68 9.152 77.352 9.152ZM84.456 6.432C84.168 5.824 84.136 5.28 84.136 4.544C84.04 4 84.264 3.648 84.552 3.392L85.224 3.488C85.512 3.968 85.672 4.448 85.672 5.088C85.672 5.728 85.544 6.304 85.544 6.304L84.456 6.432ZM78.664 6.72L77.864 6.624C77.736 6.336 77.736 5.92 77.736 5.376C77.64 4.832 77.512 4.352 77.416 4C77.288 3.648 77.448 3.392 77.672 3.264L78.664 3.456L78.76 3.648C78.76 4.192 78.76 4.736 78.888 5.28C78.888 5.792 78.888 6.304 78.664 6.72ZM81.608 6.432L81.288 6.24L81 5.728L81.128 3.36L81.384 3.296C81.544 3.264 81.992 3.36 82.344 3.616C82.216 4.096 82.216 4.512 82.216 5.056C82.216 5.6 82.12 5.952 81.608 6.432ZM121.448 30.304H122.6C123.24 30.08 123.752 29.568 123.976 28.928V26.368C124.072 25.408 123.976 24.448 123.72 23.584C123.72 22.624 123.4 21.76 122.472 21.024L121.96 21.248C121.96 22.304 120.84 24 120.488 24.864C120.136 25.728 119.72 26.464 118.984 27.008C118.536 27.008 118.12 27.008 117.576 27.008C117.032 27.008 116.616 26.912 116.168 26.688L115.208 25.824C115.368 24.48 115.368 23.488 115.432 23.008L116.296 23.232H116.808C117.224 22.4 117.544 21.632 117.768 20.896C117.992 20.032 118.088 19.296 118.216 18.56C118.216 18.016 118.088 17.504 117.992 17.152C117.896 16.64 117.672 16.192 117.352 15.776L116.616 15.264L110.504 15.296C109.864 15.296 109.48 14.688 108.488 14.496L106.472 14.816L105.736 19.616C105.832 20.16 105.832 20.672 105.928 21.216C106.056 21.856 106.248 22.4 106.888 22.816C106.792 23.36 106.696 23.904 106.472 24.448C106.248 25.088 106.056 25.632 105.736 26.144C104.968 27.264 104.648 27.904 104.424 28.64L104.648 30.336H105.352C106.088 29.696 106.824 28.96 107.368 28.192C107.912 27.456 108.776 26.016 109.224 25.28C109.64 24.544 110.216 24.224 110.376 23.392L111.272 23.264C111.592 23.968 111.496 24.864 111.816 25.6C112.04 26.464 112.36 27.2 112.904 27.84C113.736 28.704 114.504 29.12 115.464 29.44C116.52 29.76 117.48 29.856 118.44 29.984C119.4 30.08 120.456 30.176 121.448 30.304ZM96.296 22.912C97.256 22.72 98.312 22.496 99.272 22.272C100.232 22.08 101.416 21.76 102.376 21.44C103.336 21.12 104.2 20.48 105.032 19.616L104.936 19.008L104.52 18.784C101.864 19.104 101.608 19.008 101.384 18.784L102.152 14.176L104.072 12.992L104.296 12.128L103.88 11.424L101.736 11.264L101.608 9.056L100.968 8.32C100.36 8.32 99.912 8.32 99.496 8.416C98.984 8.512 98.536 8.832 98.12 9.248C98.024 9.792 98.344 10.304 98.568 10.4L98.92 11.264L99.08 11.936L97.672 12.256L95.976 11.936L95.368 12.16C95.656 12.768 95.88 13.184 95.976 13.504C96.104 13.952 96.52 14.368 96.936 14.784C97.576 14.912 98.088 14.784 98.728 14.688L99.048 15.872C99.048 16.512 98.824 18.976 98.728 19.424C98.28 19.648 96.296 20.192 95.656 20.288L94.568 20.096L93.96 20.288L95.112 22.176L96.296 22.912ZM115.048 20.608C114.376 20.704 109.992 21.344 109.992 21.344C109.224 21.472 109 21.344 108.776 21.12L109 20.576C109.416 20.352 114.056 19.904 115.208 19.904L115.24 20.032L115.048 20.608ZM114.76 17.984C114.184 18.112 109.48 18.336 109.256 18.208L109.288 17.696C109.544 17.6 114.376 17.6 114.856 17.696L114.76 17.984ZM107.4 14.24C108.68 14.144 109.96 14.016 111.24 13.92C112.552 13.824 117.896 13.6 119.176 13.504C119.176 13.504 120.392 13.312 120.552 12.288L120.232 11.072C119.368 10.656 118.408 10.528 117.576 10.432C116.712 10.336 115.848 10.208 115.4 10.112L116.904 7.392C117.544 7.072 118.312 6.752 119.048 6.528L119.592 5.28L119.368 4.768L117.992 4.448C115.208 4.64 114.984 4.544 114.76 4.416C114.984 3.456 114.76 2.72 114.12 2.08L112.328 1.344H111.4L112.456 4.736L112.36 5.088C111.784 5.312 108.456 5.504 107.624 5.632L106.344 5.504L105.704 5.728C105.832 6.432 106.152 6.976 106.664 7.616H108.488C108.712 8.032 108.936 8.608 109.032 9.248C109.128 9.984 109.352 10.496 109.608 11.168C109.128 11.392 108.584 11.52 107.816 11.616C106.984 11.712 106.344 12.16 105.704 12.768L105.832 13.696C105.832 13.696 106.888 14.016 107.4 14.24ZM112.328 10.528L111.24 10.784C111.336 10.656 111.848 8.256 111.848 7.904L112.968 7.616L113.096 8.032C113.192 8.48 113.192 9.024 113.096 9.44C113 9.888 112.776 10.304 112.328 10.528Z" fill="#FF7A00"/>
</svg>
