<svg width="250" height="32" viewBox="0 0 250 32" fill="none" xmlns="http://www.w3.org/2000/svg">
<path d="M6.608 30.304C7.184 30.176 7.888 29.984 8.592 29.76H17.232C18.032 29.856 18.96 29.856 19.888 29.984L23.472 29.856L23.856 29.984C24.496 30.08 25.04 29.856 25.424 29.536L25.456 28.768C24.56 27.776 23.312 27.52 22.064 27.52C20.816 27.616 19.536 27.52 18.256 27.392C17.008 27.296 15.728 27.296 14.448 27.2C14.448 27.2 8.784 27.296 8.272 27.2L8.624 25.344C9.968 24.8 10.608 24.48 11.216 23.936C11.792 23.392 12.656 22.688 12.976 22.048C13.328 21.408 13.392 20.96 13.968 20.064L14.768 20.128C14.864 20.864 15.024 21.536 15.248 22.176C15.504 22.816 15.824 23.456 16.176 24.352C16.592 24.8 17.136 25.024 17.808 25.024C18.384 25.12 21.04 25.44 21.84 25.44C22.64 25.536 23.312 25.344 23.888 24.896C23.888 24.896 24.368 24.192 24.144 23.808C23.408 23.392 22.544 23.168 21.552 23.072C20.528 22.944 19.568 22.848 18.736 22.528L18.096 21.984V19.84L20.176 19.648C20.176 19.648 25.392 19.392 25.84 19.168L25.552 18.336C24.752 17.568 20.784 17.344 19.92 16.928C20.016 16.064 20.592 10.272 20.88 9.44C21.616 9.312 22.416 9.216 23.184 9.216C24.048 9.216 24.688 9.12 25.296 8.8C25.296 8.8 25.168 7.36 24.784 7.296C24.272 6.976 23.568 6.752 22.736 6.656C21.968 6.528 21.104 6.432 20.368 6.208C20.368 5.472 20.272 4.704 20.08 3.776C19.728 3.136 19.408 2.496 18.96 1.856L18.16 1.44L17.168 1.504L17.232 5.888L11.888 6.208C11.504 5.696 11.376 5.056 11.44 4.064C11.344 3.328 11.024 2.56 10.32 2.016L9.008 1.376L8.528 1.6L8.624 2.336C8.464 4.608 8.336 5.472 8.208 6.208C7.472 6.528 6.704 6.656 6.032 6.752C5.232 6.848 2.32 7.136 1.2 7.616L1.296 8.032C1.712 8.48 2.128 8.8 2.608 8.992C3.12 9.312 3.568 9.536 4.08 9.632L4.912 9.536L7.824 9.632C8.208 10.272 8.56 16.48 8.56 16.48L8.464 17.12L5.776 17.248C4.752 17.344 1.424 17.856 0.688 18.176L0.752 18.944C1.296 19.456 1.776 19.712 2.48 19.904C3.088 20.128 3.728 20.224 4.624 20.224C5.008 20.992 5.104 21.728 5.008 22.496C5.008 22.496 5.008 26.752 5.104 27.52C5.2 28.256 5.456 28.896 5.776 29.44C5.872 29.856 6.16 30.176 6.608 30.304ZM9.104 22.592L8.464 22.88C8.464 22.336 8.688 20.192 9.104 19.872C9.104 19.872 10.352 19.808 10.736 20.128C10.64 20.672 10.512 21.088 10.128 21.408C9.776 21.856 9.456 22.272 9.104 22.592ZM17.072 17.12C12.976 17.12 12.112 16.928 11.376 16.608L11.504 15.84C12.112 15.648 17.168 15.52 17.168 15.52L17.456 16.384L17.072 17.12ZM17.2 13.696L11.664 13.632C11.664 13.632 11.44 12.864 11.856 12.544C11.856 12.544 16.72 12.544 17.264 12.864L17.2 13.696ZM17.072 10.56C16.432 10.464 12.176 10.56 11.536 10.464V9.344L14.224 9.12C16.528 9.28 17.04 9.216 17.456 9.536L17.072 10.56ZM54.864 31.136H55.28L56.048 30.496V29.728C55.088 28.896 54.832 28.384 54.288 27.2C53.648 26.752 52.912 26.56 52.048 26.432C51.504 26.336 51.088 26.432 50.768 26.656L51.088 27.296L50.992 27.744L48.08 28.16L48.208 27.616C49.584 26.56 51.088 25.6 52.464 24.64C52.592 24.096 52.368 23.776 52.048 23.456L50.448 22.592C49.488 22.688 48.528 23.392 47.888 24.032L47.664 23.648L47.76 23.008C48.4 22.496 49.168 22.048 50 21.952L50.864 21.216L50.768 20.352L49.808 19.488L51.728 16.704L52.272 16.8C52.368 18.208 52.688 19.488 53.232 20.672L54.096 20.544C54.736 19.392 55.056 18.112 55.056 16.704C56.016 17.248 56.976 17.664 57.936 17.984C58.576 18.112 59.12 17.984 59.44 17.568L59.312 17.024C58.576 16.288 57.84 15.52 56.976 15.008C56.112 14.464 55.248 13.696 54.512 12.96L54.608 12.32L56.112 11.456C55.696 11.136 55.152 10.816 54.512 10.72C54.288 10.176 54.096 9.536 53.872 8.992C53.104 8.64 52.304 8.672 51.504 9.216L51.728 10.176L51.632 10.496L48.848 10.912L49.168 11.776L51.408 12.416C50.448 13.824 49.584 15.2 48.624 16.608L47.76 16.16C47.024 15.52 46.576 14.784 46.384 13.824L46.48 13.28C47.216 13.184 47.984 12.96 48.72 12.64V12.224L44.976 11.584L43.792 9.632C43.44 9.536 43.088 9.664 42.736 9.76L42.832 10.4C42.96 10.912 42.832 11.36 42.416 11.68L40.272 11.584L38.672 11.68L38.352 12.096L38.448 12.864C39.312 13.28 40.272 13.504 41.232 13.6C40.368 15.008 39.728 16.384 39.216 17.76C39.088 18.624 39.216 19.392 39.728 19.904C40.688 19.392 41.68 18.752 42.416 17.76L42.736 17.888C42.832 19.072 43.152 20.224 43.6 21.408L43.792 21.536L44.56 21.312C44.976 20.128 45.296 18.848 45.52 17.664C46.48 17.888 47.344 18.208 48.08 18.752L47.984 19.072C47.12 19.392 46.256 19.904 45.52 20.544C45.104 21.088 44.88 21.728 44.784 22.496C44.656 23.648 44.976 24.736 45.84 25.472V26.016L43.92 28.064L43.792 30.176L43.92 30.624C45.296 30.496 46.576 30.4 47.888 30.304C49.168 30.176 50.448 29.856 51.632 29.44C53.008 29.984 53.68 30.272 54.864 31.136ZM32.048 29.536H32.752C34.16 26.528 34.928 23.328 35.664 20.128C36.304 16.928 37.168 13.824 38.352 10.72C40.176 9.536 42.192 8.896 44.464 8.8C46.704 8.672 48.848 8.576 51.088 8.48L51.504 8.576C53.232 8.576 54.736 8.128 56.016 7.168L55.792 6.656C55.056 5.888 54.288 5.568 53.328 5.472C52.368 5.472 51.504 5.376 50.544 5.248H47.44C46.896 4.704 46.704 4.192 46.704 3.424L47.216 2.144L47.024 1.408C46.256 0.863998 45.52 0.543999 44.56 0.639999L43.28 0.768C43.792 2.144 44.24 3.552 44.784 4.928L44.656 5.568C43.472 5.888 42.192 6.112 40.912 6.208C39.536 6.336 38.352 6.656 37.168 7.072L34.928 6.848H34.48L34.928 7.808L34.832 8.256C34.928 8.8 35.152 9.216 35.664 9.536C34.832 12.544 34.064 15.52 33.424 18.624C32.784 21.728 32.24 24.832 31.728 27.936L32.048 29.536ZM68.848 29.728L69.168 29.632C69.392 28.896 69.712 28.128 70.032 27.392C70.352 26.624 70.8 25.984 71.216 25.344C72.944 25.984 74.64 26.624 76.368 27.168C77.968 27.712 79.664 28.256 81.488 28.672C83.216 29.216 85.296 29.536 87.12 29.728H87.888C88.4 29.728 88.848 29.632 89.392 29.536C89.808 29.408 90.224 29.216 90.672 28.992L90.544 28.448C89.392 27.808 88.208 27.296 87.024 26.944C85.744 26.624 84.464 26.208 82.992 25.792C81.808 25.344 80.624 24.832 79.472 24.288C79.568 23.648 79.824 22.016 80.24 21.472L85.488 22.016L85.904 22.144C86.448 22.144 86.992 22.016 87.408 21.696L87.28 20.448C86.736 20.032 86.192 19.712 85.68 19.584C85.136 19.488 80.848 19.168 80.528 18.848L80.752 17.312C81.392 17.216 85.2 17.056 85.84 16.928C86.48 16.832 87.12 16.608 87.664 16.416L87.44 15.456C86.896 14.912 86.384 14.592 85.744 14.496C84.976 14.368 81.168 14.432 80.432 14.432C79.664 14.432 79.024 14.336 78.384 14.24C77.2 14.336 75.92 14.432 74.736 14.56C73.456 14.656 72.176 14.656 71.024 14.848C69.84 14.784 68.08 14.88 66.672 15.136C66.32 15.04 65.744 15.328 65.648 15.648L65.872 16.288C66.192 16.608 66.608 16.928 67.056 17.056C67.472 17.28 67.888 17.472 68.432 17.6L73.904 17.536L75.28 17.664L75.376 17.984L75.184 23.424L72.272 22.56C72.272 21.824 72.08 21.088 71.632 20.416L70.352 19.584C69.488 19.776 68.656 20 67.792 20.096L67.888 20.864C67.792 21.728 67.472 22.56 67.152 23.328C66.832 24.064 66.512 24.928 66.288 25.792C66.192 26.528 66.288 27.072 66.608 27.616C66.928 28.128 67.376 28.672 67.792 29.216L68.848 29.728ZM80.368 13.152L83.152 13.056L84.336 13.248L85.168 13.056C85.488 12.192 85.712 11.232 85.808 10.272C85.936 9.312 86.032 8.352 86.256 7.36C86.448 6.4 86.768 5.568 87.088 4.608L86.896 3.744C86.352 2.976 85.616 2.56 84.848 2.336C84.112 2.24 83.248 2.144 82.384 2.016L81.552 2.144L79.408 1.92L71.568 2.016C70.928 2.144 70.288 2.24 69.744 2.56L69.104 2.336L68.464 2.464C68.688 3.744 68.784 5.024 68.88 6.304C69.008 7.68 69.2 8.864 69.744 10.048C70.16 11.232 70.832 12.416 71.568 13.376C72.112 13.472 72.528 13.376 72.848 12.928C73.616 13.056 79.6 13.248 80.368 13.152ZM82.832 10.784L82.704 10.912C82.288 10.784 75.088 10.784 75.088 10.784L72.848 10.688L72.752 9.952V8.448L74.896 8.864L80.88 8.768L82.608 8.864L83.024 9.952L82.832 10.784ZM82.608 6.208C81.008 6.08 74.576 6.624 72.752 6.848L72.432 5.44C72.304 5.024 72.432 4.704 72.752 4.48L73.488 4.704L82.064 4.48L82.704 5.248L82.608 5.984V6.208Z" fill="black"/>
<path d="M102.128 29.792L103.152 29.568C103.472 29.152 103.696 28.608 103.792 28.064C103.888 27.552 104.016 26.976 104.016 26.464L103.888 22.976L103.792 22.4L102.832 18.688L105.2 17.6L106.512 19.072L108.08 20.288C108.848 20.384 109.52 19.808 109.744 19.424V19.072C109.424 18.496 108.592 17.504 107.856 16.864C107.12 16.224 106.64 15.744 106.32 15.296C105.872 14.976 105.456 14.656 104.912 14.56L104.272 14.848V16.224L101.904 16.864L101.264 16.768V16.352L103.632 14.464C103.952 14.112 104.368 13.696 104.816 13.216C105.136 12.896 105.456 12.416 105.552 11.904C105.68 11.232 105.552 10.688 105.232 10.304L103.408 9.152H103.088C102.768 9.696 102.448 10.144 102.032 10.592C101.488 11.168 101.072 11.584 100.752 12.032C100.304 12.64 99.888 13.088 99.344 13.408L98.704 12.864V12.288C99.248 11.52 99.664 10.88 100.208 10.08C100.752 9.408 101.264 8.736 101.904 8.16C102.256 7.84 102.672 7.552 102.992 7.2C103.312 6.816 103.728 6.72 104.272 6.624C104.816 6.304 105.232 5.76 105.456 5.152C105.552 4.736 105.456 4.352 105.136 4.064L102.256 2.24C101.712 2.24 101.264 2.496 100.944 2.784C100.624 3.136 100.208 3.488 99.792 3.712C99.344 4.224 99.024 4.768 98.704 5.344C98.384 6.048 98.16 6.72 97.84 7.264C97.52 7.808 97.2 8.48 97.104 9.12C96.784 9.696 96.464 10.144 96.144 10.592C95.728 11.04 95.376 11.488 95.056 12.032V12.416L97.2 14.816C96.784 15.424 96.56 15.936 96.464 16.48C96.368 17.184 96.048 17.728 95.6 18.304V19.936L96.24 20.576C97.008 20.48 97.648 20.352 98.384 20.224C99.024 20.096 99.664 20 100.24 19.68C100.368 20.544 100.4 21.536 100.528 22.304C100.624 23.072 100.72 23.872 100.848 24.608C100.944 25.408 101.04 26.176 101.04 27.872V28.512C101.264 29.056 101.584 29.472 102.128 29.792ZM104.848 24.064C105.2 24.736 105.424 25.344 105.584 25.92L106.704 27.232H107.472L108.272 26.496C108.24 25.952 108.112 25.152 107.76 24.576C107.216 24.064 106.768 23.552 106.352 23.072C105.904 22.592 105.2 22.144 104.496 21.792C104.208 22.4 104.464 23.456 104.848 24.064ZM97.52 27.36H98.16C98.608 27.232 99.024 26.848 99.344 26.464C99.664 26.112 99.888 25.632 100.112 25.088L99.984 24.128C99.664 23.616 99.248 23.232 98.832 22.848C98.288 22.592 97.84 22.368 97.424 21.984L97.008 22.112C96.88 22.848 96.784 23.488 96.56 24.128C96.56 25.088 96.688 26.112 97.008 26.976L97.52 27.36ZM120.656 28.384C121.392 28.384 121.936 28.384 122.576 28.384C123.088 28.384 123.696 28.192 124.24 27.872L124.72 26.752L124.464 25.92C123.44 25.664 122.768 25.536 121.84 25.408C120.848 25.248 120.112 25.472 119.28 25.152C118.256 24.8 117.584 24.256 117.584 24.256C117.584 23.072 117.424 21.696 117.488 20.608C117.584 19.68 117.776 18.656 118.032 17.568C118.16 16.576 118.8 15.008 119.088 13.536L122.48 12.768L122.992 11.488C122.448 10.944 121.36 10.464 118.704 10.464C117.936 10.464 116.72 10.304 115.44 10.24L110.48 10.56L109.904 10.656L110.224 12.864L111.472 13.6L114.64 13.632L114.544 18.656L114.64 22.592L114.544 24.192C113.168 24.48 111.76 24.768 111.248 24.896C110.64 24.992 109.456 24.992 108.464 25.184L108.848 25.888C109.392 26.336 110.096 26.432 111.152 26.72C111.856 27.008 112.496 27.104 113.488 27.232C114.352 27.36 115.088 27.552 115.952 27.68C116.816 27.808 117.488 27.968 118.384 28.096C119.28 28.224 119.856 28.288 120.656 28.384ZM142.864 31.264C144.304 30.944 145.488 30.272 146.672 29.536L147.44 28.64L147.344 28.128L145.136 27.392H143.696L142.064 29.12C141.968 29.888 142.288 30.688 142.864 31.264ZM154.128 30.72L154.608 30.624L154.512 29.216C153.296 28.448 151.92 27.904 150.48 27.584L149.328 27.808L149.456 28.224C150.768 29.632 152.272 30.4 154.128 30.72ZM129.648 30.112C130.736 29.792 131.824 29.44 132.784 28.992C133.744 28.48 134.704 28.032 135.664 27.552C136.4 27.008 137.168 26.368 137.84 25.568V25.024L137.232 24.544L134.032 25.696L133.456 25.376V24.992L133.936 24.448L134.672 24.576L137.488 23.648L137.936 22.624L137.744 21.92L136.048 21.088H135.504L134.736 21.984H134.672C134.96 20.768 135.152 19.36 135.152 18.016L136.304 17.632L137.104 16.896L136.976 16.512C136.528 16.128 136.08 16.096 135.056 15.936L135.088 15.04C135.888 14.784 136.624 14.016 136.112 13.504L135.44 12.864C134.672 12.224 133.712 12.704 131.664 12.704C131.248 12.832 130.96 12.704 130.672 12.416C130.992 10.72 131.536 9.216 132.336 7.84L132.72 7.936C133.744 9.44 134.704 11.072 135.824 12.672C136.176 12.768 136.432 12.64 136.56 12.256C136.688 11.264 136.176 10.208 135.696 9.248C135.216 8.256 135.056 7.296 134.512 6.368L133.968 5.76C133.648 5.184 133.328 4.48 133.232 3.808L130.704 2.464L130.32 2.656L130.416 3.04C129.776 5.696 129.136 8.224 128.624 10.912C127.984 13.568 127.216 16.128 126.48 18.816L126.928 19.68H127.536L128.048 18.912C128.336 19.168 128.816 19.232 129.2 19.328L131.152 19.104L131.408 19.2L131.824 24.512L131.6 26.432L128.4 27.808C128.496 28.672 128.816 29.504 129.648 30.112ZM143.536 26.752C145.04 26.848 150.32 25.888 151.728 25.568C152.272 25.984 153.04 26.112 153.36 26.112L154.096 25.76C154.192 24.352 154.192 22.944 154.096 21.568C153.968 20.256 153.872 16.512 153.872 16.512L153.552 15.52L151.76 14.752L150.928 14.976L146.64 14.656C145.552 14.528 144.56 14.656 143.824 15.072C143.056 15.392 142.512 15.84 142.288 16.64L142.384 17.056L142.064 20.16C142.064 21.344 142.192 22.4 142.384 23.36C142.512 24.448 142.704 25.504 142.928 26.496L143.536 26.752ZM130.192 25.6H130.8L131.472 24.416L131.248 23.296L128.976 21.76L127.44 21.888L127.92 23.008L130.192 25.6ZM151.824 23.616L145.488 24.448L145.008 24.256L145.104 23.616L151.6 22.592L151.824 23.616ZM151.28 20.96L144.912 21.28L145.392 20.128C145.392 20.128 150.896 20.224 151.376 20.512L151.28 20.96ZM150.672 18.496H146.032L145.424 17.984C145.424 17.376 145.616 16.864 146.032 16.48L150.352 16.896L150.864 18.144L150.672 18.496ZM131.728 16.64L129.648 16.896L128.944 16.576C129.072 15.904 129.264 15.36 129.68 14.848C130.256 15.168 131.024 15.392 131.728 15.264V16.64ZM138.48 14.912C138.672 15.296 139.376 15.104 139.568 14.848C140.144 13.984 140.56 12.928 140.848 10.72L141.392 10.496L140.88 12.832C140.88 13.664 141.2 14.368 142 14.912L143.088 14.72C144.592 13.952 145.712 12.864 146.352 11.232L146.224 9.92L143.504 12L143.248 11.904L143.376 10.112L143.12 9.248C144.048 9.152 145.04 8.704 145.808 8.16L145.712 7.712L144.368 7.392L143.504 7.52L143.024 7.328L143.344 5.792L144.592 5.28C145.104 4.896 145.136 4.512 145.04 4.096L143.184 3.136C142.832 2.592 143.088 1.664 142.544 0.959999C142.032 0.383999 141.744 0.831999 141.392 1.024C141.296 1.92 141.2 2.72 140.912 3.424L140.656 3.36L140.464 2.304L139.216 1.728H138.736C138.608 3.072 138.288 4.32 137.872 5.536C137.776 6.304 137.872 7.072 138.352 7.68C139.152 7.104 139.824 6.432 140.272 5.632L140.88 6.208L140.752 7.712L136.368 9.056L136.592 9.856C137.264 10.304 137.904 10.624 138.608 10.752L138.512 11.232C138.288 12.704 137.808 13.76 138.48 14.912ZM147.568 14.016L148.4 13.792L149.168 13.12L150.48 9.92L150.832 10.016C150.992 11.936 151.504 12.832 152.176 13.376C152.816 13.792 153.584 14.016 154.448 14.016C155.312 14.112 156.08 13.92 156.752 13.44L157.52 11.296V10.496L156.688 9.92L156.112 10.048L155.44 11.584L154.416 12.192C153.904 12.288 153.392 12.192 153.104 11.712C153.232 10.528 153.552 9.376 153.968 8.352C154.992 8.032 155.952 8.256 157.072 7.808C157.36 7.328 157.072 6.88 156.848 6.4C155.856 6.08 154.768 5.856 153.68 5.76L153.872 5.216C154.8 4.832 155.856 4.384 156.88 3.808V3.328L156.4 2.976H154.896L154.608 2.144L152.72 1.152H152.368C152.016 1.952 151.6 2.592 151.088 3.2L150.416 3.136L150.448 1.824L148.464 0.927999L147.76 1.152C147.44 2.496 147.12 3.744 146.672 5.056C146.576 5.6 146.672 6.176 147.024 6.624C147.632 6.656 148.24 6.848 148.912 6.176L149.328 5.664L151.152 5.568L151.056 5.984C149.488 6.496 147.92 6.944 146.128 7.264C146.128 7.776 146.352 8.096 146.704 8.448L147.568 8.896L148.08 9.376L146.992 12.224C146.896 12.896 147.12 13.44 147.568 14.016ZM171.856 28.416H172.24L173.392 27.328L177.264 27.52C178.192 27.424 181.328 27.488 182.448 26.848L183.312 27.072L184.208 26.848C184.848 26.432 185.328 25.856 185.424 24.736C185.52 24.192 185.84 23.328 185.936 22.144C186.032 20.96 186.032 20.032 186.032 19.04C185.904 17.76 185.712 16.96 185.296 15.808C184.72 15.392 184.08 15.04 183.536 14.816C182.288 14.592 180.016 14.24 178.896 14.272C178.192 14.272 177.488 14.272 176.048 14.272C175.376 14.272 174.704 14.272 174.032 14.272C173.264 14.4 171.184 14.624 170.96 14.176C171.376 13.024 173.552 10.496 174.16 9.6C174.736 8.896 175.312 8.192 175.856 7.392C176.912 7.04 178 6.912 179.12 6.816C180.144 6.816 181.328 6.72 182.352 6.592C183.344 6.464 184.368 6.144 185.36 5.696C185.36 5.696 186.128 5.088 185.456 4.224L182.992 3.232C181.104 3.36 179.12 3.456 177.168 3.456C175.152 3.456 173.168 3.584 171.248 3.68C169.296 3.84 167.376 4.032 165.424 4.256L164.752 4.032L164.208 4.224L164.72 5.92C165.264 6.496 166 7.008 166.768 6.88C168.048 7.04 170.128 7.04 170.928 7.2C170.064 8.992 169.04 10.624 167.888 12.224C166.736 13.856 165.584 15.456 164.464 16.896C163.216 18.528 162.192 20.128 161.2 21.824L161.296 23.552C161.296 23.552 162.064 24.224 162.512 24.064C163.184 23.52 163.856 22.848 164.56 22.048C165.136 21.376 165.808 20.672 166.384 19.84C166.96 19.072 167.536 18.4 168.368 17.792L168.912 17.952C169.264 18.784 169.52 19.68 169.712 21.248C169.84 22.176 170.064 23.104 170.224 24.032C170.32 24.928 170.576 26.208 170.672 27.168C170.736 27.936 171.856 28.416 171.856 28.416ZM181.232 24.672L173.84 24.48C173.456 23.616 173.232 22.72 173.136 21.76C172.88 20.96 172.656 19.424 172.464 18.56L172.56 17.312L174.032 17.056C174.704 17.216 175.376 17.216 176.048 17.216C177.36 17.312 178.064 17.312 178.768 17.312C179.504 17.472 180.56 17.568 181.136 17.824C181.488 18.528 181.648 19.104 181.744 19.712C181.776 20.768 181.552 21.792 181.52 22.368C181.616 23.2 181.616 23.84 181.232 24.672ZM206.224 30.272C211.696 29.856 213.072 29.536 214.352 28.992L215.024 27.488L214.896 27.168C213.84 26.528 212.656 26.208 211.376 26.208C210.192 26.112 209.136 26.208 208.144 26.336C207.088 26.528 206.032 26.752 205.072 26.848C203.44 26.976 202.064 26.656 200.784 26.112L200.24 24.608C200.24 24.608 200.048 19.872 200.368 18.912L213.84 18.176L216.496 17.856L217.264 17.216L216.72 15.936C216.08 15.296 215.344 14.976 214.48 14.976H206.352L205.904 14.656L206.128 13.376C206.128 12.64 205.904 12.096 205.488 11.552L204.08 10.816L203.12 11.008L203.568 13.472L203.344 14.752C201.296 15.2 199.28 15.616 197.232 15.936C195.216 16.256 193.168 16.896 191.344 17.664L191.792 18.624L194.448 19.808C195.216 19.904 197.04 19.488 197.232 19.808L197.04 22.688C196.816 24.512 197.232 26.016 198.416 27.168C199.504 28.256 200.656 28.992 202.064 29.536C203.344 30.08 204.72 30.272 206.224 30.272ZM199.28 12.416C200.304 12.16 200.656 10.528 200.656 9.568C201.328 9.28 202.896 9.152 203.696 9.152L208.656 8.864L208.368 10.336L208.496 11.072C209.616 11.04 210.064 10.848 210.384 10.4L212.08 8.512L219.728 8.032L221.008 7.712C220.88 7.072 220.56 6.432 220.144 5.888C219.088 5.12 217.904 4.704 216.496 4.8C215.12 4.928 213.712 4.8 212.432 4.48C212.432 3.968 212.656 3.424 212.976 3.008V2.688L211.248 1.376L210.096 1.6L210.192 2.336L209.872 4.608C208.496 4.928 206.992 5.12 205.488 5.248C203.984 5.344 202.48 5.568 200.976 5.792C199.664 4.704 198.48 4.16 197.296 3.616C196.72 3.616 196.272 3.872 195.856 4.288L196.72 6.304L191.024 7.712L191.888 9.312C192.592 9.728 193.616 10.016 194.768 10.272L197.776 10.176L198.32 11.328L199.28 12.416ZM237.968 30.368C238.448 30.496 238.832 30.272 238.832 30.272L239.472 27.264L239.632 24.736C239.728 24.32 239.696 22.336 240.016 21.92C240.88 22.464 241.712 23.104 242.48 23.84C243.216 24.608 244.08 25.12 245.04 25.568C245.904 26.08 246.864 26.4 247.824 26.752C248.688 26.848 249.488 27.008 249.968 26.208L249.52 25.12C248.464 24.8 247.504 24.288 246.544 23.648C245.584 23.104 244.72 22.464 243.856 21.696C242.896 21.056 242.032 20.32 241.2 19.456L241.392 19.04L245.264 19.136L246 19.04L246.96 18.176L246.544 16.992C245.904 16.672 245.264 16.352 244.496 16.256C243.76 16.128 242.896 16.128 242.16 16.032C241.392 15.936 240.656 15.808 240.016 15.488L240.24 14.528C240.56 14.208 243.344 14.688 243.92 14.528H244.24C244.688 13.568 245.008 12.608 245.328 11.552C245.648 10.464 245.84 9.408 245.968 8.224C246.064 7.04 246.16 5.984 246.288 4.8C246.384 4.064 246.16 3.52 245.744 2.976C245.2 2.656 244.56 2.336 243.824 2.24C243.056 2.112 242.416 2.016 240.336 1.92C238.832 2.016 237.776 2.016 236.688 1.92C235.504 1.92 234.448 1.792 233.36 1.696C232.304 1.6 231.248 1.376 230.16 1.28C229.52 1.152 228.976 1.376 228.656 1.92V2.24L229.2 2.656L229.616 3.616L229.52 6.624C229.52 7.488 229.52 8.32 229.616 9.184C229.616 10.048 229.744 10.784 229.936 11.552C230.064 12.288 230.384 13.024 230.704 13.792L230.928 13.888L231.76 13.696C232.528 13.696 233.264 13.792 234.032 13.888C234.768 14.112 235.408 14.208 236.144 14.336L236.464 14.976L236.368 15.616C235.312 15.936 234.224 16.032 233.04 16.128C231.888 16.256 230.8 16.448 229.744 16.672C228.56 16.896 227.504 17.216 226.512 17.632L226.64 17.952C227.184 18.592 227.92 18.912 228.784 19.04C229.52 19.136 230.384 19.36 231.12 19.552C230.8 20.32 230.48 21.056 229.936 21.696C229.424 22.336 228.784 22.976 228.24 23.648C227.6 24.288 226.96 24.928 226.416 25.568C226.416 25.568 226.064 26.176 226.448 26.688C226.608 27.072 227.28 27.168 227.28 27.168C228.336 27.168 229.296 26.944 230.256 26.4C231.12 25.888 231.984 25.344 232.72 24.608C233.488 23.84 234.48 23.36 236.304 22.688L236.368 23.2L236.272 26.624L236.816 28.672C237.136 29.312 237.456 29.856 237.968 30.368ZM242.416 12.064L239.888 11.968L239.792 11.648L240.176 9.632L242.8 9.568L242.416 12.064ZM236.464 11.648L232.624 11.552L232.208 11.008C232.08 10.144 232.304 9.408 232.848 8.864L236.272 9.504L236.592 10.912L236.464 11.648ZM242.64 6.72L240.304 6.816L240.208 6.496C240.112 5.984 240.208 5.44 240.528 5.024L242.864 5.216C242.96 5.76 242.864 6.304 242.64 6.72ZM236.272 6.624C235.408 6.624 234.768 6.624 234.224 6.72C233.712 6.816 233.168 6.624 232.72 6.304C232.624 5.536 232.72 5.024 233.168 4.48C233.712 4.48 234.128 4.48 234.672 4.48C235.088 4.576 235.504 4.704 235.952 4.896L236.368 5.76L236.272 6.624Z" fill="#FF7A00"/>
</svg>
