<svg width="375" height="933" viewBox="0 0 375 933" fill="none" xmlns="http://www.w3.org/2000/svg">
<path d="M0 30.1881C65.5 -2.62733 115.5 -6.95985 181.5 8.87269C278.595 32.1645 355.5 98.3728 375 131.873V852.873C362 892.873 334.5 932.373 235 932.373C177.613 932.373 13.6631 874.624 0 806.873V30.1881Z" fill="#FFF0D6"/>
<path d="M0 30.1881C65.5 -2.62733 115.5 -6.95985 181.5 8.87269C278.595 32.1645 355.5 98.3728 375 131.873V852.873C362 892.873 334.5 932.373 235 932.373C177.613 932.373 13.6631 874.624 0 806.873V30.1881Z" fill="url(#paint0_linear_99_950)" fill-opacity="0.5"/>
<path d="M0 30.1881C65.5 -2.62733 115.5 -6.95985 181.5 8.87269C278.595 32.1645 355.5 98.3728 375 131.873V852.873C362 892.873 334.5 932.373 235 932.373C177.613 932.373 13.6631 874.624 0 806.873V30.1881Z" fill="url(#paint1_linear_99_950)" fill-opacity="0.5"/>
<defs>
<linearGradient id="paint0_linear_99_950" x1="154.127" y1="-37.6799" x2="215.141" y2="610.574" gradientUnits="userSpaceOnUse">
<stop stop-color="#FF7A00"/>
<stop offset="1" stop-color="white" stop-opacity="0"/>
</linearGradient>
<linearGradient id="paint1_linear_99_950" x1="181.218" y1="615.894" x2="188" y2="1038.37" gradientUnits="userSpaceOnUse">
<stop stop-color="white" stop-opacity="0"/>
<stop offset="1" stop-color="#566B00" stop-opacity="0.8"/>
</linearGradient>
</defs>
</svg>
