<svg width="93" height="44" viewBox="0 0 93 44" fill="none" xmlns="http://www.w3.org/2000/svg">
<g clip-path="url(#clip0_220_990)">
<path d="M38.21 5.14C36.15 5.33 34.03 5.14 32.11 4.66C32.11 3.89 32.45 3.08 32.93 2.45V1.97L30.34 0L28.61 0.34L28.75 1.44L28.27 4.85C26.21 5.33 23.95 5.62 21.69 5.81C19.43 5.95 17.18 6.29 14.92 6.63C12.95 5 11.18 4.18 9.4 3.37C8.54 3.37 7.86 3.75 7.24 4.38L8.54 7.4L0 9.5L1.3 11.9C2.36 12.52 3.89 12.96 5.62 13.34L10.13 13.2L10.95 14.93L12.39 16.56C13.93 16.18 14.45 13.73 14.45 12.29C15.46 11.86 17.81 11.67 19.01 11.67L26.45 11.24L26.02 13.45L26.21 14.55C27.89 14.5 28.56 14.21 29.04 13.54L31.58 10.71L43.05 9.99L44.97 9.51C44.78 8.55 44.3 7.59 43.67 6.77C42.09 5.62 40.31 4.99 38.2 5.14H38.21Z" fill="url(#paint0_linear_220_990)"/>
<path d="M35.18 20.4H22.99L22.32 19.92L22.66 18C22.66 16.9 22.32 16.08 21.7 15.26L19.59 14.16L18.15 14.45L18.82 18.15L18.48 20.07C15.41 20.74 12.38 21.37 9.30998 21.85C6.28998 22.33 3.20998 23.29 0.47998 24.44L1.14998 25.88L5.12998 27.66C6.27998 27.8 9.01998 27.18 9.30998 27.66L9.01998 31.98C8.67998 34.72 9.30998 36.97 11.08 38.7C12.71 40.33 14.44 41.44 16.55 42.25C18.47 43.07 20.53 43.35 22.79 43.35C31 42.73 33.06 42.25 34.98 41.43L35.99 39.17L35.8 38.69C34.22 37.73 32.44 37.25 30.52 37.25C28.74 37.11 27.16 37.25 25.67 37.44C24.09 37.73 22.5 38.06 21.06 38.21C18.61 38.4 16.55 37.92 14.63 37.11L13.81 34.85C13.81 34.85 13.52 27.75 14 26.31L34.21 25.21L38.19 24.73L39.34 23.77L38.52 21.85C37.56 20.89 36.46 20.41 35.16 20.41L35.18 20.4Z" fill="#F89500"/>
<path d="M92.74 12C91.73 11.18 90.58 10.66 89.43 10.51C88.13 10.37 86.84 10.37 85.54 10.17L73.5899 10.6C73.9699 9.92999 76.9 5.89999 77.53 5.07999V3.53999L73.93 0.609985H73.21C72.35 2.57999 71.2399 4.34999 70.5199 5.26999C69.2699 7.04999 68.1199 8.96999 67.0199 10.69C65.8699 12.47 65.1 14.39 64 17.7C63.42 19.33 64.3799 21.59 64.3799 21.59L66.4 20.87L70.14 16.17C71.29 15.11 72.68 14.63 74.46 14.78L84.1999 14.64L86.5 14.93L86.6 17.09C86.6 17.91 86.46 20.31 86.12 22.75C85.83 25.15 84.01 33.17 83.53 35.52L81.99 36.14L75.32 35.8L75.51 36.57C76.37 37.67 77.4799 38.54 78.6299 39.02C79.7299 39.5 83.77 42.09 84.87 42.57C85.54 42.71 86.26 42.57 86.74 42.19C87.6 41.23 88.23 40.13 88.37 38.78C88.56 37.63 90 27.31 90.29 25.2C90.48 23.14 90.96 21.07 91.44 18.96C91.92 16.9 92.3999 14.78 92.8799 12.72L92.74 12V12Z" fill="url(#paint1_linear_220_990)"/>
<path d="M62.69 21.12C62.02 18.67 61.25 16.32 60.1 13.82L62.21 9.88001C62.35 9.02001 62.21 8.34001 61.87 7.72001C60.72 6.86001 59.57 6.33001 58.08 6.14001L56.21 6.28001L55.63 8.30001C54.91 7.63001 54.09 7.00001 53.33 6.24001C52.51 5.71001 51.51 5.38001 50.4 5.23001L49.49 5.52001L49.83 6.91001L50.5 7.25001C51.32 7.78001 52.04 8.45001 52.71 9.51001C53.33 10.37 53.96 11.29 54.49 12.34C53.96 13.88 53.48 15.22 52.86 16.47C52.24 17.81 51.56 19.06 50.94 20.41C50.12 21.71 49.31 23.05 48.2 24.11C48.06 24.73 48.39 25.07 48.92 25.21L50.6 24.68C51.22 23.96 51.9 23.24 52.66 22.71C53.48 22.18 54.1 21.51 54.82 20.69C55.3 19.78 55.88 19.01 56.64 18.34L57.36 18.63L57.65 19.45L57.51 20.7H57.22C56.12 21.76 55.11 23.05 54.29 24.3C53.47 25.79 52.71 27.04 51.89 28.33C50.93 29.63 49.97 31.16 49.15 32.27V32.75L50.01 33.47C51.16 33.28 52.17 33.04 52.99 32.22C53.81 31.69 54.62 30.97 55.39 30.49C56.11 29.67 56.73 28.91 57.5 27.99C58.27 27.27 58.94 26.69 59.71 26.12L60.24 26.31L61.06 29.29C61.2 30.68 60.87 31.98 60.29 33.23C59.52 33.23 58.95 33.04 58.47 32.46C57.8 32.12 57.13 31.93 56.31 31.79L55.21 32.03L57.99 38.75C58.66 39.28 59.33 39.61 59.96 40.19C60.44 40.77 61.11 41.25 61.78 41.44L62.64 41.25C63.17 40.43 64.9 38.61 65.42 36.45C65.56 33.76 65.23 31.07 64.6 28.63C63.93 26.28 63.3 23.73 62.68 21.14L62.69 21.12Z" fill="url(#paint2_linear_220_990)"/>
<path fill-rule="evenodd" clip-rule="evenodd" d="M75.4291 17.1296C79.7025 16.2805 81.7255 19.0765 82.5815 23.3847C83.4735 27.8743 79.4064 33.3213 74.953 34.2061C70.697 35.0517 70.5082 31.0933 69.6557 26.8027C68.841 22.7023 71.3617 17.9377 75.4291 17.1296Z" fill="#9BC100"/>
</g>
<defs>
<linearGradient id="paint0_linear_220_990" x1="20.57" y1="3.56" x2="38.57" y2="58.76" gradientUnits="userSpaceOnUse">
<stop offset="0.42" stop-color="#F89500"/>
<stop offset="1" stop-color="#6D8800"/>
</linearGradient>
<linearGradient id="paint1_linear_220_990" x1="69.07" y1="-12.25" x2="87.07" y2="42.95" gradientUnits="userSpaceOnUse">
<stop offset="0.42" stop-color="#F89500"/>
</linearGradient>
<linearGradient id="paint2_linear_220_990" x1="47.27" y1="-5.14999" x2="65.27" y2="50.05" gradientUnits="userSpaceOnUse">
<stop offset="1" stop-color="#F89500"/>
</linearGradient>
<clipPath id="clip0_220_990">
<rect width="92.88" height="43.34" fill="white"/>
</clipPath>
</defs>
</svg>
