<svg width="127" height="31" viewBox="0 0 127 31" fill="none" xmlns="http://www.w3.org/2000/svg">
<path d="M15.456 30.784C17.28 30.784 19.104 30.688 20.928 30.368L28 30.048L29.056 30.144H30.88L31.168 29.312L31.072 28.8C30.112 27.744 29.056 27.296 27.872 27.296C27.584 27.232 26.432 27.136 25.536 26.944L25.856 26.144V25.408L24.896 24.576L23.008 24.768C23.008 25.92 22.592 26.688 21.952 27.232L21.024 27.2C20.928 26.112 19.968 25.472 19.104 24.608L18.368 24.288C17.824 24.192 17.408 24.288 16.992 24.8C17.536 25.856 17.984 26.368 18.4 27.648C17.728 27.808 16.512 27.968 15.968 28.128C15.008 28.352 14.4 28.8 13.568 29.44L13.664 30.048L15.456 30.784ZM7.232 28.768L7.744 28.544C8.16 26.944 8.48 25.344 8.608 23.744C8.704 22.144 9.024 20.64 9.344 19.424L11.168 20.096H12.032L12.224 19.68L11.808 18.4C10.944 17.44 10.016 17.024 9.024 17.12C8.8 16.704 8.608 16.064 8.384 15.616L10.08 12.608L12.224 10.784V10.272L11.392 9.408C10.528 8.576 9.568 8.16 8.288 8.032C7.104 8.16 5.824 8.16 4.64 8.256C3.488 8.352 2.24 8.672 0.832 9.088C1.12 9.76 1.696 10.208 2.432 10.464L6.304 10.24C5.856 11.68 5.216 13.376 4.576 15.104C3.808 16.8 3.168 18.528 2.656 20.256C2.528 20.864 2.656 21.28 3.072 21.696L3.904 21.6C4.832 20.64 5.6 19.68 6.176 18.976C6.176 20.416 6.08 21.92 5.76 23.52C5.632 25.024 5.76 26.432 6.08 27.808C6.176 28.352 6.592 28.64 7.232 28.768ZM18.464 23.84C19.968 23.84 21.248 23.712 22.528 23.616C23.712 23.52 24.992 23.296 26.368 23.072L27.104 21.92L26.88 21.184L27.744 19.776L27.52 19.04C26.784 18.528 26.144 18.208 25.312 17.984L18.88 18.528C17.824 18.304 17.12 18.432 16.352 18.72C16.544 20.096 16.864 21.376 17.312 22.56L18.464 23.84ZM24.16 21.216C24.16 21.216 19.584 21.856 19.392 21.728V20.512C19.392 20.512 24.032 20.096 24.256 20.32L24.16 21.216ZM16.096 18.08C18.144 17.952 20.288 17.76 22.304 17.536C24.352 17.44 26.368 17.12 28.704 16.8L28.064 15.232L26.496 14.496C24.256 14.592 21.984 14.816 19.84 15.008C17.6 15.328 15.36 15.776 13.248 16.512L13.312 17.056C14.144 17.792 15.136 18.08 16.096 18.08ZM15.936 14.816C15.936 14.816 20.928 14.528 22.304 14.304C23.712 14.208 25.088 14.08 26.592 14.08C27.008 13.984 27.328 13.472 27.2 13.152L28.288 12.192C29.472 10.784 30.112 9.28 30.432 7.584L29.888 6.208C29.056 5.472 28.096 5.056 27.008 4.832C26.048 4.736 24.992 4.608 24.736 4.512L24.416 3.2L24.544 2.24C24.416 1.6 24.128 1.184 23.552 0.991999C22.752 0.863998 22.016 0.991999 21.376 1.504C21.472 3.104 21.472 4.064 21.216 4.512L20.288 4.384L20.192 2.88C20.32 2.368 20.192 1.824 19.776 1.408L18.624 0.991999L17.472 1.088C17.344 2.624 17.024 3.328 16.896 4.512C15.424 4.896 14.336 5.312 13.184 5.952C13.504 7.328 13.728 8.736 13.824 10.112C13.824 11.52 14.144 12.992 14.88 14.176L15.936 14.816ZM17.184 12.864L16.224 12.96L16.128 12.672L16.224 11.264L17.056 11.36L17.184 12.864ZM20.832 12L19.328 12.416L18.976 12.192L19.616 10.464C20.16 10.336 20.608 10.464 21.056 10.688L20.832 12ZM25.216 12.064C24.352 12.096 23.744 11.936 23.104 11.712L23.296 10.72L25.216 10.56L25.344 11.008L25.216 12.064ZM25.28 8.192L23.776 8.416L23.744 8.288C23.744 8.288 23.936 7.296 24.16 6.976L24.896 7.136L25.28 8.192ZM16.896 8.8L16.032 8.736L16.224 7.424L17.152 7.36L17.184 7.488C17.184 7.488 17.12 8.256 16.896 8.8ZM20.736 8.448C20.384 8.576 20.16 8.48 19.936 8.256L20.16 7.36L20.48 7.072L20.96 7.36L20.736 8.448ZM9.504 6.72L10.464 6.272L10.4 4.896C9.088 3.872 7.712 3.424 6.144 3.04C5.568 3.072 4.96 2.752 4.128 3.52L4.096 5.024C5.792 6.048 7.68 6.624 9.504 6.72ZM37.952 30.688C56.064 30.336 57.152 30.336 58.336 30.336C59.552 30.464 60.704 30.24 61.728 29.728L61.504 28.576C59.424 28.48 57.696 28.256 56.32 27.936C57.344 26.816 58.304 25.44 58.944 23.968L58.688 23.008C57.12 22.272 55.552 21.824 53.952 21.728C52.192 21.632 50.592 21.632 48.864 21.504H48.064C46.88 21.504 45.792 21.632 43.936 21.664C42.72 21.888 41.664 22.08 40.576 22.208L40.16 22.08L39.488 22.304C39.968 23.328 40.256 24.192 40.544 24.96C40.672 25.92 40.928 26.784 41.216 28.096C39.264 28.288 37.952 28.8 36 29.536V29.92L37.952 30.688ZM44.64 27.648C44.64 27.648 44 24.448 43.68 23.744L44.896 23.552C45.6 25.28 46.048 27.552 46.048 27.552L44.64 27.648ZM54.144 27.84C53.376 27.936 52.576 27.712 52.064 27.488L52.704 25.696L52.672 23.712L53.856 23.808L54.432 24.8C54.56 25.664 54.144 27.84 54.144 27.84ZM49.088 27.2L48.352 27.072V23.616C48.864 23.488 49.184 23.648 49.312 23.904L49.088 27.2ZM43.168 20.512C43.936 20.384 44.704 20.192 45.088 19.744L46.72 19.872C48.192 19.872 49.792 19.872 51.264 19.744C52.736 19.648 54.08 19.424 55.552 18.912L55.072 18.08L55.616 16.864C55.936 16.352 56.576 16 57.536 15.584L57.056 14.56C55.648 13.6 54.08 13.152 52.352 13.056C50.368 13.056 48.48 13.056 46.496 13.056C44.448 13.152 42.624 13.376 40.672 13.888C40.928 15.072 41.184 16.128 41.344 17.312C41.472 18.592 42.144 19.552 43.168 20.512ZM52 17.888L44.832 17.984C44.512 17.12 44 16.16 43.712 15.04L51.872 15.168L52 17.888ZM36.064 16.64C37.536 15.776 38.912 14.72 39.968 13.504C41.024 12.32 42.24 11.168 43.456 10.176L47.296 5.76C49.088 6.784 50.976 7.84 52.832 8.832C54.592 9.792 56.448 10.752 58.496 11.488L59.488 11.136V10.656C58.144 9.216 56.512 8.16 54.784 7.2C52.896 6.24 51.2 5.152 49.568 4L49.728 3.552C49.856 2.976 49.568 2.4 49.152 2.048L47.136 1.088L44.8 1.408C43.872 2.848 43.072 4.128 42.144 5.504C41.184 6.912 40.224 8.416 39.104 9.568C38.272 10.432 35.232 13.76 34.4 14.496V15.168C34.56 15.936 35.296 16.288 36.064 16.64ZM49.664 11.936C50.88 11.936 52.064 11.84 53.472 11.424L53.344 10.592C51.168 9.856 48.992 9.632 46.72 9.728C45.792 9.632 45.024 9.728 44.256 10.144L44.416 11.072C46.208 11.616 47.936 11.84 49.664 11.936Z" fill="#FF7A00"/>
<path d="M88.704 29.76L89.344 29.664C89.664 28.8 89.888 27.84 89.888 26.88C89.888 25.92 89.984 25.056 90.112 24.096C90.208 23.136 90.304 22.272 90.528 21.312L90.944 15.2L90.848 14.464C90.944 13.92 91.072 13.376 91.072 12.864C91.072 12.32 91.008 11.168 91.104 10.624C91.104 10.624 91.872 10.336 93.152 10.272L94.528 9.952L95.296 8.48L94.752 7.072C94.016 6.528 93.248 6.208 92.288 6.208C90.912 6.336 89.632 6.432 88.352 6.656C87.04 6.976 85.76 7.296 84.576 7.616C83.296 7.936 82.016 8.256 80.096 8.48C79.552 8.352 79.136 8.576 78.816 9.12L78.912 9.44L82.464 11.04L86.944 10.72L87.488 11.904C87.488 13.28 87.488 14.56 87.36 15.968C87.264 17.344 87.168 18.624 87.04 19.904C86.944 21.216 86.72 22.496 86.528 23.776L82.144 23.328H81.6C82.336 24.096 83.2 24.736 84.16 25.376C85.024 26.112 85.888 26.88 86.624 27.616C87.36 28.48 88.224 29.216 88.704 29.76ZM70.88 28.896C71.648 28.896 72.288 28.8 72.928 28.576C73.568 28.48 74.208 28.16 74.848 27.84C75.488 27.52 76.128 27.296 76.672 26.976C77.088 26.432 77.408 25.92 77.632 25.376C77.856 24.832 78.048 24.192 78.176 23.552C78.272 22.912 78.368 22.272 78.496 21.632L78.176 20.448L76.672 19.808C75.936 19.904 75.168 19.904 74.432 20.032C73.664 20.128 72.928 20.224 72.16 20.352C71.424 20.576 70.784 20.768 69.504 20.896C68.64 20.992 67.776 21.216 66.944 21.408L67.456 21.952C67.776 22.496 67.904 23.136 67.904 23.872C67.776 24.64 67.904 25.376 68.096 26.016C68.32 26.656 68.544 27.296 68.64 27.936C69.28 28.48 70.048 28.8 70.88 28.896ZM73.792 25.792L71.968 26.24L71.2 25.792L71.424 23.456C71.968 22.912 72.704 22.592 73.472 22.496L74.208 23.008C74.304 24.832 74.208 25.376 73.792 25.792ZM71.296 19.392C71.936 19.296 72.576 19.2 73.248 19.072C73.76 18.976 74.4 18.752 74.944 18.56C75.488 18.336 76.128 18.112 76.768 18.016L77.504 17.376V17.056C77.408 16.608 77.088 16.288 76.672 15.968L70.176 16.896L68.832 16.608L68.096 17.056L68.512 18.016C69.184 18.624 70.464 19.264 71.296 19.392ZM69.76 15.84C70.528 15.84 71.36 15.712 72.128 15.616C72.864 15.52 73.632 15.392 74.368 15.072C75.008 14.752 75.648 14.56 76.416 14.24L76.736 13.696C76.736 13.152 76.512 12.736 76.064 12.416C75.424 12.416 74.784 12.416 74.144 12.416C73.408 12.512 72.768 12.512 72.224 12.608C71.584 12.736 70.944 12.704 70.4 12.832C70.4 12.832 69.568 12.672 68.896 12.736C67.968 12.832 67.424 13.696 67.424 13.696L67.296 13.92C67.52 14.336 67.84 14.656 68.384 14.976C68.896 15.296 69.344 15.52 69.76 15.84ZM68.224 11.712C69.312 11.616 70.368 11.392 71.456 11.2C72.512 11.072 73.6 10.88 74.656 10.56C75.744 10.336 76.704 10.016 77.664 9.568L77.44 8.736C76.896 8.288 76.384 8.096 75.616 7.968C74.88 8.096 74.112 8.096 73.376 8.192C72.64 8.288 71.872 8.416 71.136 8.512C70.368 8.608 69.536 8.832 68.768 8.928C68.224 8.928 67.808 8.928 67.264 8.928C66.752 8.928 66.208 8.832 65.76 8.736C65.344 8.608 65.024 8.736 64.704 8.928L65.248 9.888C65.76 10.24 66.208 10.56 66.752 10.88C67.168 11.2 67.584 11.52 68.224 11.712ZM73.312 7.232L73.856 7.104L74.176 5.92L72.448 3.04L70.624 2.304C70.624 2.304 68.608 1.92 68.192 2.304C68.32 3.04 69.44 4.864 70.464 5.728C70.976 6.24 71.808 6.624 71.808 6.624L73.312 7.232ZM120.928 30.688C121.472 30.496 122.016 30.176 122.528 29.856L122.336 28.896L122.656 24.16C123.168 24.064 123.808 23.968 124.448 23.84C125.12 23.84 125.632 23.648 126.176 23.2V22.688C125.632 22.56 125.12 22.368 124.576 22.24C124.032 22.144 123.488 22.048 122.976 21.728C122.656 21.056 122.432 20.32 122.528 19.456C122.528 18.624 122.528 17.76 122.528 16.992C122.432 16.256 122.336 15.52 122.112 14.752C121.664 14.432 121.248 14.208 120.704 14.112C120.192 14.016 119.552 14.016 119.008 14.016L118.464 13.472C118.592 12.928 118.784 12.48 118.784 12.48L120.512 12.064L122.432 12.16C122.976 12.064 123.616 12.064 124.256 12.064C124.896 12.064 125.44 11.84 125.856 11.296L125.76 10.976C125.12 10.656 124.448 10.464 123.712 10.336C123.296 10.24 122.656 10.24 121.888 10.24C121.152 10.24 120.384 10.144 119.744 9.92L119.968 8.96C120.608 8.64 122.56 8.608 123.008 8.16C123.104 7.392 122.464 6.784 120.704 6.592L121.248 5.12C121.984 4.896 122.528 4.576 123.072 4.16L122.976 3.84L122.208 3.52L120.704 3.424L120.608 2.56L120.384 1.792L118.368 0.959999H118.048L118.144 2.016L118.048 3.616L115.296 3.648L114.912 2.272C114.496 2.048 114.048 1.824 113.632 1.632L113.088 1.728L112.992 4.096L111.328 4.32L110.016 4.512L109.6 4.736L109.952 5.76L110.72 5.664L113.152 5.792L112.736 7.168L110.592 7.296L109.76 7.36L109.888 8.128C110.496 9.056 111.488 9.28 113.088 9.088L113.152 10.368C109.92 10.784 109.152 10.88 108.416 11.2C108.288 11.744 108.416 12.16 108.608 12.48L110.016 12.8H110.88L115.488 12.608L115.616 13.472L115.36 14.208L113.856 14.112C113.12 14.016 112.384 14.112 111.84 14.432C111.84 14.976 112.032 15.392 112.48 15.712L112.16 19.68L111.712 21.28C110.976 21.408 110.336 21.6 109.6 21.728L108.416 21.824V22.88L111.296 23.424L111.392 23.744L110.944 28.16V28.896L112.128 29.984C112.672 30.08 113.088 29.984 113.408 29.76C113.504 29.216 113.728 28.576 113.824 27.936C113.952 27.392 114.144 26.752 114.304 25.344C114.4 24.832 114.496 24.16 114.72 23.648L115.584 23.328L119.232 23.52L119.328 23.84L119.232 26.528L117.824 26.752L116.448 27.168C116.544 27.808 116.864 28.352 117.408 28.896C118.048 28.992 118.592 29.216 119.104 29.728C119.648 30.272 120.192 30.592 120.928 30.688ZM98.976 28.576C99.744 28.352 100.384 28.096 101.12 28C101.888 27.68 102.4 27.2 102.848 26.688L102.624 25.92C102.08 25.408 101.568 24.928 100.928 24.576C100.16 24.256 99.52 24.032 98.88 23.68L98.464 23.808C98.56 24.8 98.336 25.568 97.824 26.368L98.016 28.256L98.976 28.576ZM106.496 27.904L107.776 27.776L108.608 26.912L108.288 26.176C107.968 25.824 107.552 25.6 107.232 25.248C106.816 25.056 106.368 24.928 105.856 24.928L103.264 25.056V25.376C103.808 25.856 104.352 26.336 104.864 26.656C105.408 27.104 105.952 27.552 106.496 27.904ZM100.48 22.496C101.248 22.368 101.888 22.144 102.528 21.824C103.168 21.472 103.808 21.248 104.544 21.056C105.184 20.896 105.856 20.8 106.592 20.672L107.008 19.84L106.912 19.168C107.008 18.368 107.648 15.584 107.776 14.784C107.776 13.888 107.776 12.992 107.776 12.192C107.776 11.392 107.648 10.496 107.552 9.728C107.456 8.928 107.328 8.064 107.232 7.264C106.592 6.72 105.856 6.496 104.992 6.368L100.064 6.624L99.328 6.176L98.24 6.848C98.144 7.584 98.24 8.384 98.464 9.056C98.464 9.6 98.464 10.048 98.464 10.592C98.464 11.168 98.336 11.744 98.24 12.192L98.336 12.544C98.336 13.344 98.336 14.24 98.24 15.008C98.144 15.776 98.144 16.704 98.144 17.472C98.144 18.272 98.016 19.04 97.92 19.84C97.824 20.384 97.92 20.832 98.144 21.152C98.464 21.472 98.88 21.728 99.328 21.824C99.744 21.92 100.16 22.144 100.48 22.496ZM115.488 21.28L114.848 21.408C114.848 20.864 115.04 20.096 115.36 19.68L115.808 19.904L115.488 21.28ZM119.008 21.28L118.912 21.408L118.144 21.056L118.368 19.68H119.104L119.232 20C119.328 20.544 119.232 20.96 119.008 21.28ZM104.128 19.2L101.344 19.744L100.608 19.648L100.832 18.496C101.376 18.368 103.168 17.888 103.584 17.568L104.352 17.984C104.448 18.496 104.352 18.848 104.128 19.2ZM115.68 17.632L115.072 17.6L115.136 16.256H115.68L116 16.672L115.68 17.632ZM119.232 17.312H118.688L118.784 16.352L119.328 16.576L119.232 17.12V17.312ZM104.128 15.392L101.76 16.032C101.44 16.16 101.12 16.032 100.896 15.648C100.8 15.104 100.992 14.56 101.312 14.08L101.856 14.176L103.488 13.504C103.904 13.408 104.224 13.632 104.448 14.016C104.544 14.592 104.448 15.008 104.128 15.392ZM104.224 11.424L101.536 12L100.8 11.648C100.8 11.04 100.8 10.592 100.8 10.016C100.672 9.6 100.8 9.12 100.992 8.672C100.992 8.672 103.072 8.224 103.584 8.448L104.352 10.4L104.224 11.424ZM117.088 10.144L116.768 10.336L115.488 10.048V9.024L116.832 8.928L117.408 8.832C117.504 9.376 117.408 9.824 117.088 10.144ZM117.504 6.72L115.68 6.88L115.52 5.696L117.824 5.664L117.504 6.72Z" fill="#2D2D2D"/>
</svg>
