<svg width="375" height="1039" viewBox="0 0 375 1039" fill="none" xmlns="http://www.w3.org/2000/svg">
<path d="M375 82.1629C311.5 3.66283 290 -5.40654 201.5 2.16275C148 6.73854 72 47.6629 0 129.163V920.663C14.901 962.126 90.7161 1107.3 264 1000.16C336.989 955.034 354.357 905.494 375 856.163V82.1629Z" fill="#FFF0D6"/>
<path d="M375 82.1629C311.5 3.66283 290 -5.40654 201.5 2.16275C148 6.73854 72 47.6629 0 129.163V920.663C14.901 962.126 90.7161 1107.3 264 1000.16C336.989 955.034 354.357 905.494 375 856.163V82.1629Z" fill="url(#paint0_linear_114_938)" fill-opacity="0.5"/>
<path d="M375 82.1629C311.5 3.66283 290 -5.40654 201.5 2.16275C148 6.73854 72 47.6629 0 129.163V920.663C14.901 962.126 90.7161 1107.3 264 1000.16C336.989 955.034 354.357 905.494 375 856.163V82.1629Z" fill="url(#paint1_linear_114_938)" fill-opacity="0.5"/>
<defs>
<linearGradient id="paint0_linear_114_938" x1="217.5" y1="-211.337" x2="80.5306" y2="698.027" gradientUnits="userSpaceOnUse">
<stop offset="0.114583" stop-color="#FF7A00"/>
<stop offset="1" stop-color="white" stop-opacity="0"/>
</linearGradient>
<linearGradient id="paint1_linear_114_938" x1="187.5" y1="717.662" x2="188" y2="1083.66" gradientUnits="userSpaceOnUse">
<stop stop-color="white" stop-opacity="0"/>
<stop offset="1" stop-color="#566B00" stop-opacity="0.8"/>
</linearGradient>
</defs>
</svg>
