<svg width="155" height="30" viewBox="0 0 155 30" fill="none" xmlns="http://www.w3.org/2000/svg">
<path d="M7.856 28.376L8.816 28.056C9.36 27.096 9.776 26.136 10.096 25.176C10.416 24.216 10.736 23.256 11.056 22.296C11.376 21.336 11.6 20.248 11.824 19.192C12.336 18.872 15.024 18.328 15.76 18.232C16.4 18.104 17.072 18.008 17.712 17.784L17.808 16.952C17.584 16.408 17.168 16.088 16.624 15.864L15.76 16.184L11.824 15.992L11.696 13.72C12.464 13.304 13.2 13.08 14.064 12.984C14.928 12.888 15.76 12.76 16.624 12.664L17.264 12.888C17.584 13.4 17.808 13.944 18.032 14.488C18.128 15.128 18.352 15.768 18.544 16.312C18.768 16.824 18.992 17.368 19.312 17.912V18.328L18.448 19.096C17.808 19.736 17.264 20.376 16.752 21.112C16.208 21.848 15.76 22.616 15.568 23.48C15.664 24.216 15.76 24.856 16.08 25.496C16.304 26.264 16.528 26.904 16.752 27.544H17.264C17.808 26.776 18.448 26.136 19.184 25.624C19.952 25.08 20.592 24.536 21.328 24.12C21.872 24.44 22.416 24.856 22.832 25.4C23.28 25.944 23.792 26.456 24.336 26.776C24.88 27.224 25.392 27.544 25.936 27.864C26.48 27.96 27.024 27.864 27.536 27.544C27.536 27 27.664 26.36 27.856 25.816C27.76 25.08 27.536 24.216 27.216 23.48C26.896 22.712 26.8 21.976 26.704 21.112C26.576 20.376 26.256 19.608 25.616 19.096L25.2 19.192C24.976 19.512 24.88 19.928 24.88 20.472C24.752 21.016 24.656 21.432 24.336 21.752H24.016L23.472 21.016C23.792 20.152 24.24 19.288 24.752 18.552C25.296 17.784 25.712 17.048 26.256 16.312C26.704 15.544 27.12 14.808 27.664 14.04C27.76 13.304 27.536 12.76 27.216 12.216L25.392 11.256L24.24 11.384C23.792 12.12 23.376 12.888 23.056 13.624C22.608 14.36 22.096 15.128 21.456 15.864L21.136 15.768L20.048 12.888L20.176 12.568C20.592 12.216 21.136 12.12 21.648 12.024C22.192 12.024 22.608 11.896 23.056 11.8L23.6 11.16C23.696 10.616 23.472 10.104 23.152 9.784C22.512 9.336 21.776 9.112 21.008 9.112C20.176 9.24 19.408 9.112 18.672 8.92C18.352 8.28 18.128 7.64 18.032 6.872C17.904 6.136 17.808 5.496 17.488 4.856L17.584 3.896L17.488 2.808L16.08 2.072H14.608C14.928 2.712 15.12 3.352 15.344 4.088C15.44 4.856 15.664 5.592 15.76 6.36C15.888 7.096 16.08 7.736 16.304 8.472L16.208 9.112L10.32 9.464L9.552 7.224L9.52 6.392L13.424 5.688H13.744C14.16 5.368 14.384 4.856 14.288 4.312V3.768L13.648 3.128C12.336 3.128 11.824 2.808 11.28 2.488C10.736 2.168 10.096 2.072 9.456 1.944C8.816 1.848 8.272 1.624 7.76 1.304L6.768 1.432C6.256 1.944 5.712 2.584 5.168 3.352C4.656 4.088 4.016 4.856 3.344 5.368C2.608 5.912 1.968 6.456 1.232 7L1.552 7.512C2.384 7.512 3.248 7.512 4.112 7.416C4.848 7.32 5.616 7.096 7.312 7L8.08 9.784C7.312 9.976 6.672 10.104 5.936 10.2C5.168 10.296 4.432 10.52 3.792 10.744C3.024 11.064 2.384 11.256 1.648 11.576L0.784 11.256L0.144 11.384L1.232 13.528L2.512 14.264C3.024 14.168 3.696 14.04 4.336 13.944C4.848 13.944 5.488 13.944 6.128 13.848C6.672 13.72 7.312 13.72 7.856 13.624L8.592 13.72L9.04 14.904L8.816 16.312C7.856 16.504 6.896 16.632 5.936 16.632C4.976 16.728 4.016 16.824 3.024 17.048C2.064 17.368 1.232 17.688 0.464 18.232L0.688 18.648L3.568 19.288L4.656 19.192C5.296 19.192 5.936 19.192 6.672 19.096C7.312 19.096 7.856 19.192 8.4 19.512L7.952 21.432C7.632 22.2 7.216 22.616 6.576 22.936C6.032 22.84 5.392 22.84 4.848 22.712C4.336 22.712 3.792 22.616 3.248 22.392L2.832 22.616V23.16C3.152 23.8 3.472 24.312 3.888 24.856C4.336 25.4 4.752 25.944 5.296 26.456C5.808 27 6.256 27.544 6.768 27.96L7.856 28.376ZM26.576 6.232L26.896 6.136L26.704 3.896C26.384 3.448 26.032 3.032 25.712 2.712C25.392 2.392 24.976 2.072 24.56 1.752L23.792 1.944L22.832 1.624H21.328L22.288 3.672C22.96 4.408 23.696 4.856 24.432 5.048C25.2 5.272 25.84 5.912 26.576 6.232ZM36.656 28.536C36.656 28.536 37.84 29.048 38.224 28.44C38.512 27.672 38.608 26.808 38.704 25.848C38.8 24.888 38.896 24.056 39.024 23.192C39.12 22.328 39.408 11.768 39.408 11.768V11.128L38.736 10.296C39.216 9.528 39.728 8.664 40.208 7.832C40.688 7.064 41.104 6.2 41.392 5.368C41.712 4.504 42.16 3.768 42.864 3C42.96 2.456 42.864 1.944 42.672 1.496C42.16 0.983999 41.552 0.535999 40.784 0.439999C40.112 0.343998 39.312 0.343998 38.608 0.216L37.968 0.439999C37.04 2.264 36.24 4.184 35.536 6.2C34.864 8.248 34.128 10.168 33.264 12.088C32.368 14.04 31.568 15.96 30.896 17.976C30.8 18.744 30.896 19.48 31.216 20.12L31.792 20.44L32.624 19.928C33.04 19.8 35.536 15.32 35.536 15.32H35.792C35.952 15.96 36.24 25.656 36.24 26.392C36.24 27.16 36.336 27.8 36.656 28.536ZM58.384 29.432H59.12C59.92 29.112 60.464 28.664 60.848 27.992C60.976 27.032 60.848 26.264 60.72 25.4L60.816 8.184L61.232 5.048L60.816 3.896C60.24 3.544 59.568 3.32 58.992 3.096C58.256 2.84 57.552 2.744 56.912 2.648L56.08 2.744L53.52 2.296H52.368L52.656 3.384C52.656 4.216 51.856 12.088 51.856 12.088C51.952 12.6 52.016 14.392 52.944 15.16H53.52L57.264 14.936L57.616 24.664L54.32 24.44L53.616 24.504C53.712 25.08 54.096 25.528 54.448 25.848C54.8 26.328 58.032 29.112 58.384 29.432ZM43.312 29.016H44.016L45.008 28.152C45.008 28.152 46.224 16.984 46.224 15.448L49.392 15.192L49.936 15.064C49.936 15.064 50.768 14.232 50.96 13.496L50.768 11.288C50.992 9.528 51.28 5.528 51.28 5.528C51.44 5.048 51.44 4.632 51.536 4.056L51.44 3.544C50.832 2.936 50.192 2.488 49.392 2.392C49.392 2.392 44.784 1.912 44.208 1.752L43.568 1.848L43.28 2.648L43.632 3.736L43.536 6.744L43.632 7.736C43.536 9.624 43.376 11.64 43.28 13.56C43.184 15.64 42.96 17.592 42.736 19.64C42.384 21.624 42.192 23.448 42.064 25.464C41.968 26.168 42.064 26.712 42.384 27.256C42.64 27.928 42.96 28.504 43.312 29.016ZM48.24 13.048L47.728 13.368L46.576 12.984C46.576 12.984 46.16 9.944 46.48 9.432H47.824L48.24 13.048ZM57.104 12.088L54.544 11.96L54.832 9.848L57.328 9.976L57.104 12.088ZM47.6 7.448L46.576 7.16V4.792L47.696 5.112L47.6 7.448ZM57.104 7.416L55.504 7.128L55.536 4.824L56.912 5.112L57.104 7.416ZM86.288 29.24H86.832L87.696 28.056L87.568 27.096C87.888 25.272 88.336 23.448 88.848 21.624C89.296 19.832 89.712 18.008 90.032 16.056C90.352 14.264 91.12 12.536 92.272 11.032L92.08 10.072C91.12 9.336 90.16 8.792 88.976 8.568C87.792 8.376 86.608 8.152 85.424 8.056C84.272 7.928 83.088 7.736 82 7.416C82.224 6.744 82.544 6.104 82.864 5.592C83.184 5.048 83.504 4.504 83.952 3.992V3.544L82.864 2.488C82 2.36 81.264 2.488 80.528 2.808C80.08 3.864 79.664 4.952 79.12 6.008C78.576 7.096 78.064 8.152 77.52 9.112C76.88 10.2 76.112 11.16 75.376 12.12L75.472 13.624C75.792 14.136 76.24 14.456 76.784 14.68H77.104C77.616 14.136 78.16 13.624 78.704 12.952C79.216 12.44 79.664 11.8 79.984 11.032C80.304 10.392 81.04 9.848 81.04 9.848C81.904 9.944 83.056 9.816 83.92 9.944C84.752 10.04 85.52 10.36 86.256 10.808C86.416 11.352 86.288 12.216 86.192 12.952C85.968 13.72 85.872 14.584 85.744 15.32C85.648 16.184 84.912 19.704 84.784 20.472C84.688 21.208 84.464 21.848 84.272 22.584L83.632 22.936L82.768 22.808C82 22.808 81.36 22.936 80.848 23.032C80.208 23.256 79.536 23.448 78.896 23.672V23.992C79.44 24.312 80.08 24.632 80.72 24.952C81.264 25.272 81.904 25.592 82.448 26.008C82.992 26.456 83.408 27 83.728 27.64C84.144 27.96 84.592 28.152 85.008 28.472C85.328 28.792 85.744 29.112 86.288 29.24ZM84.592 17.72L84.144 16.952C83.632 16.632 83.088 16.312 82.544 16.088C81.904 15.896 81.264 15.672 80.72 15.576C80.08 15.448 79.44 15.352 78.896 15.128C78.16 15.032 77.424 15.128 76.88 15.448C77.424 15.896 77.936 16.408 78.48 17.08C79.024 17.496 79.664 17.816 80.304 17.912C80.944 18.04 81.584 18.232 82.224 18.456L84.368 18.232L84.592 17.72ZM68.304 20.568C69.072 20.664 69.712 20.568 70.352 20.344C70.992 20.152 71.632 19.928 72.272 19.704L73.36 19.832L74 19.608C74.32 18.968 74.512 18.2 74.64 17.464C74.736 16.728 74.736 16.056 74.832 15.32C74.736 14.776 74.64 14.264 74.736 13.624C74.832 13.08 74.736 12.536 74.768 10.168C74.896 9.624 74.768 9.08 74.576 8.536C74.032 8.216 73.488 7.896 72.944 7.8C72.304 7.704 70.096 7.512 69.552 7.192C69.808 6.232 70.352 5.592 71.088 5.048C71.728 4.504 72.272 3.992 72.688 3.32V2.584C72.496 2.04 72.048 1.624 71.536 1.304L69.264 1.208L68.112 1.72C67.984 2.68 67.792 3.672 67.344 4.504C66.832 5.368 66.384 6.232 65.968 6.968C65.424 7.832 65.2 8.792 65.2 9.848C65.328 12.216 65.328 12.856 65.328 13.496C65.328 14.136 65.328 14.776 65.424 15.32C65.52 15.96 65.52 16.6 65.648 17.24L65.52 18.008L66.48 20.248L68.304 20.568ZM71.536 17.688C68.848 18.2 68.432 18.104 68.112 17.784L68.208 14.552C68.752 14.648 70.768 14.776 71.216 14.872C71.632 15.608 71.856 16.824 71.856 16.824C71.952 17.144 71.856 17.464 71.536 17.688ZM70.992 12.408L68.752 12.184L68.208 11.672L68.432 9.976L68.752 9.848C69.488 9.752 70.128 9.848 70.768 10.2L71.152 11.672L70.992 12.408Z" fill="#2D2D2D"/>
<path d="M109.232 28.088C110.064 28.216 110.832 27.896 111.472 27.352C112.016 26.808 112.656 26.392 113.296 25.944C113.808 25.208 114.352 24.472 114.8 23.704C115.12 22.968 115.536 22.2 115.856 21.464C116.56 22.04 117.456 22.584 118.32 23.448C119.056 24.088 119.824 24.6 120.688 25.048C121.424 25.464 122.288 25.784 123.248 25.912C123.792 26.008 124.208 25.912 124.528 25.688C123.792 24.952 123.024 24.184 122.064 23.448C121.104 22.68 120.304 21.848 119.6 20.984C118.576 19.736 118.096 18.68 117.456 17.72C117.68 16.76 117.904 15.896 118 14.936C118.096 13.976 118.224 13.016 118.32 12.056C118.416 11.064 118.736 10.232 119.28 9.464L119.056 8.28C119.696 8.184 122.288 7.224 122.8 6.904C122.8 6.904 123.056 6.232 122.704 5.976L119.696 5.56L117.136 5.656C116.4 5.656 115.632 5.656 114.896 5.656C114.16 5.656 113.392 5.56 112.752 5.432L112.432 4.44C112.336 3.896 112.112 3.384 111.792 2.936C111.248 2.2 110.512 1.752 109.744 1.432H109.104L109.328 3.48C109.232 4.536 109.104 5.624 109.008 6.584C108.784 7.544 108.592 8.632 108.464 9.592C108.368 10.552 108.144 11.608 108.048 12.568L108.272 14.296C108.464 14.84 108.784 15.256 109.232 15.576C109.968 15.672 110.512 15.48 110.928 14.936C111.472 15.256 111.888 15.672 112.208 16.312C112.112 17.592 111.792 18.776 111.248 19.96C110.704 21.144 110.192 22.2 109.648 23.288C109.104 24.344 108.592 25.528 108.272 26.712V27.032L109.232 28.088ZM99.152 25.944L101.616 25.432C103.92 24.44 105.52 23.8 106.096 23.288C106.416 22.52 106.64 21.688 106.736 20.696C106.864 19.864 106.96 19 107.056 18.136L106.96 15.992C106.32 15.48 105.584 15.256 104.816 15.16C104.08 15.16 102.928 14.68 102.928 14.68C103.248 14.136 103.216 11.608 103.312 10.968C103.44 10.424 103.76 9.752 103.76 9.752C104.304 9.336 104.816 9.112 105.584 9.016C106.224 8.888 106.768 8.664 107.28 8.344V7.544L103.952 7L103.44 6.488C103.312 5.72 103.44 4.984 103.76 4.44L103.632 3.896L100.432 2.424L99.888 2.616V6.584C99.376 7 98.704 7.224 97.968 7.128C97.232 7 96.464 7.128 95.824 7.32L95.728 8.12L96.816 9.304L99.824 9.528C99.824 9.528 100.208 10.552 100.208 11.288C100.208 12.152 100.336 13.016 100.432 14.616C99.472 14.712 98.608 14.936 97.872 15.352C97.104 15.8 96.272 16.216 95.504 16.536C95.6 17.272 95.824 17.912 96.048 18.584C96.144 19.32 96.272 19.96 96.272 20.696C96.272 21.464 96.272 22.2 96.272 22.968C96.592 23.48 97.008 24.12 97.552 24.664C97.968 25.208 98.512 25.624 99.152 25.944ZM102.256 22.104L100.336 21.88C100.016 21.464 99.888 20.92 99.888 20.376C99.888 19.864 99.888 19.416 99.792 18.904L100.08 18.104C100.208 17.688 100.528 17.368 100.944 17.272L102.608 17.56L102.992 21.528L102.256 22.104ZM114.48 11.384H113.616C113.072 11.064 112.528 10.744 112.112 10.328C112.016 9.688 112.208 9.144 112.752 8.728L114.576 8.824L114.992 9.368C114.992 10.104 114.896 10.744 114.48 11.384ZM142.448 29.4L143.184 29.176L143.408 28.312C142.96 26.2 142.96 25.112 143.088 24.152C143.088 23.192 143.184 22.072 143.344 21.112C144.368 20.792 145.328 20.664 146.352 20.568C147.216 20.472 148.08 20.344 148.72 20.152L149.392 18.296C150.48 17.976 151.632 17.752 152.432 17.88C153.36 17.976 154.224 17.752 154.704 17.336L154.736 16.152C154.384 15.832 153.904 15.704 153.232 15.704C152.528 15.704 150.96 15.672 150.064 15.576C150.064 15.576 149.712 14.328 149.264 13.784C148.624 13.24 148.08 12.92 147.184 12.92C146.16 13.016 144.976 12.92 143.664 12.6L144.016 12.056C144.976 11.864 145.84 11.896 146.64 11.8C147.312 11.8 148.528 11.64 149.008 11.32L150.8 8.12L150.672 7.448C149.968 6.936 149.104 6.616 148.016 6.616C146.672 6.616 145.456 6.488 144.048 6.296V5.752C145.424 5.432 146.576 5.336 147.728 5.432C148.72 5.528 149.616 5.336 150.192 5.016V4.12C149.424 3.672 148.528 3.448 147.536 3.352C146.384 3.352 145.2 3.352 143.664 3.256L143.504 2.392C143.312 1.496 141.904 0.503998 141.136 0.279999L140.912 0.503998L141.232 3.256C140.112 3.576 139.12 3.672 138.224 3.576C137.264 3.576 136.432 3.576 135.728 3.672C134.864 3.768 134.032 3.992 133.776 4.216C133.776 4.216 133.456 4.984 133.84 5.336C134.672 5.816 136.144 6.072 136.144 6.072L141.232 5.688L141.072 6.296C139.76 6.392 138.864 6.392 138.032 6.488C137.136 6.616 136.24 6.616 134.896 6.68C134.128 6.776 133.52 7.096 133.264 7.64C133.552 8.376 133.712 9.144 133.904 9.88C134.032 10.744 134.256 11.48 134.864 12.12L137.136 12.312C138.032 12.216 138.768 12.216 141.168 12.216L140.624 13.144C140.624 13.144 133.52 13.4 132.528 13.816L132.464 14.52C132.976 15.288 133.936 15.384 134.896 15.384L138.192 15.352C138.928 15.352 140.848 15.512 140.848 15.512L140.528 16.024C138.928 16.248 137.744 16.248 136.528 16.344C135.248 16.44 134.128 16.568 132.848 16.792C131.728 16.952 130.864 17.048 129.488 17.272C129.488 17.272 128.976 18.392 129.552 18.84C130.128 18.744 130.992 18.744 131.984 18.616C133.008 18.616 139.408 18.328 140.304 18.328L140.112 19.032C139.056 19.032 134.16 19.512 134.16 19.512L132.944 19.768L133.008 20.376C133.008 20.376 133.936 21.368 134.544 21.528C134.992 21.432 135.568 21.304 136.336 21.208C136.944 21.112 137.456 21.112 138.096 20.984L140.208 21.112L140.464 21.432C140.464 22.072 140.464 23.736 139.856 24.248L135.696 23.608H136.144C135.888 24.248 136.784 24.888 137.68 25.656C138.384 26.392 139.12 27.032 139.856 27.8C140.528 28.536 141.328 29.08 142.448 29.4ZM146.128 18.904L143.44 19L143.664 18.264L146.416 18.04L146.128 18.904ZM146.288 15.704L143.632 15.608L143.664 15.128C143.664 15.128 145.36 14.744 146.288 15.288V15.704ZM146.256 9.816L143.76 9.656L144.144 8.6C145.04 8.504 146 8.44 146.64 8.76C146.576 9.336 146.256 9.816 146.256 9.816ZM139.088 9.784L136.624 9.944L136.496 8.6C136.496 8.6 138.096 8.344 139.312 8.344L141.2 8.312V9.592L139.088 9.784Z" fill="#FF7A00"/>
</svg>
